<svg width="25" height="25" viewBox="0 0 24 24" fill="none" xmlns="http://www.w3.org/2000/svg">
<path d="M3 18.5136V20.6175C3 20.83 3.17001 20.9787 3.38253 21H14.7521C14.9646 21 15.1133 20.83 15.1346 20.6175V18.5136C15.1346 16.0059 13.477 13.817 11.0755 13.1157C11.8193 12.7119 12.4144 12.0744 12.7757 11.3306C13.0944 11.5856 13.4557 11.7769 13.817 11.9044V12.3719C13.817 12.9032 14.242 13.3495 14.7946 13.3495H15.6446C16.1759 13.3495 16.6222 12.9245 16.6222 12.3719V11.9044C17.0473 11.7556 17.4298 11.5218 17.791 11.2456L18.1948 11.4793C18.6624 11.7344 19.2574 11.5856 19.5124 11.1181L19.9375 10.3955C20.2137 9.92797 20.0437 9.33293 19.5762 9.05668L19.1724 8.82291C19.2149 8.61039 19.2362 8.37661 19.2362 8.16409C19.2362 7.95158 19.2149 7.7178 19.1724 7.50528L19.5762 7.27151C20.0437 7.01647 20.2137 6.42143 19.9375 5.95392C19.9162 5.93267 19.8524 5.82643 19.5124 5.23138C19.2361 4.76383 18.6623 4.61508 18.1948 4.87012L17.791 5.10389C17.451 4.8276 17.0473 4.59387 16.6222 4.44508V3.97757C16.6222 3.44629 16.1972 3 15.6446 3H14.7946C14.2633 3 13.817 3.42504 13.817 3.97757V4.44512C13.392 4.59387 13.0094 4.82765 12.6482 5.10393L12.2444 4.87016C11.7768 4.61513 11.1818 4.76392 10.9268 5.23143L10.6293 5.74145C10.1405 5.52893 9.60922 5.44395 9.07794 5.44395C6.8253 5.44395 4.9764 7.25034 4.9764 9.50298C4.9764 10.9906 5.78396 12.3719 7.08029 13.0945C4.65764 13.7957 3 16.0059 3 18.5136ZM11.5431 5.61395C11.6069 5.50772 11.7344 5.4652 11.8619 5.52893L12.4994 5.8902C12.6482 5.97522 12.8182 5.95397 12.9457 5.84769C13.3282 5.48642 13.7745 5.23138 14.2845 5.08263C14.4333 5.04012 14.5608 4.89137 14.5608 4.72136V3.99883C14.5608 3.87133 14.6671 3.76505 14.7946 3.76505H15.6447C15.7722 3.76505 15.8785 3.87129 15.8785 3.99883V4.72136C15.8785 4.89137 15.9847 5.04012 16.1548 5.08263C16.6435 5.23138 17.1111 5.48642 17.4936 5.84769C17.6211 5.95392 17.7911 5.97518 17.9399 5.8902L18.5774 5.52893C18.6837 5.46516 18.8325 5.50767 18.8962 5.61395L19.3211 6.33649C19.3849 6.44273 19.3424 6.59152 19.2361 6.63399L18.5986 6.99526C18.4498 7.08029 18.386 7.25029 18.4286 7.39904C18.5561 7.90906 18.5561 8.41913 18.4286 8.92915C18.386 9.09915 18.4711 9.26916 18.5986 9.33293L19.2361 9.6942C19.3424 9.75797 19.3849 9.88546 19.3211 10.013L18.8961 10.7355C18.8323 10.8417 18.7048 10.8842 18.5986 10.8205L17.9611 10.4592C17.8123 10.3742 17.6423 10.3955 17.5148 10.5018C17.1322 10.863 16.6859 11.1181 16.1759 11.2668C16.0059 11.3093 15.8996 11.4581 15.8996 11.6281V12.3506C15.8996 12.4781 15.7934 12.5844 15.6659 12.5844H14.8158C14.6883 12.5844 14.582 12.4782 14.582 12.3506V11.6281C14.582 11.4581 14.4758 11.3093 14.3057 11.2668C13.8382 11.1393 13.4132 10.9055 13.0519 10.5868C13.1369 10.2468 13.1794 9.84299 13.1794 9.54545C13.1794 8.10033 12.4143 6.82526 11.288 6.10272L11.5431 5.61395ZM5.69894 9.52419C5.69894 7.67533 7.20778 6.1877 9.05668 6.1877C10.9056 6.1877 12.4144 7.69654 12.4144 9.52419C12.4144 11.2668 11.0968 12.8819 9.03543 12.8819C7.20778 12.8819 5.69894 11.3731 5.69894 9.52419ZM8.63165 13.6257C8.67416 13.6257 9.52419 13.6257 9.48172 13.6257C12.1807 13.6257 14.3696 15.8146 14.3696 18.5136V20.2349H3.74379V18.5136C3.74379 15.8146 5.93271 13.6257 8.63165 13.6257Z" fill="white"/>
<path d="M15.1979 10.2468C16.3454 10.2468 17.2592 9.31174 17.2592 8.16416C17.2592 7.01658 16.3242 6.10278 15.1766 6.10278C14.029 6.10278 13.1152 7.03784 13.1152 8.18542C13.1152 9.31169 14.0503 10.2468 15.1979 10.2468ZM15.1979 6.84653C15.9417 6.84653 16.5155 7.46284 16.5155 8.18537C16.5155 8.92917 15.8992 9.50296 15.1766 9.50296C14.4541 9.50296 13.859 8.90791 13.859 8.16412C13.859 7.42032 14.4541 6.82528 15.1979 6.84653Z" fill="white"/>
</svg>
