<svg width="25" height="25" viewBox="0 0 18 18" fill="none" xmlns="http://www.w3.org/2000/svg">
<g clip-path="url(#clip0_4451_2744)">
<path d="M15.4025 9.67343C16.3732 9.67343 16.4878 10.3475 16.8889 10.1621C17.172 10.0374 17.0877 10.206 17.0877 4.61784C17.0877 4.52846 17.0522 4.44273 16.989 4.37952C16.9258 4.31631 16.8401 4.2808 16.7507 4.2808H12.14C12.3596 3.81829 12.4228 3.29688 12.3201 2.79528C12.2173 2.29369 11.9542 1.83913 11.5704 1.50023C9.67286 -0.184965 6.78443 1.97883 7.87981 4.2808H4.61727C4.52788 4.2808 4.44216 4.31631 4.37895 4.37952C4.31574 4.44273 4.28023 4.52846 4.28023 4.61784V9.22854C3.81772 9.0089 3.29631 8.94569 2.79471 9.04844C2.29311 9.15119 1.83856 9.41433 1.49966 9.79814C-0.185537 11.7125 1.985 14.5807 4.28023 13.5056V16.7513C4.28023 16.8406 4.31574 16.9264 4.37895 16.9896C4.44216 17.0528 4.52788 17.0883 4.61727 17.0883H8.5067C8.57183 17.0881 8.63551 17.0691 8.69006 17.0335C8.7446 16.998 8.78767 16.9473 8.81405 16.8878C8.84043 16.8283 8.849 16.7624 8.83872 16.698C8.82844 16.6337 8.79975 16.5738 8.75611 16.5254C8.58567 16.3282 8.4633 16.0942 8.39861 15.8417C8.33393 15.5892 8.3287 15.3251 8.38333 15.0703C8.43795 14.8154 8.55096 14.5767 8.71345 14.3729C8.87594 14.1691 9.0835 14.0058 9.31979 13.8958C9.55608 13.7857 9.81468 13.732 10.0752 13.7389C10.3358 13.7457 10.5912 13.8129 10.8214 13.9351C11.0516 14.0573 11.2503 14.2313 11.4019 14.4434C11.5535 14.6554 11.6539 14.8997 11.6951 15.1571C11.8535 16.2828 11.021 16.4614 11.2232 16.8894C11.3479 17.1726 11.1794 17.0883 16.7675 17.0883C16.8569 17.0883 16.9426 17.0528 17.0059 16.9896C17.0691 16.9264 17.1046 16.8406 17.1046 16.7513V12.8618C17.1044 12.7967 17.0854 12.733 17.0498 12.6785C17.0142 12.6239 16.9636 12.5809 16.9041 12.5545C16.8445 12.5281 16.7786 12.5195 16.7143 12.5298C16.65 12.5401 16.5901 12.5688 16.5417 12.6124C16.3388 12.7946 16.0947 12.9249 15.8303 12.992C15.5659 13.0591 15.2892 13.061 15.024 12.9976C14.7587 12.9342 14.5128 12.8073 14.3073 12.6279C14.1019 12.4485 13.9431 12.2219 13.8445 11.9676C13.7459 11.7133 13.7105 11.4389 13.7414 11.1679C13.7723 10.8969 13.8684 10.6374 14.0217 10.4118C14.1749 10.1862 14.3806 10.0011 14.6211 9.87249C14.8616 9.74388 15.1298 9.67557 15.4025 9.67343ZM13.6331 9.79814C11.9479 11.7125 14.1184 14.5807 16.4136 13.5056V16.4142H12.14C13.2354 14.1122 10.3604 11.9484 8.44941 13.6336C8.0656 13.9725 7.80246 14.4271 7.69971 14.9287C7.59696 15.4303 7.66017 15.9517 7.87981 16.4142H4.95431V12.8618C4.95416 12.7967 4.93514 12.733 4.89956 12.6785C4.86398 12.6239 4.81335 12.5809 4.75381 12.5545C4.69427 12.5281 4.62837 12.5195 4.56406 12.5298C4.49975 12.5401 4.4398 12.5688 4.39146 12.6124C4.188 12.7951 3.94313 12.9256 3.67798 12.9925C3.41284 13.0595 3.13539 13.0609 2.86958 12.9967C2.60377 12.9324 2.35758 12.8045 2.15227 12.6238C1.94696 12.4432 1.7887 12.2153 1.69114 11.9598C1.59358 11.7044 1.55966 11.429 1.5923 11.1575C1.62494 10.886 1.72317 10.6265 1.8785 10.4014C2.03383 10.1763 2.2416 9.99246 2.48388 9.86563C2.72615 9.7388 2.99565 9.67284 3.26911 9.67343C4.23979 9.67343 4.35438 10.3475 4.75546 10.1621C5.0352 10.0374 4.95431 10.1857 4.95431 4.95488C8.6887 4.95488 8.69208 5.03577 8.81341 4.75603C9.00215 4.33136 8.18315 4.16621 8.34155 3.02365C8.37951 2.76346 8.47782 2.51576 8.62863 2.30037C8.77944 2.08497 8.97856 1.90785 9.21007 1.78318C9.44158 1.65851 9.69905 1.58973 9.96189 1.58237C10.2247 1.575 10.4856 1.62924 10.7238 1.74075C10.9619 1.85226 11.1706 2.01795 11.3333 2.22456C11.4959 2.43117 11.6079 2.67297 11.6604 2.93063C11.7129 3.18828 11.7043 3.45464 11.6354 3.7084C11.5666 3.96216 11.4392 4.19627 11.2637 4.39203C11.2201 4.44037 11.1914 4.50032 11.1811 4.56463C11.1708 4.62894 11.1794 4.69485 11.2057 4.75439C11.2321 4.81393 11.2752 4.86455 11.3297 4.90013C11.3843 4.93571 11.448 4.95473 11.5131 4.95488H16.4136V9.22854C15.9511 9.0089 15.4297 8.94569 14.9281 9.04844C14.4265 9.15119 13.972 9.41433 13.6331 9.79814Z" fill="white"/>
</g>
<defs>
<clipPath id="clip0_4451_2744">
<rect width="18" height="18" fill="white"/>
</clipPath>
</defs>
</svg>
