<svg width="25" height="25" viewBox="0 0 18 18" fill="none" xmlns="http://www.w3.org/2000/svg">
<path d="M15.1164 2.25L14.114 3.25241L13.1116 2.25L12.4785 2.8831L13.4809 3.88551L12.4785 4.88791L13.1116 5.52101L14.114 4.51861L15.1164 5.52101L15.7495 4.88791L14.7471 3.88551L15.7495 2.8831L15.1164 2.25Z" fill="white"/>
<path d="M9.18203 10.3774H6.66013C6.20862 10.3774 2.25 10.4404 2.25 12.616V15.75H13.5922V12.616C13.5922 10.4404 9.63354 10.3774 9.18203 10.3774ZM12.6967 14.8546H3.14543V12.616C3.14543 11.6037 5.51344 11.274 6.66013 11.2729H9.18203C10.3287 11.2729 12.6967 11.6011 12.6967 12.616V14.8546Z" fill="white"/>
<path d="M7.92153 9.48197C9.69363 9.48197 11.1302 8.0454 11.1302 6.27333C11.1302 4.50123 9.69363 3.0647 7.92153 3.0647C6.14946 3.0647 4.71289 4.50123 4.71289 6.27333C4.71289 8.0454 6.14946 9.48197 7.92153 9.48197ZM7.92153 3.96013C9.19702 3.96013 10.2347 4.99781 10.2347 6.27333C10.2347 7.54882 9.19702 8.58654 7.92153 8.58654C6.64604 8.58654 5.60832 7.54882 5.60832 6.27333C5.60832 4.99781 6.64604 3.96013 7.92153 3.96013Z" fill="white"/>
</svg>
