<svg width="25" height="25" viewBox="0 0 18 18" fill="none" xmlns="http://www.w3.org/2000/svg">
<path d="M9.62479 15.7441H8.36887C8.01492 15.7441 7.7272 15.4619 7.7272 15.1146V13.903C7.25892 13.7769 6.8227 13.5951 6.42698 13.3605L5.56383 14.2232C5.30986 14.4595 4.92131 14.4591 4.67325 14.2287L3.77044 13.3263C3.53545 13.0724 3.53545 12.6842 3.76453 12.4366L4.63359 11.5671C4.39903 11.171 4.21678 10.7343 4.09064 10.2665H2.87944C2.53223 10.2665 2.25 9.97874 2.25 9.62521V8.36887C2.25 8.01492 2.53223 7.7272 2.87944 7.7272H4.09064C4.21678 7.25976 4.39903 6.82312 4.63359 6.42656L3.77044 5.56383C3.53503 5.3107 3.53503 4.92215 3.76453 4.67409L4.66776 3.77086C4.92131 3.53461 5.30986 3.53503 5.55834 3.76537L6.42698 4.63359C6.82228 4.39945 7.25807 4.21762 7.7272 4.09106V2.87944C7.7272 2.53223 8.01534 2.25 8.36929 2.25H9.62521C9.97874 2.25 10.2665 2.53223 10.2665 2.87944V4.09106C10.7352 4.21762 11.1718 4.39903 11.5671 4.63359L12.4303 3.77086C12.6842 3.53461 13.0732 3.53503 13.3208 3.76537L14.2236 4.66776C14.4599 4.92215 14.4595 5.3107 14.2291 5.55834L13.3605 6.42698C13.5951 6.8227 13.7769 7.25934 13.9034 7.72762H15.1151C15.4619 7.72762 15.7441 8.01534 15.7441 8.36929V9.62564C15.7441 9.97917 15.4619 10.2669 15.1151 10.2669H13.9034C13.8343 10.5209 13.7482 10.7672 13.6457 11.0014C13.5993 11.1085 13.4752 11.1566 13.3681 11.1102C13.2614 11.0638 13.2128 10.9394 13.2592 10.8326C13.3731 10.5715 13.4655 10.2939 13.5343 10.007C13.5571 9.91167 13.6419 9.84501 13.7393 9.84501H15.1151C15.2277 9.84501 15.3222 9.7446 15.3222 9.62564V8.36929C15.3222 8.25032 15.2273 8.1495 15.1151 8.1495H13.7393C13.6419 8.1495 13.5567 8.08242 13.5343 7.9875C13.4044 7.44454 13.1964 6.94715 12.9158 6.50925C12.8623 6.42614 12.8741 6.31645 12.9441 6.24642L13.925 5.26556C13.9992 5.18583 13.9992 5.04619 13.9191 4.96012L13.0276 4.06912C12.9479 3.9953 12.8078 3.99445 12.7222 4.07503L11.7468 5.04998C11.6764 5.12044 11.5663 5.13098 11.484 5.07825C11.0469 4.7977 10.5495 4.59014 10.0057 4.4602C9.91082 4.43742 9.84374 4.35262 9.84374 4.25517V2.87944C9.84374 2.7668 9.74334 2.67187 9.62437 2.67187H8.36845C8.24906 2.67187 8.14865 2.76722 8.14865 2.87944V4.25517C8.14865 4.35262 8.08157 4.43784 7.98665 4.4602C7.44286 4.59014 6.94589 4.79812 6.50925 5.07825C6.42614 5.1314 6.31687 5.12001 6.24684 5.04998L5.26556 4.06955C5.1854 3.99572 5.04534 3.9953 4.96055 4.07503L4.06912 4.96603C3.9953 5.04619 3.99487 5.18583 4.07419 5.27147L5.04998 6.24684C5.12001 6.31687 5.13183 6.42614 5.07867 6.50967C4.7977 6.94884 4.5893 7.44623 4.4602 7.98792C4.43742 8.08284 4.35262 8.14992 4.25517 8.14992H2.87986C2.76722 8.1495 2.67187 8.25032 2.67187 8.36929V9.62564C2.67187 9.74418 2.76722 9.84501 2.87944 9.84501H4.25475C4.3522 9.84501 4.43742 9.91209 4.45978 10.007C4.5893 10.5491 4.79728 11.0465 5.07825 11.4853C5.13183 11.5684 5.12001 11.6781 5.04998 11.7481L4.06912 12.7289C3.99403 12.8099 3.99403 12.9475 4.07503 13.0348L4.96645 13.9254C5.04619 13.9992 5.18583 13.9992 5.27147 13.9199L6.24684 12.9445C6.31687 12.8745 6.42656 12.8627 6.51009 12.9163C6.948 13.1972 7.44496 13.4048 7.9875 13.5343C8.08284 13.5571 8.1495 13.6419 8.1495 13.7393V15.1151C8.1495 15.2277 8.25032 15.3226 8.36929 15.3226H9.62521C9.74376 15.3226 9.84459 15.2273 9.84459 15.1151V13.7393C9.84459 13.6419 9.91124 13.5567 10.0066 13.5343C10.2918 13.466 10.5698 13.3736 10.833 13.2592C10.941 13.2137 11.0642 13.2618 11.1106 13.3689C11.1566 13.4757 11.1077 13.6001 11.0009 13.6465C10.7651 13.7486 10.5187 13.8347 10.2665 13.9034V15.1151C10.266 15.4619 9.97832 15.7441 9.62479 15.7441ZM9.00295 12.3716C7.13953 12.3716 5.62289 10.8605 5.62289 9.00337C5.62289 7.13911 7.13911 5.62247 9.00295 5.62247C10.86 5.62247 12.3712 7.13911 12.3712 9.00337C12.3712 9.23076 12.3543 9.43157 12.3197 9.61593C12.2982 9.73068 12.186 9.80578 12.0738 9.78426C11.9594 9.76274 11.8839 9.65264 11.9054 9.53831C11.935 9.37926 11.9493 9.20418 11.9493 9.00295C11.9493 7.37156 10.6276 6.04392 9.00295 6.04392C7.37198 6.04392 6.04476 7.37114 6.04476 9.00295C6.04476 10.628 7.37198 11.9493 9.00295 11.9493C9.20292 11.9493 9.378 11.935 9.53873 11.905C9.65053 11.8844 9.76317 11.9586 9.78468 12.0734C9.8062 12.1877 9.73068 12.2978 9.61635 12.3193C9.42989 12.3547 9.22907 12.3716 9.00295 12.3716Z" fill="white" stroke="white" stroke-width="0.25"/>
<path d="M14.6416 15.75C14.3467 15.75 14.07 15.6319 13.862 15.4168L9.48671 11.0533C9.32724 11.0875 9.16777 11.1039 9.0024 11.1039C7.8376 11.1039 6.88965 10.1619 6.88965 9.00343C6.88965 8.67479 6.95715 8.3664 7.08962 8.08712C7.11915 8.02552 7.17695 7.98165 7.24445 7.96984C7.31195 7.95845 7.38113 7.97996 7.42923 8.0289L8.45776 9.05743C8.61933 9.21901 8.90073 9.22196 9.05302 9.06123C9.13824 8.98023 9.18169 8.87813 9.18296 8.76845C9.18423 8.65201 9.13951 8.54232 9.0564 8.45921L8.02787 7.43068C7.97935 7.38259 7.95741 7.3134 7.96923 7.2459C7.98062 7.1784 8.02449 7.1206 8.08609 7.09107C8.36452 6.95818 8.67291 6.89026 9.00198 6.89026C10.1604 6.89026 11.1025 7.83821 11.1025 9.00343C11.1025 9.1688 11.086 9.3287 11.0519 9.48774L15.4187 13.8655C15.6309 14.071 15.7494 14.3477 15.7494 14.6426C15.7494 14.9371 15.6309 15.2138 15.4162 15.4218C15.2132 15.6319 14.9361 15.75 14.6416 15.75ZM9.55252 10.6099C9.60779 10.6099 9.66137 10.6314 9.70187 10.6715L14.1632 15.1206C14.4231 15.3906 14.8622 15.3885 15.1183 15.1236C15.2546 14.9907 15.3276 14.8219 15.3276 14.6426C15.3276 14.4629 15.2546 14.2942 15.123 14.1663L10.6705 9.70248C10.6178 9.6489 10.5967 9.57127 10.6161 9.49913C10.6599 9.33502 10.681 9.17344 10.681 9.00343C10.681 8.07066 9.92799 7.31213 9.0024 7.31213C8.84841 7.31213 8.70033 7.33027 8.56027 7.36613L9.35508 8.16052C9.51919 8.32506 9.60821 8.54232 9.60526 8.77351C9.6023 8.99795 9.51202 9.20593 9.35129 9.35949C9.05555 9.67041 8.48265 9.68012 8.15949 9.3557L7.36552 8.5613C7.32966 8.70137 7.31195 8.84944 7.31195 9.00343C7.31195 9.92902 8.07048 10.6821 9.00282 10.6821C9.17241 10.6821 9.33441 10.6606 9.49852 10.6171C9.51624 10.6125 9.53438 10.6099 9.55252 10.6099Z" fill="white" stroke="white" stroke-width="0.25"/>
</svg>
