<svg width="25" height="25" viewBox="0 0 18 18" fill="none" xmlns="http://www.w3.org/2000/svg">
<path d="M6.00039 9.90002H5.40039V10.5H6.00039V9.90002Z" fill="white"/>
<path d="M6.00039 11.1H5.40039V11.7H6.00039V11.1Z" fill="white"/>
<path d="M6.00039 12.2999H5.40039V12.8999H6.00039V12.2999Z" fill="white"/>
<path d="M6.00039 8.69995H5.40039V9.29995H6.00039V8.69995Z" fill="white"/>
<path d="M6.00039 7.5H5.40039V8.1H6.00039V7.5Z" fill="white"/>
<path d="M6.00039 6.29993H5.40039V6.89993H6.00039V6.29993Z" fill="white"/>
<path d="M6.00039 5.09998H5.40039V5.69998H6.00039V5.09998Z" fill="white"/>
<path d="M1.79922 4.79993H1.19922V5.39993H1.79922V4.79993Z" fill="white"/>
<path d="M16.8002 5.09998H16.2002V5.69998H16.8002V5.09998Z" fill="white"/>
<path d="M16.8002 12.2999H16.2002V12.8999H16.8002V12.2999Z" fill="white"/>
<path d="M1.79922 12.2999H1.19922V12.8999H1.79922V12.2999Z" fill="white"/>
<path d="M17.7 7.19998C17.8657 7.19998 18 7.06565 18 6.89998V3.89998C18 3.7343 17.8657 3.59998 17.7 3.59998H0.3C0.134325 3.59998 0 3.7343 0 3.89998V6.89998C0 7.06565 0.134325 7.19998 0.3 7.19998C1.12841 7.19998 1.8 7.87156 1.8 8.69998C1.8 9.52839 1.12841 10.2 0.3 10.2C0.134325 10.2 0 10.3343 0 10.5V13.5C0 13.6657 0.134325 13.8 0.3 13.8H17.7C17.8657 13.8 18 13.6657 18 13.5V10.5C18 10.3343 17.8657 10.2 17.7 10.2C16.8716 10.2 16.2 9.52839 16.2 8.69998C16.2 7.87156 16.8716 7.19998 17.7 7.19998ZM15.6196 8.99833C15.7521 9.9212 16.4772 10.6462 17.4 10.7787V13.2H0.6V10.7787C1.74803 10.6139 2.54513 9.54969 2.38035 8.40163C2.2479 7.47879 1.52288 6.75373 0.6 6.62128V4.19998H17.4V6.62128C16.252 6.78605 15.4549 7.85026 15.6196 8.99833Z" fill="white"/>
<path d="M9.00078 6C8.33804 6 7.80078 6.53726 7.80078 7.2C7.80078 7.86274 8.33804 8.4 9.00078 8.4C9.66352 8.4 10.2008 7.86274 10.2008 7.2C10.2008 6.53726 9.66352 6 9.00078 6ZM9.00078 7.8C8.66939 7.8 8.40078 7.53139 8.40078 7.2C8.40078 6.86861 8.66939 6.6 9.00078 6.6C9.33217 6.6 9.60078 6.86861 9.60078 7.2C9.60078 7.53139 9.33217 7.8 9.00078 7.8Z" fill="white"/>
<path d="M12.6004 9.59998C11.9377 9.59998 11.4004 10.1372 11.4004 10.8C11.4004 11.4627 11.9377 12 12.6004 12C13.2631 12 13.8004 11.4627 13.8004 10.8C13.8004 10.1372 13.2631 9.59998 12.6004 9.59998ZM12.6004 11.4C12.269 11.4 12.0004 11.1314 12.0004 10.8C12.0004 10.4686 12.269 10.2 12.6004 10.2C12.9318 10.2 13.2004 10.4686 13.2004 10.8C13.2004 11.1314 12.9318 11.4 12.6004 11.4Z" fill="white"/>
<path d="M12.9884 6.38736L8.18848 11.1873L8.61274 11.6115L13.4126 6.81162L12.9884 6.38736Z" fill="white"/>
</svg>
