<svg width="25" height="25" viewBox="0 0 18 18" fill="none" xmlns="http://www.w3.org/2000/svg">
<path d="M14.4209 13.8543H3.57912C3.22672 13.8539 2.88887 13.7137 2.63969 13.4645C2.39052 13.2153 2.25037 12.8774 2.25 12.525V5.82925C2.25037 5.47684 2.39052 5.13898 2.63969 4.88978C2.88887 4.64058 3.22672 4.5004 3.57912 4.5H14.4209C14.7733 4.5004 15.1111 4.64058 15.3603 4.88978C15.6095 5.13898 15.7496 5.47684 15.75 5.82925V12.525C15.7496 12.8774 15.6095 13.2153 15.3603 13.4645C15.1111 13.7137 14.7733 13.8539 14.4209 13.8543ZM3.57912 5.00802C3.3614 5.00826 3.15267 5.09486 2.99873 5.24882C2.8448 5.40278 2.75823 5.61153 2.75802 5.82925V12.525C2.75823 12.7427 2.8448 12.9515 2.99873 13.1054C3.15267 13.2594 3.3614 13.346 3.57912 13.3462H14.4209C14.6386 13.346 14.8473 13.2594 15.0013 13.1054C15.1552 12.9515 15.2418 12.7427 15.242 12.525V5.82925C15.2418 5.61153 15.1552 5.40278 15.0013 5.24882C14.8473 5.09486 14.6386 5.00826 14.4209 5.00802H3.57912Z" fill="white" stroke="white" stroke-width="0.25"/>
<path d="M8.99982 10.672C8.9379 10.672 8.8781 10.6494 8.83166 10.6085L2.70996 5.20463L3.04615 4.82361L8.99982 10.0796L14.9537 4.82424L15.2899 5.20526L9.16823 10.6091C9.12167 10.65 9.06175 10.6723 8.99982 10.672Z" fill="white" stroke="white" stroke-width="0.25"/>
<path d="M2.57129 13.0566L6.68378 8.37089L7.06582 8.70619L2.95332 13.3919L2.57129 13.0566Z" fill="white" stroke="white" stroke-width="0.25"/>
<path d="M10.9463 8.70117L11.3283 8.36588L15.4409 13.0517L15.0589 13.387L10.9463 8.70117Z" fill="white" stroke="white" stroke-width="0.25"/>
</svg>
