<svg width="18" height="18" viewBox="0 0 18 18" fill="none" xmlns="http://www.w3.org/2000/svg">
<path d="M5.25 3.37498C5.25091 3.09423 5.17301 2.81885 5.02516 2.58018C4.87731 2.34151 4.66544 2.14913 4.41365 2.02491C4.16187 1.9007 3.88028 1.84964 3.60091 1.87755C3.32154 1.90545 3.05562 2.01121 2.83338 2.18277C2.61114 2.35434 2.44152 2.58483 2.3438 2.84804C2.24608 3.11124 2.22419 3.39658 2.28062 3.67161C2.33705 3.94664 2.46954 4.20031 2.66301 4.40376C2.85648 4.60722 3.10316 4.75229 3.375 4.82248V7.55248C3.05724 7.63884 2.77672 7.82736 2.57673 8.08896C2.37673 8.35056 2.26838 8.6707 2.26838 8.99998C2.26838 9.32927 2.37673 9.64941 2.57673 9.91101C2.77672 10.1726 3.05724 10.3611 3.375 10.4475V13.1775C3.02151 13.2688 2.71343 13.4858 2.50853 13.788C2.30362 14.0902 2.21596 14.4567 2.26196 14.8189C2.30796 15.181 2.48448 15.514 2.75842 15.7554C3.03236 15.9967 3.38491 16.1299 3.75 16.1299C4.11509 16.1299 4.46765 15.9967 4.74159 15.7554C5.01553 15.514 5.19205 15.181 5.23805 14.8189C5.28405 14.4567 5.19638 14.0902 4.99148 13.788C4.78657 13.4858 4.4785 13.2688 4.125 13.1775V10.4475C4.44277 10.3611 4.72329 10.1726 4.92328 9.91101C5.12327 9.64941 5.23163 9.32927 5.23163 8.99998C5.23163 8.6707 5.12327 8.35056 4.92328 8.08896C4.72329 7.82736 4.44277 7.63884 4.125 7.55248V4.82248C4.44618 4.73956 4.73081 4.55251 4.93437 4.2906C5.13793 4.02869 5.24893 3.70669 5.25 3.37498ZM3 3.37498C3 3.22665 3.04399 3.08164 3.1264 2.95831C3.20881 2.83497 3.32595 2.73884 3.46299 2.68207C3.60004 2.62531 3.75084 2.61046 3.89632 2.6394C4.04181 2.66833 4.17544 2.73977 4.28033 2.84465C4.38522 2.94954 4.45665 3.08318 4.48559 3.22867C4.51453 3.37415 4.49968 3.52495 4.44291 3.662C4.38615 3.79904 4.29002 3.91618 4.16668 3.99859C4.04334 4.081 3.89834 4.12498 3.75 4.12498C3.55109 4.12498 3.36033 4.04597 3.21967 3.90531C3.07902 3.76466 3 3.5739 3 3.37498ZM4.5 14.625C4.5 14.7733 4.45602 14.9183 4.37361 15.0417C4.29119 15.165 4.17406 15.2611 4.03702 15.3179C3.89997 15.3747 3.74917 15.3895 3.60369 15.3606C3.4582 15.3316 3.32456 15.2602 3.21967 15.1553C3.11478 15.0504 3.04335 14.9168 3.01441 14.7713C2.98548 14.6258 3.00033 14.475 3.05709 14.338C3.11386 14.2009 3.20999 14.0838 3.33333 14.0014C3.45666 13.919 3.60167 13.875 3.75 13.875C3.94892 13.875 4.13968 13.954 4.28033 14.0947C4.42099 14.2353 4.5 14.4261 4.5 14.625ZM4.5 8.99998C4.5 9.14832 4.45602 9.29333 4.37361 9.41666C4.29119 9.54 4.17406 9.63613 4.03702 9.69289C3.89997 9.74966 3.74917 9.76451 3.60369 9.73557C3.4582 9.70663 3.32456 9.6352 3.21967 9.53031C3.11478 9.42543 3.04335 9.29179 3.01441 9.1463C2.98548 9.00082 3.00033 8.85002 3.05709 8.71297C3.11386 8.57593 3.20999 8.45879 3.33333 8.37638C3.45666 8.29397 3.60167 8.24998 3.75 8.24998C3.94892 8.24998 4.13968 8.329 4.28033 8.46965C4.42099 8.61031 4.5 8.80107 4.5 8.99998Z" fill="white"/>
<path d="M15.375 2.25H6.75C6.65054 2.25 6.55516 2.28951 6.48483 2.35984C6.41451 2.43016 6.375 2.52554 6.375 2.625C6.375 2.72446 6.41451 2.81984 6.48483 2.89016C6.55516 2.96049 6.65054 3 6.75 3H15.375C15.4745 3 15.5698 2.96049 15.6402 2.89016C15.7105 2.81984 15.75 2.72446 15.75 2.625C15.75 2.52554 15.7105 2.43016 15.6402 2.35984C15.5698 2.28951 15.4745 2.25 15.375 2.25Z" fill="white"/>
<path d="M6.75 4.5H11.625C11.7245 4.5 11.8198 4.46049 11.8902 4.39016C11.9605 4.31984 12 4.22446 12 4.125C12 4.02554 11.9605 3.93016 11.8902 3.85984C11.8198 3.78951 11.7245 3.75 11.625 3.75H6.75C6.65054 3.75 6.55516 3.78951 6.48483 3.85984C6.41451 3.93016 6.375 4.02554 6.375 4.125C6.375 4.22446 6.41451 4.31984 6.48483 4.39016C6.55516 4.46049 6.65054 4.5 6.75 4.5Z" fill="white"/>
<path d="M15.75 13.875C15.75 13.7755 15.7105 13.6802 15.6402 13.6098C15.5698 13.5395 15.4745 13.5 15.375 13.5H6.75C6.65054 13.5 6.55516 13.5395 6.48483 13.6098C6.41451 13.6802 6.375 13.7755 6.375 13.875C6.375 13.9745 6.41451 14.0698 6.48483 14.1402C6.55516 14.2105 6.65054 14.25 6.75 14.25H15.375C15.4745 14.25 15.5698 14.2105 15.6402 14.1402C15.7105 14.0698 15.75 13.9745 15.75 13.875Z" fill="white"/>
<path d="M6.75 15C6.65054 15 6.55516 15.0395 6.48483 15.1098C6.41451 15.1802 6.375 15.2755 6.375 15.375C6.375 15.4745 6.41451 15.5698 6.48483 15.6402C6.55516 15.7105 6.65054 15.75 6.75 15.75H11.625C11.7245 15.75 11.8198 15.7105 11.8902 15.6402C11.9605 15.5698 12 15.4745 12 15.375C12 15.2755 11.9605 15.1802 11.8902 15.1098C11.8198 15.0395 11.7245 15 11.625 15H6.75Z" fill="white"/>
<path d="M15.375 7.875H6.75C6.65054 7.875 6.55516 7.91451 6.48483 7.98483C6.41451 8.05516 6.375 8.15054 6.375 8.25C6.375 8.34946 6.41451 8.44484 6.48483 8.51517C6.55516 8.58549 6.65054 8.625 6.75 8.625H15.375C15.4745 8.625 15.5698 8.58549 15.6402 8.51517C15.7105 8.44484 15.75 8.34946 15.75 8.25C15.75 8.15054 15.7105 8.05516 15.6402 7.98483C15.5698 7.91451 15.4745 7.875 15.375 7.875Z" fill="white"/>
<path d="M6.75 10.125H11.625C11.7245 10.125 11.8198 10.0855 11.8902 10.0152C11.9605 9.94484 12 9.84946 12 9.75C12 9.65054 11.9605 9.55516 11.8902 9.48483C11.8198 9.41451 11.7245 9.375 11.625 9.375H6.75C6.65054 9.375 6.55516 9.41451 6.48483 9.48483C6.41451 9.55516 6.375 9.65054 6.375 9.75C6.375 9.84946 6.41451 9.94484 6.48483 10.0152C6.55516 10.0855 6.65054 10.125 6.75 10.125Z" fill="white"/>
</svg>
