<svg width="25" height="25" viewBox="0 0 24 24" fill="none" xmlns="http://www.w3.org/2000/svg">
<path d="M5.09802 10.5149C5.03019 10.4397 4.9965 10.3462 5.00029 10.2449C5.0081 10.0388 5.16541 9.87364 5.38653 9.88502C5.59271 9.89239 5.75426 10.0687 5.75024 10.2748C5.73931 10.4774 5.57776 10.635 5.37538 10.635C5.36801 10.635 5.36444 10.635 5.3602 10.635C5.25935 10.631 5.16541 10.5899 5.09802 10.5149ZM17.8816 15.5399C17.9003 15.6222 17.8925 15.7086 17.8588 15.7836L17.5621 16.4427C17.6527 16.5422 17.6884 16.687 17.6415 16.8225C17.608 16.918 17.538 16.9934 17.4501 17.0358L17.5027 17.9025C17.5027 18.5025 17.019 18.9862 16.4306 18.9862C16.3591 18.9862 16.2882 18.9822 16.2204 18.9672L14.5669 18.8548L14.4168 20.651V20.6548C14.4018 20.8498 14.2367 21 14.0417 21C14.0303 21 14.0229 21 14.0118 21C13.9107 20.9924 13.8206 20.9438 13.757 20.8686C13.6891 20.7898 13.6592 20.6923 13.6706 20.5948L13.8194 18.7631L12.2383 18.467C10.4318 18.0647 9.98867 16.8381 9.97082 16.7861C9.90299 16.5904 10.007 16.3769 10.2024 16.3093C10.3983 16.2417 10.6114 16.3454 10.6797 16.5411C10.6918 16.5732 11.0236 17.4283 12.3887 17.7324L14.2644 18.0834L16.3554 18.2287C16.5354 18.2737 16.749 18.12 16.7528 17.91L16.6901 16.8852L15.2118 16.3689C14.5105 16.17 13.9029 15.7238 13.5093 15.1126L12.8046 14.0239C12.4797 14.1683 12.1209 14.2502 11.7432 14.2502C10.2959 14.2502 9.11823 13.0727 9.11823 11.6252C9.11823 10.5808 9.73296 9.67952 10.6181 9.25712V8.25034C10.4108 8.25034 10.2433 8.08255 10.2433 7.87526V4.34037C9.28714 4.60723 8.39639 5.11553 7.65558 5.82733C6.79317 6.65984 6.19339 7.70612 5.92317 8.86106C5.87453 9.05965 5.66835 9.18349 5.46954 9.13842C5.27095 9.08977 5.14332 8.88717 5.19241 8.68858C5.49587 7.39485 6.17085 6.21737 7.13836 5.28735C8.02532 4.43118 9.10885 3.83831 10.2687 3.55962C10.3533 3.23808 10.6456 3 10.9932 3H12.4931C12.818 3 13.0947 3.20818 13.1987 3.49781C15.5467 3.94653 17.3646 5.59862 17.9943 7.95715C18.1632 8.57969 18.2455 9.22856 18.2455 9.88837C18.2455 9.97093 18.2379 10.5973 18.2341 10.8298L19.1715 13.376C19.2202 13.4735 19.2429 13.5783 19.2429 13.6872C19.2429 14.0884 18.9129 14.4184 18.5153 14.4184H17.604L17.8816 15.5399ZM12.3894 13.3824L11.9654 12.7275C11.8933 12.742 11.8188 12.7498 11.7427 12.7498C11.1224 12.7498 10.6177 12.2451 10.6177 11.6248V10.1285C10.1634 10.471 9.86773 11.0132 9.86773 11.6248C9.86773 12.6586 10.7089 13.4998 11.7427 13.4998C11.9703 13.5 12.1877 13.4572 12.3894 13.3824ZM11.3679 9.40863V9.78774V11.6248C11.3679 11.8314 11.5361 11.9997 11.743 11.9997C11.8036 11.9997 11.8603 11.9838 11.9112 11.9579C11.9128 11.9568 11.9139 11.9557 11.9154 11.9546C11.9239 11.9492 11.9331 11.9461 11.9418 11.9414C12.0473 11.8749 12.118 11.7582 12.118 11.6246V9.78751V9.40841V9.02997V8.25012H11.3679V9.02997V9.40863ZM10.993 4.18283V7.50017H12.4929V4.15762V3.7504H10.993V4.18283ZM13.0278 12.9868C13.3901 12.6447 13.6177 12.1614 13.6177 11.625C13.6177 11.0134 13.3221 10.471 12.8678 10.1287V11.625C12.8678 11.8968 12.7707 12.1465 12.6098 12.3411L13.0278 12.9868ZM18.4852 13.6685L18.4778 13.6533L17.5067 11.0208L17.484 10.8782C17.4875 10.8146 17.4953 9.96691 17.4953 9.88815C17.4953 9.29952 17.4202 8.71446 17.2704 8.15194C16.7171 6.12388 15.2247 4.72103 13.2429 4.2761V7.87459C13.2429 8.08165 13.0753 8.24967 12.868 8.24967V9.25646C13.7532 9.67885 14.3679 10.5801 14.3679 11.6246C14.3679 12.425 14.0069 13.1414 13.4403 13.6234L14.1392 14.7034C14.4391 15.1682 14.9005 15.5058 15.4329 15.6519L15.4592 15.6595L16.8695 16.1522L17.1241 15.5919L16.7641 14.1335C16.7378 14.0208 16.7603 13.9046 16.8315 13.8146C16.9029 13.7209 17.0116 13.6685 17.1278 13.6685H18.4852ZM5.80312 11.7147C5.78036 11.5085 5.58914 11.3622 5.38676 11.3849C5.18058 11.411 5.0342 11.5949 5.06053 11.8011C5.22922 13.2523 5.71298 14.445 6.49685 15.3523C6.93196 15.8585 7.17161 16.4885 7.17161 17.1186C7.17161 17.2534 7.15666 17.3959 7.13434 17.5385L6.68406 20.5682C6.66911 20.6695 6.69187 20.767 6.75144 20.8496C6.81147 20.9286 6.89782 20.981 6.9989 20.9958C7.01764 20.9996 7.03661 20.9996 7.05513 20.9996C7.23899 20.9996 7.39652 20.8643 7.42642 20.6809L7.87604 17.6546C7.90616 17.4821 7.92111 17.2984 7.92111 17.1186C7.92111 16.305 7.61386 15.506 7.06249 14.8647C6.39153 14.0851 5.95642 12.9935 5.80312 11.7147ZM18.8263 16.8372C18.6351 16.7698 18.4176 16.8785 18.3504 17.0697C18.2826 17.2647 18.3841 17.4783 18.5789 17.5459C18.6202 17.5606 18.6617 17.5682 18.7025 17.5682C18.8641 17.5682 19.0064 17.4671 19.0588 17.3172C19.0887 17.2197 19.0852 17.1186 19.0401 17.0282C18.9988 16.9385 18.9201 16.8711 18.8263 16.8372Z" fill="white"/>
</svg>
