<svg width="25" height="25" viewBox="0 0 24 24" fill="none" xmlns="http://www.w3.org/2000/svg">
<path d="M20.3098 15.4332C20.779 14.9762 21.0174 14.3998 20.999 13.7663L20.8206 7.63133C20.8039 7.05957 20.2182 6.54734 19.5863 6.54734C19.5803 6.54734 19.5741 6.54737 19.5681 6.54748C19.2587 6.55231 18.2497 6.71746 18.2572 8.63936L18.2702 11.972C18.2707 12.1064 18.2559 12.234 18.2249 12.357C18.1783 12.2859 18.1219 12.2178 18.0559 12.1535C17.6295 11.738 16.9302 11.7335 16.4639 12.1431C16.4539 12.1518 16.4446 12.1612 16.4359 12.1712C15.8803 12.8111 15.1997 13.3698 14.6528 13.8187C14.4622 13.9752 14.2822 14.123 14.1349 14.2523C13.5331 14.7807 13.4529 15.5149 13.4539 16.1635L13.4577 18.604L13.171 18.6016C13.1689 18.6016 13.1667 18.6015 13.1645 18.6015C12.9715 18.6015 12.7894 18.6743 12.651 18.8068C12.5111 18.9408 12.4331 19.1194 12.4314 19.3097L12.4232 20.2381C12.4198 20.632 12.7459 20.9551 13.1502 20.9585L18.1015 21C18.1036 21 18.1057 21 18.1079 21C18.5093 21 18.8376 20.6836 18.8411 20.2918L18.8493 19.3634C18.8528 18.9696 18.5267 18.6464 18.1223 18.643L17.5483 18.6382V18.1232L20.3098 15.4332ZM18.2531 19.3584L18.2449 20.2868C18.2443 20.3589 18.1815 20.4193 18.1076 20.4193C18.1073 20.4193 18.1068 20.4193 18.1065 20.4193L13.1553 20.3779C13.0808 20.3773 13.0186 20.3155 13.0192 20.2431L13.0274 19.3146C13.0278 19.2671 13.0535 19.2355 13.0688 19.2208C13.0839 19.2063 13.1164 19.1821 13.1645 19.1821H13.1658L18.117 19.2236C18.1915 19.2242 18.2538 19.2859 18.2531 19.3584ZM14.0538 18.6089L14.05 16.1625C14.0492 15.6158 14.1072 15.0582 14.534 14.6836C14.6739 14.5607 14.8421 14.4226 15.037 14.2627C15.5964 13.8034 16.2916 13.2328 16.8767 12.5626C17.1101 12.3683 17.4329 12.3678 17.6343 12.564C17.8786 12.8019 17.8019 13.0572 17.6748 13.2452C17.3525 13.6059 17.029 13.9119 16.6899 14.2327C16.5434 14.3714 16.3919 14.5147 16.2353 14.6672C16.1189 14.7805 16.119 14.9644 16.2353 15.0777C16.3517 15.1911 16.5404 15.1911 16.6568 15.0777C16.8103 14.9282 16.9602 14.7864 17.1052 14.6492C17.4288 14.3431 17.7387 14.0499 18.0509 13.7078C18.0731 13.6918 18.0933 13.6723 18.1108 13.6498C18.1235 13.6334 18.1358 13.6169 18.1476 13.6003C18.2113 13.5285 18.2752 13.4544 18.3394 13.3775C18.6959 12.9499 18.8682 12.4894 18.8663 11.9697L18.8532 8.63704C18.8496 7.69922 19.1204 7.13506 19.5776 7.12794C19.889 7.12359 20.217 7.38535 20.2246 7.64766L20.4031 13.7826C20.4169 14.2592 20.2437 14.6763 19.8882 15.0225L17.0393 17.7975C16.9834 17.8519 16.952 17.9257 16.952 18.0028V18.6331L14.0538 18.6089ZM13.3492 19.6773C13.4096 19.5293 13.5818 19.457 13.7339 19.5158C13.8859 19.5747 13.9601 19.7424 13.8997 19.8905C13.8392 20.0386 13.667 20.1109 13.515 20.052C13.363 19.9931 13.2888 19.8254 13.3492 19.6773ZM11.3491 18.8068C11.2092 18.6728 11.0241 18.5999 10.8291 18.6015L10.5423 18.6039L10.5461 16.1634C10.5471 15.5149 10.467 14.7806 9.86514 14.2523C9.71783 14.123 9.53776 13.9751 9.34716 13.8186C8.80029 13.3697 8.11972 12.811 7.56414 12.1712C7.55546 12.1612 7.54611 12.1518 7.53616 12.143C7.06988 11.7335 6.37057 11.738 5.94419 12.1534C5.87814 12.2178 5.82173 12.2859 5.77512 12.357C5.74412 12.234 5.7293 12.1063 5.72982 11.972L5.74286 8.63936C5.75031 6.71746 4.74135 6.55231 4.43192 6.54748C3.79367 6.53692 3.19621 7.05409 3.17945 7.63133L3.00099 13.7663C2.98262 14.3998 3.22095 14.9762 3.69021 15.4332L6.45182 18.1231V18.6382L5.87777 18.6429C5.47341 18.6464 5.1473 18.9696 5.15077 19.3634L5.15892 20.2918C5.16246 20.6836 5.49077 21 5.89222 21C5.89434 21 5.89651 21 5.89863 20.9999L10.8499 20.9585C11.2542 20.9551 11.5804 20.6319 11.5769 20.2381L11.5687 19.3096C11.567 19.1193 11.489 18.9407 11.3491 18.8068ZM7.04798 18.0028C7.04798 17.9258 7.01657 17.852 6.96068 17.7975L4.11174 15.0226C3.7563 14.6764 3.58309 14.2592 3.59688 13.7827L3.77534 7.64769C3.7829 7.38778 4.10354 7.12794 4.41374 7.12794C4.41661 7.12794 4.41952 7.12794 4.42239 7.12798C4.87957 7.13513 5.15039 7.6993 5.14674 8.63707L5.1337 11.9697C5.13169 12.4895 5.30404 12.95 5.66059 13.3775C5.72475 13.4544 5.78861 13.5285 5.85228 13.6003C5.86413 13.6169 5.87642 13.6334 5.88917 13.6498C5.90668 13.6724 5.92691 13.6918 5.94908 13.7079C6.26129 14.0499 6.57116 14.3431 6.89474 14.6492C7.03974 14.7864 7.18967 14.9282 7.34313 15.0777C7.45952 15.1911 7.64823 15.1911 7.76462 15.0777C7.88101 14.9644 7.88105 14.7805 7.76462 14.6672C7.6081 14.5147 7.45658 14.3714 7.31004 14.2327C6.97093 13.9119 6.64742 13.6059 6.32511 13.2452C6.19803 13.0571 6.12139 12.8019 6.36569 12.564C6.56702 12.3679 6.88982 12.3683 7.12327 12.5626C7.7084 13.2327 8.40351 13.8034 8.96292 14.2626C9.15774 14.4225 9.32603 14.5607 9.46597 14.6836C9.89275 15.0582 9.9508 15.6158 9.94994 16.1625L9.94614 18.6089L7.04794 18.6331L7.04798 18.0028ZM10.8447 20.3779L5.89349 20.4193C5.81778 20.421 5.75575 20.3593 5.75508 20.2868L5.74692 19.3584C5.74628 19.2859 5.80858 19.2242 5.88298 19.2236L10.8342 19.1822H10.8355C10.8836 19.1822 10.9161 19.2064 10.9312 19.2209C10.9465 19.2355 10.9722 19.2671 10.9726 19.3147L10.9808 20.2431C10.9815 20.3155 10.9191 20.3773 10.8447 20.3779ZM10.6508 19.6773C10.7113 19.8254 10.637 19.9931 10.485 20.052C10.333 20.1109 10.1608 20.0386 10.1004 19.8905C10.04 19.7424 10.1142 19.5747 10.2662 19.5158C10.4182 19.457 10.5904 19.5293 10.6508 19.6773ZM6.89783 9.08522L7.58198 9.34172C7.68243 9.6974 7.82766 10.0387 8.01525 10.3598L7.71749 11.0128C7.66742 11.1226 7.69193 11.251 7.77911 11.3359L8.73517 12.2671C8.82239 12.352 8.95424 12.3759 9.06691 12.3271L9.73757 12.037C10.0672 12.2197 10.4175 12.3611 10.7824 12.4589L11.0458 13.1255C11.0901 13.2376 11.2007 13.3115 11.324 13.3115H12.676C12.7993 13.3115 12.9099 13.2376 12.9542 13.1255L13.2175 12.4591C13.5827 12.3613 13.933 12.2199 14.2627 12.0371L14.9331 12.3271C15.0458 12.3759 15.1776 12.3521 15.2648 12.2671L16.2209 11.3359C16.308 11.251 16.3325 11.1225 16.2825 11.0127L15.9846 10.3595C16.1722 10.0384 16.3174 9.69722 16.4178 9.34176L17.1022 9.08519C17.2173 9.04207 17.2932 8.93436 17.2932 8.81424V7.49731C17.2932 7.37718 17.2173 7.26951 17.1022 7.22636L16.4181 6.96986C16.3176 6.61422 16.1724 6.27291 15.9848 5.95181L16.2825 5.29881C16.3326 5.18906 16.3081 5.0606 16.2209 4.97568L15.2649 4.04447C15.1777 3.95955 15.0459 3.93567 14.9331 3.98441L14.2625 4.27455C13.9328 4.09183 13.5826 3.95037 13.2176 3.8526L12.9542 3.18599C12.9099 3.07396 12.7993 3 12.676 3H11.324C11.2007 3 11.0901 3.07396 11.0458 3.18602L10.7824 3.85264C10.4174 3.95041 10.0672 4.09186 9.73754 4.27459L9.06687 3.98445C8.9542 3.93574 8.82231 3.95955 8.73513 4.04451L7.77907 4.97571C7.69189 5.06063 7.66738 5.18906 7.71745 5.29884L8.01529 5.95203C7.8277 6.27313 7.68247 6.61433 7.58206 6.96986L6.89776 7.22644C6.78271 7.26955 6.70678 7.37726 6.70678 7.49738V8.81431C6.70681 8.9344 6.78274 9.04211 6.89783 9.08522ZM7.30293 7.69668L7.93962 7.45797C8.03134 7.4236 8.09975 7.34735 8.12251 7.25423C8.22016 6.85453 8.38208 6.47403 8.60387 6.12325C8.6554 6.0417 8.66237 5.94067 8.62247 5.85318L8.34531 5.24531L9.01199 4.59601L9.63609 4.86601C9.72595 4.90484 9.82964 4.89809 9.91332 4.84786C10.2735 4.63186 10.6641 4.47411 11.0744 4.37903C11.17 4.35686 11.2482 4.29023 11.2835 4.20088L11.5286 3.58064H12.4714L12.7165 4.20088C12.7518 4.29023 12.83 4.35686 12.9256 4.37903C13.3359 4.47415 13.7265 4.63186 14.0866 4.84786C14.1703 4.89805 14.274 4.90488 14.3639 4.86601L14.988 4.59601L15.6547 5.24531L15.3776 5.85299C15.3377 5.94049 15.3446 6.04156 15.3962 6.12307C15.618 6.47385 15.7799 6.85442 15.8776 7.25423C15.9003 7.34735 15.9688 7.4236 16.0605 7.45797L16.6971 7.69665V8.6149L16.0603 8.85365C15.9685 8.88802 15.9001 8.96423 15.8774 9.05739C15.7797 9.45698 15.6178 9.83748 15.3961 10.1883C15.3445 10.2698 15.3376 10.3708 15.3774 10.4583L15.6546 11.0663L14.988 11.7156L14.3642 11.4457C14.2743 11.4068 14.1705 11.4136 14.0869 11.4639C13.7268 11.6799 13.3361 11.8377 12.9256 11.9328C12.83 11.9549 12.7517 12.0216 12.7164 12.1109L12.4714 12.731H11.5286L11.2835 12.1107C11.2482 12.0214 11.17 11.9547 11.0744 11.9326C10.6641 11.8374 10.2735 11.6797 9.91332 11.4637C9.82964 11.4135 9.72591 11.4068 9.63609 11.4456L9.01195 11.7156L8.34531 11.0663L8.62243 10.4587C8.66233 10.3711 8.65536 10.2701 8.60384 10.1886C8.38205 9.83781 8.22009 9.45723 8.1224 9.05735C8.09964 8.96423 8.03123 8.88798 7.9395 8.85362L7.30293 8.61494V7.69668ZM12 11.0799C13.6553 11.0799 15.002 9.76817 15.002 8.15579C15.002 6.54345 13.6553 5.23171 12 5.23171C10.3447 5.23171 8.99802 6.54345 8.99802 8.15579C8.99802 9.76817 10.3447 11.0799 12 11.0799ZM10.9293 10.2535C10.7652 10.1737 10.6114 10.0766 10.4712 9.96392V8.31006H10.9293V10.2535ZM11.5254 10.4533V7.84424H12.3558V10.4735C12.2397 10.4903 12.1209 10.4993 12 10.4993C11.8375 10.4993 11.6789 10.4833 11.5254 10.4533ZM12.9519 8.3101H13.41V10.0529C13.2681 10.1532 13.1147 10.239 12.9519 10.3076V8.3101ZM12 5.81239C13.3266 5.81239 14.4059 6.86364 14.4059 8.15583C14.4059 8.6329 14.2584 9.07688 14.0061 9.44747V8.01978C14.0061 7.85945 13.8727 7.72945 13.7081 7.72945H12.9519V7.55392C12.9519 7.39359 12.8184 7.2636 12.6538 7.2636H12.2386V7.02793C12.2386 6.8676 12.1052 6.73761 11.9406 6.73761C11.776 6.73761 11.6425 6.8676 11.6425 7.02793V7.2636H11.2273C11.0627 7.2636 10.9293 7.39359 10.9293 7.55392V7.72945H10.1731C10.0085 7.72945 9.87505 7.85945 9.87505 8.01978V9.25314C9.69603 8.92554 9.59413 8.55212 9.59413 8.15583C9.59413 6.86364 10.6734 5.81239 12 5.81239Z" fill="white"/>
</svg>
