<svg width="25" height="25" viewBox="0 0 18 18" fill="none" xmlns="http://www.w3.org/2000/svg">
<path d="M13.45 7.2996V3.94276C13.45 3.20486 12.8496 2.6045 12.1117 2.6045H10.3509V2.53406C10.3509 2.26224 10.1296 2.04102 9.85781 2.04102H8.92537C8.82383 1.40325 8.26999 0.914062 7.6039 0.914062C6.93781 0.914062 6.38394 1.40325 6.28243 2.04102H5.34999C5.07816 2.04102 4.85694 2.26224 4.85694 2.53406V2.6045H3.09607C2.35817 2.6045 1.75781 3.20486 1.75781 3.94276V15.7758C1.75781 16.5137 2.35817 17.1141 3.09607 17.1141H12.1117C14.8691 17.1141 17.1126 14.8706 17.1126 12.1132C17.1126 9.81984 15.5587 7.88688 13.45 7.2996ZM12.1117 3.02711C12.6166 3.02711 13.0274 3.43788 13.0274 3.94276V7.2002C12.7978 7.15749 12.5624 7.13309 12.323 7.12303V3.94276C12.323 3.82609 12.2284 3.73145 12.1117 3.73145H10.3437C10.3471 3.70827 10.3509 3.68514 10.3509 3.66102V3.02711H12.1117ZM8.83811 8.34161L8.35803 7.86152L8.71516 6.78987C8.74046 6.71394 8.72066 6.6303 8.664 6.57361L7.07014 4.97976C7.01814 4.92775 6.94302 4.90712 6.87234 4.92363C6.8008 4.94042 6.74358 4.99297 6.7202 5.0623L6.3552 6.15748L5.26031 6.52245C5.19097 6.54583 5.13843 6.60305 5.12164 6.67459C5.10459 6.74584 5.12603 6.8207 5.17776 6.87239L6.77133 8.46625C6.81151 8.50642 6.86571 8.52815 6.92074 8.52815C6.94302 8.52815 6.96559 8.52457 6.98759 8.51741L8.05925 8.16028L8.52984 8.63087C7.6534 9.53215 7.11086 10.7598 7.11086 12.1132C7.11086 13.4515 7.64239 14.666 8.50166 15.5645H3.30738V4.15406H11.9004V7.12303C10.7315 7.17225 9.66634 7.62174 8.83811 8.34161ZM8.02375 7.52724L6.76418 6.26767L7.01318 5.52041L8.27275 6.77998L8.02375 7.52724ZM6.46539 6.56645L7.72496 7.82603L6.97796 8.07503L5.71839 6.81546L6.46539 6.56645ZM5.27955 2.53406C5.27955 2.49527 5.31119 2.46363 5.34999 2.46363H6.47694C6.59361 2.46363 6.68825 2.36899 6.68825 2.25232C6.68825 1.74745 7.09902 1.33667 7.6039 1.33667C8.10878 1.33667 8.51955 1.74745 8.51955 2.25232C8.51955 2.36899 8.61419 2.46363 8.73086 2.46363H9.85781C9.89661 2.46363 9.92825 2.49527 9.92825 2.53406V3.66102C9.92825 3.69981 9.89661 3.73145 9.85781 3.73145H5.34999C5.31119 3.73145 5.27955 3.69981 5.27955 3.66102V2.53406ZM3.09607 16.6915C2.5912 16.6915 2.18042 16.2807 2.18042 15.7758V3.94276C2.18042 3.43788 2.5912 3.02711 3.09607 3.02711H4.85694V3.66102C4.85694 3.68514 4.86069 3.70827 4.86407 3.73145H3.09607C2.97941 3.73145 2.88477 3.82609 2.88477 3.94276V15.7758C2.88477 15.8925 2.97941 15.9871 3.09607 15.9871H8.95458C9.30276 16.2714 9.6904 16.5083 10.107 16.6915H3.09607ZM12.1117 16.6915C9.58734 16.6915 7.53346 14.6376 7.53346 12.1132C7.53346 10.8763 8.02859 9.7543 8.82853 8.9296L9.72461 9.82567C9.15417 10.4207 8.80129 11.2259 8.80129 12.1132C8.80129 13.9384 10.2865 15.4236 12.1117 15.4236C13.937 15.4236 15.4222 13.9384 15.4222 12.1132C15.4222 10.2879 13.937 8.80276 12.1117 8.80276C11.3257 8.80276 10.6037 9.07934 10.0353 9.53872L9.13681 8.64028C9.93785 7.95309 10.9761 7.53493 12.1117 7.53493C14.6361 7.53493 16.69 9.58881 16.69 12.1132C16.69 14.6376 14.6361 16.6915 12.1117 16.6915ZM10.9193 11.0204C10.6547 11.3088 10.4917 11.6918 10.4917 12.1132C10.4917 13.0066 11.2184 13.7332 12.1117 13.7332C13.0051 13.7332 13.7317 13.0066 13.7317 12.1132C13.7317 11.2198 13.0051 10.4932 12.1117 10.4932C11.7924 10.4932 11.4952 10.5873 11.244 10.7475L10.3366 9.84009C10.8269 9.45639 11.4422 9.22537 12.1117 9.22537C13.7042 9.22537 14.9995 10.5207 14.9995 12.1132C14.9995 13.7057 13.7042 15.001 12.1117 15.001C10.5192 15.001 9.22387 13.7057 9.22387 12.1132C9.22387 11.3423 9.52928 10.6427 10.0232 10.1243L10.9193 11.0204ZM11.951 12.0521C11.9923 12.0934 12.0462 12.114 12.1005 12.114C12.1547 12.114 12.2086 12.0934 12.2499 12.0521C12.3324 11.9696 12.3324 11.8358 12.2499 11.7533L11.5557 11.0592C11.7226 10.9707 11.91 10.9158 12.1117 10.9158C12.7721 10.9158 13.3091 11.4529 13.3091 12.1132C13.3091 12.7735 12.7721 13.3106 12.1117 13.3106C11.4514 13.3106 10.9143 12.7735 10.9143 12.1132C10.9143 11.8084 11.0322 11.533 11.2204 11.3215L11.951 12.0521ZM4.50477 10.4932H5.78939C5.90605 10.4932 6.00069 10.5878 6.00069 10.7045C6.00069 10.8212 5.90605 10.9158 5.78939 10.9158H4.50477C4.3881 10.9158 4.29346 10.8212 4.29346 10.7045C4.29346 10.5878 4.3881 10.4932 4.50477 10.4932ZM4.29346 12.3949C4.29346 12.2783 4.3881 12.1836 4.50477 12.1836H5.64026C5.75693 12.1836 5.85157 12.2783 5.85157 12.3949C5.85157 12.5116 5.75693 12.6062 5.64026 12.6062H4.50477C4.3881 12.6062 4.29346 12.5116 4.29346 12.3949ZM5.94153 13.8741C6.05819 13.8741 6.15283 13.9687 6.15283 14.0854C6.15283 14.202 6.05819 14.2967 5.94153 14.2967H4.50477C4.3881 14.2967 4.29346 14.202 4.29346 14.0854C4.29346 13.9687 4.3881 13.8741 4.50477 13.8741H5.94153Z" fill="white"/>
</svg>
