<svg width="20" height="20" viewBox="0 0 20 20" fill="none" xmlns="http://www.w3.org/2000/svg">
<path d="M8 7.75L10 6.75L12 7.75V3H8V7.75ZM5 15V13H10V15H5ZM3 19C2.45 19 1.97917 18.8042 1.5875 18.4125C1.19583 18.0208 1 17.55 1 17V3C1 2.45 1.19583 1.97917 1.5875 1.5875C1.97917 1.19583 2.45 1 3 1H17C17.55 1 18.0208 1.19583 18.4125 1.5875C18.8042 1.97917 19 2.45 19 3V17C19 17.55 18.8042 18.0208 18.4125 18.4125C18.0208 18.8042 17.55 19 17 19H3ZM3 17H17V3H14V11L10 9L6 11V3H3V17Z" fill="white" stroke="#1D3C45"/>
</svg>
