<svg width="25" height="25" viewBox="0 0 18 18" fill="none" xmlns="http://www.w3.org/2000/svg">
<path fill-rule="evenodd" clip-rule="evenodd" d="M3.84729 8.47399C4.14062 8.47399 4.37934 8.71292 4.37934 9.00622C4.37934 9.29951 4.14062 9.53826 3.84729 9.53826C3.554 9.53826 3.3155 9.29954 3.3155 9.00622C3.3155 8.71289 3.554 8.47399 3.84729 8.47399ZM7.27708 5.08816C7.57038 5.08816 7.80891 5.32687 7.80891 5.62016C7.80891 5.91349 7.57041 6.15242 7.27708 6.15242C6.98358 6.15242 6.74508 5.91349 6.74508 5.62016C6.74508 5.32687 6.98358 5.08816 7.27708 5.08816ZM10.7109 8.47399C11.0042 8.47399 11.243 8.71292 11.243 9.00622C11.243 9.29951 11.0042 9.53826 10.7109 9.53826C10.4176 9.53826 10.1789 9.29954 10.1789 9.00622C10.1789 8.71289 10.4176 8.47399 10.7109 8.47399ZM14.1403 5.08816C14.4336 5.08816 14.6723 5.32687 14.6723 5.62016C14.6723 5.91349 14.4336 6.15242 14.1403 6.15242C13.847 6.15242 13.6083 5.91349 13.6083 5.62016C13.6083 5.32687 13.847 5.08816 14.1403 5.08816ZM3.84729 10.0299C4.64484 10.0299 5.12968 9.1568 4.72699 8.4831L6.74273 6.49284C7.07052 6.69451 7.48398 6.69469 7.81168 6.49262L9.83082 8.48375C9.42902 9.15904 9.91491 10.0299 10.7109 10.0299C11.506 10.0299 11.9942 9.16015 11.5904 8.4831L13.606 6.49284C14.2831 6.90886 15.1638 6.42106 15.1638 5.62013C15.1638 5.05583 14.7046 4.59665 14.1403 4.59665C13.3454 4.59665 12.857 5.46612 13.2608 6.14324L11.2451 8.1335C10.9174 7.93158 10.5036 7.9319 10.1759 8.13372L8.15682 6.1426C8.55944 5.46749 8.07308 4.59665 7.27712 4.59665C6.48253 4.59665 5.99394 5.46511 6.39742 6.14324L4.38168 8.1335C3.70617 7.71788 2.82385 8.2041 2.82385 9.00618C2.82381 9.57052 3.28299 10.0299 3.84729 10.0299ZM13.3405 15.0057V8.19956H14.9535V15.0057H13.3405ZM9.90897 15.0057V11.3338H11.5218V15.0057L9.90897 15.0057ZM6.47727 15.0057V8.79446H8.09054V15.0057H6.47727ZM3.04597 15.0057V12.0658H4.6588V15.0057H3.04597ZM5.15049 13.9996H5.98558V15.0057H5.15049V13.9996ZM8.58219 13.9996H9.41728V15.0057H8.58219V13.9996ZM12.0135 13.9996H12.8488V15.0057H12.0135V13.9996ZM2.18092 13.5079H2.55428V11.8201C2.55428 11.6844 2.66451 11.5742 2.80002 11.5742H4.90476C5.04026 11.5742 5.15049 11.6844 5.15049 11.8201V13.5079H5.98558V8.54873C5.98558 8.41258 6.09582 8.30278 6.23154 8.30278H8.33628C8.472 8.30278 8.58223 8.41258 8.58223 8.54873V13.5079H9.41732V11.0878C9.41732 10.9521 9.52734 10.842 9.66306 10.842H11.7676C11.9037 10.842 12.0135 10.9521 12.0135 11.0878V13.5079H12.8488V7.95383C12.8488 7.81811 12.9591 7.70809 13.0948 7.70809H15.1993C15.335 7.70809 15.4453 7.81811 15.4453 7.95383V13.5079H15.8184C16.1689 13.5079 16.4541 13.2229 16.4541 12.8723V3.6299C16.4541 3.27966 16.1689 2.99422 15.8184 2.99422H2.18092C1.83068 2.99422 1.54506 3.27966 1.54506 3.6299V12.8723C1.54506 13.2229 1.83068 13.5079 2.18092 13.5079ZM16.8661 15.0057H15.4452V13.9996H15.8184C16.4398 13.9996 16.9457 13.4939 16.9457 12.8723V3.6299C16.9457 3.00826 16.4398 2.50256 15.8184 2.50256H2.18092C1.55949 2.50256 1.05358 3.00826 1.05358 3.6299V12.8723C1.05358 13.4939 1.55949 13.9996 2.18092 13.9996H2.55428V15.0057H1.13343C0.997711 15.0057 0.887695 15.1157 0.887695 15.2514C0.887695 15.3873 0.997711 15.4973 1.13343 15.4973H16.866C17.0015 15.4973 17.1118 15.3873 17.1118 15.2514C17.1118 15.1157 17.0015 15.0057 16.8661 15.0057Z" fill="white"/>
</svg>
