<svg width="25" height="25" viewBox="0 0 18 18" fill="none" xmlns="http://www.w3.org/2000/svg">
<mask id="path-1-inside-1_4451_2640" fill="white">
<path d="M9.00002 15H4.01407C3.45228 15 3 14.5478 3 13.986V9.26413C3 8.7023 3.45228 8.25 4.01407 8.25H10.236C10.7978 8.25 11.25 8.7023 11.25 9.26413"/>
</mask>
<path d="M9.00002 16H10V14H9.00002V16ZM10.25 9.26413V10.2641H12.25V9.26413H10.25ZM9.00002 14H4.01407V16H9.00002V14ZM4.01407 14C4.01109 14 4.0094 13.9997 4.00868 13.9996C4.00791 13.9994 4.00741 13.9992 4.00704 13.9991C4.00621 13.9987 4.00488 13.998 4.00345 13.9965C4.00201 13.9951 4.00125 13.9938 4.00091 13.993C4.00076 13.9926 4.00059 13.9921 4.00043 13.9913C4.00028 13.9906 4 13.9889 4 13.986H2C2 15.1001 2.90006 16 4.01407 16V14ZM4 13.986V9.26413H2V13.986H4ZM4 9.26413C4 9.26115 4.00028 9.25946 4.00043 9.25874C4.00059 9.25796 4.00076 9.25747 4.00092 9.25709C4.00127 9.25626 4.00204 9.25492 4.00349 9.25347C4.00494 9.25202 4.00628 9.25125 4.00709 9.25091C4.00746 9.25075 4.00795 9.25058 4.00872 9.25043C4.00943 9.25028 4.01111 9.25 4.01407 9.25V7.25C2.89994 7.25 2 8.15007 2 9.26413H4ZM4.01407 9.25H10.236V7.25H4.01407V9.25ZM10.236 9.25C10.2389 9.25 10.2406 9.25028 10.2413 9.25043C10.2421 9.25058 10.2426 9.25075 10.243 9.25091C10.2438 9.25125 10.2451 9.25202 10.2466 9.25347C10.248 9.25492 10.2488 9.25626 10.2491 9.25709C10.2493 9.25747 10.2495 9.25796 10.2496 9.25874C10.2498 9.25946 10.25 9.26115 10.25 9.26413H12.25C12.25 8.15007 11.3501 7.25 10.236 7.25V9.25Z" fill="white" mask="url(#path-1-inside-1_4451_2640)"/>
<mask id="path-3-inside-2_4451_2640" fill="white">
<path d="M9.75016 6.375V5.625C9.75016 4.17525 8.57487 3 7.12508 3C5.67529 3 4.5 4.17525 4.5 5.625V7.875"/>
</mask>
<path d="M10.7502 6.375V5.625H8.75016V6.375H10.7502ZM10.7502 5.625C10.7502 3.62294 9.12713 2 7.12508 2V4C8.02262 4 8.75016 4.72756 8.75016 5.625H10.7502ZM7.12508 2C5.12303 2 3.5 3.62294 3.5 5.625H5.5C5.5 4.72756 6.22754 4 7.12508 4V2ZM3.5 5.625V7.875H5.5V5.625H3.5Z" fill="white" mask="url(#path-3-inside-2_4451_2640)"/>
<path d="M13.75 12.7499C13.75 14.1306 12.6307 15.2499 11.25 15.2499C9.86929 15.2499 8.75 14.1306 8.75 12.7499C8.75 11.3692 9.86929 10.2499 11.25 10.2499C12.6307 10.2499 13.75 11.3692 13.75 12.7499Z" stroke="white" stroke-linejoin="round"/>
<mask id="path-6-inside-3_4451_2640" fill="white">
<path d="M12.7745 11.7153L10.9329 13.662L9.93262 12.7157"/>
</mask>
<path d="M10.9329 13.662L10.2457 14.3885L10.9721 15.0757L11.6593 14.3492L10.9329 13.662ZM12.0481 11.0281L10.2065 12.9748L11.6593 14.3492L13.501 12.4026L12.0481 11.0281ZM11.6201 12.9356L10.6198 11.9893L9.24539 13.4422L10.2457 14.3885L11.6201 12.9356Z" fill="white" mask="url(#path-6-inside-3_4451_2640)"/>
</svg>
