<svg width="25" height="25" viewBox="0 0 24 24" fill="none" xmlns="http://www.w3.org/2000/svg">
<path d="M12.84 21H11.16C10.5922 21 10.113 20.5748 10.0455 20.01L9.86625 18.603C9.5085 18.4868 9.1635 18.3435 8.83575 18.1763L7.71525 19.047C7.26075 19.3988 6.621 19.3582 6.2265 18.9525L5.04525 17.7712C4.6425 17.3805 4.602 16.7407 4.95375 16.287L5.8245 15.1658C5.6565 14.838 5.51325 14.493 5.39775 14.1353L3.98775 13.956C3.42525 13.887 3 13.4078 3 12.84V11.16C3 10.5922 3.42525 10.113 3.99 10.0455L5.397 9.86625C5.51325 9.5085 5.6565 9.1635 5.82375 8.83575L4.95375 7.71525C4.60125 7.26075 4.6425 6.62025 5.049 6.22575L6.23025 5.0445C6.621 4.64175 7.2615 4.602 7.7145 4.953L8.835 5.8245C9.16275 5.65725 9.50775 5.514 9.86625 5.39775L10.0455 3.98775C10.113 3.42525 10.5922 3 11.16 3H12.84C13.4078 3 13.887 3.42525 13.9545 3.99L14.1337 5.397C14.4923 5.51325 14.8372 5.6565 15.165 5.82375L16.2855 4.953C16.7408 4.60125 17.3797 4.64175 17.7743 5.04825L18.9555 6.2295C19.3582 6.62025 19.3988 7.26 19.047 7.71375L18.1763 8.835C18.3443 9.16275 18.4875 9.50775 18.603 9.8655L20.013 10.0447C20.5748 10.113 21 10.5922 21 11.16V12.84C21 13.4078 20.5748 13.887 20.01 13.9545L18.603 14.1337C18.4868 14.4915 18.3435 14.8365 18.1763 15.1642L19.047 16.2847C19.3995 16.7392 19.3582 17.379 18.9517 17.7735L17.7705 18.9548C17.3798 19.3575 16.7393 19.3988 16.2863 19.0462L15.165 18.1755C14.8372 18.3435 14.4922 18.4867 14.1345 18.6022L13.9552 20.0123C13.887 20.5748 13.4078 21 12.84 21ZM8.7975 17.355C8.85975 17.355 8.9235 17.3707 8.9805 17.4022C9.39375 17.6332 9.8415 17.8192 10.311 17.9542C10.455 17.9955 10.5608 18.1185 10.5795 18.267L10.7895 19.917C10.812 20.1052 10.9748 20.25 11.16 20.25H12.84C13.0252 20.25 13.188 20.1053 13.2098 19.9207L13.4205 18.2677C13.4392 18.1193 13.545 17.9963 13.689 17.955C14.1585 17.82 14.6062 17.634 15.0195 17.403C15.1507 17.3295 15.3142 17.3422 15.432 17.4345L16.7445 18.4545C16.8953 18.5715 17.1068 18.5618 17.2358 18.429L18.4245 17.2402C18.5603 17.1082 18.5707 16.8967 18.4537 16.7452L17.4338 15.4327C17.3415 15.3142 17.3287 15.1515 17.4022 15.0203C17.6332 14.607 17.8192 14.1593 17.9542 13.6898C17.9955 13.5458 18.1185 13.44 18.267 13.4213L19.917 13.2113C20.1052 13.188 20.25 13.0252 20.25 12.84V11.16C20.25 10.9748 20.1053 10.812 19.9207 10.7902L18.2677 10.5795C18.1193 10.5608 17.9963 10.455 17.955 10.311C17.82 9.8415 17.634 9.39375 17.403 8.9805C17.3295 8.84925 17.3415 8.6865 17.4345 8.568L18.4545 7.2555C18.5723 7.104 18.5618 6.8925 18.4298 6.765L17.241 5.57625C17.1098 5.43975 16.8975 5.42925 16.746 5.547L15.4335 6.567C15.3142 6.65925 15.1515 6.672 15.0203 6.5985C14.6085 6.3675 14.1608 6.18225 13.6898 6.0465C13.5458 6.00525 13.44 5.88225 13.4213 5.73375L13.2113 4.08375C13.188 3.89475 13.0252 3.75 12.84 3.75H11.16C10.9748 3.75 10.812 3.89475 10.7902 4.07925L10.5795 5.73225C10.5608 5.88075 10.455 6.00375 10.311 6.04575C9.84 6.18075 9.39225 6.36675 8.9805 6.597C8.84925 6.67125 8.6865 6.65775 8.56725 6.56625L7.25475 5.54625C7.10325 5.4285 6.8925 5.439 6.76425 5.571L5.5755 6.7605C5.43975 6.8925 5.42925 7.104 5.54625 7.2555L6.56625 8.568C6.6585 8.6865 6.67125 8.84925 6.59775 8.9805C6.366 9.39375 6.18075 9.8415 6.04575 10.311C6.0045 10.455 5.8815 10.5608 5.733 10.5795L4.083 10.7895C3.89475 10.812 3.75 10.9748 3.75 11.16V12.84C3.75 13.0252 3.89475 13.188 4.07925 13.2098L5.73225 13.4205C5.88075 13.4392 6.00375 13.545 6.045 13.689C6.18 14.1585 6.366 14.6062 6.597 15.0195C6.6705 15.1507 6.6585 15.3135 6.5655 15.432L5.5455 16.7445C5.42775 16.896 5.43825 17.1075 5.57025 17.235L6.759 18.4237C6.89025 18.5595 7.101 18.57 7.254 18.453L8.5665 17.433C8.63475 17.382 8.71575 17.355 8.7975 17.355Z" fill="white"/>
<path d="M12 16C9.7944 16 8 14.2056 8 12C8 9.7944 9.7944 8 12 8C14.2056 8 16 9.7944 16 12C16 14.2056 14.2056 16 12 16ZM12 8.8C10.2352 8.8 8.8 10.2352 8.8 12C8.8 13.7648 10.2352 15.2 12 15.2C13.7648 15.2 15.2 13.7648 15.2 12C15.2 10.2352 13.7648 8.8 12 8.8Z" fill="white"/>
</svg>
