<svg width="25" height="25" viewBox="0 0 22 18" fill="none" xmlns="http://www.w3.org/2000/svg">
<path d="M2.0577 15C1.55257 15 1.125 14.825 0.775 14.475C0.425 14.125 0.25 13.6974 0.25 13.1922V1.8077C0.25 1.30257 0.425 0.875 0.775 0.525C1.125 0.175 1.55257 0 2.0577 0H17.4423C17.9474 0 18.375 0.175 18.725 0.525C19.075 0.875 19.25 1.30257 19.25 1.8077V7.0961H1.74998V13.1922C1.74998 13.2692 1.78202 13.3397 1.84613 13.4038C1.91024 13.4679 1.98077 13.5 2.0577 13.5H11.3461V15H2.0577ZM1.74998 3.90385H17.75V1.8077C17.75 1.73077 17.7179 1.66024 17.6538 1.59613C17.5897 1.53203 17.5192 1.49997 17.4423 1.49997H2.0577C1.98077 1.49997 1.91024 1.53203 1.84613 1.59613C1.78202 1.66024 1.74998 1.73077 1.74998 1.8077V3.90385ZM17 17.25V14.25H14V12.75H17V9.75H18.5V12.75H21.5V14.25H18.5V17.25H17Z" fill="#898989"/>
</svg>
