<svg width="23" height="22" viewBox="0 0 23 22" fill="none" xmlns="http://www.w3.org/2000/svg">
<mask id="mask0_1_385" style="mask-type:alpha" maskUnits="userSpaceOnUse" x="0" y="0" width="23" height="22">
<rect x="0.25" width="22" height="22" fill="#D9D9D9"/>
</mask>
<g mask="url(#mask0_1_385)">
<path d="M10.2883 15.1729L15.4674 9.99375L14.1612 8.6875L10.2883 12.5604L8.34037 10.6125L7.03412 11.9187L10.2883 15.1729ZM11.2508 20.1687C10.1049 20.1687 9.03168 19.951 8.03099 19.5156C7.0303 19.0802 6.15946 18.492 5.41849 17.751C4.67752 17.0101 4.08932 16.1392 3.65391 15.1385C3.21849 14.1378 3.00078 13.0646 3.00078 11.9187C3.00078 10.7729 3.21849 9.69965 3.65391 8.69896C4.08932 7.69826 4.67752 6.82743 5.41849 6.08646C6.15946 5.34549 7.0303 4.75729 8.03099 4.32187C9.03168 3.88646 10.1049 3.66875 11.2508 3.66875C12.3966 3.66875 13.4699 3.88646 14.4706 4.32187C15.4713 4.75729 16.3421 5.34549 17.0831 6.08646C17.824 6.82743 18.4122 7.69826 18.8477 8.69896C19.2831 9.69965 19.5008 10.7729 19.5008 11.9187C19.5008 13.0646 19.2831 14.1378 18.8477 15.1385C18.4122 16.1392 17.824 17.0101 17.0831 17.751C16.3421 18.492 15.4713 19.0802 14.4706 19.5156C13.4699 19.951 12.3966 20.1687 11.2508 20.1687ZM5.38412 2.15625L6.66745 3.43958L2.77161 7.33542L1.48828 6.05208L5.38412 2.15625ZM17.1174 2.15625L21.0133 6.05208L19.7299 7.33542L15.8341 3.43958L17.1174 2.15625ZM11.2508 18.3354C13.0383 18.3354 14.5546 17.7128 15.7997 16.4677C17.0449 15.2226 17.6674 13.7063 17.6674 11.9187C17.6674 10.1312 17.0449 8.61493 15.7997 7.36979C14.5546 6.12465 13.0383 5.50208 11.2508 5.50208C9.46328 5.50208 7.94696 6.12465 6.70182 7.36979C5.45668 8.61493 4.83412 10.1312 4.83412 11.9187C4.83412 13.7063 5.45668 15.2226 6.70182 16.4677C7.94696 17.7128 9.46328 18.3354 11.2508 18.3354Z" fill="#898989"/>
</g>
</svg>
