<svg width="20" height="20" viewBox="0 0 20 20" fill="none" xmlns="http://www.w3.org/2000/svg">
<mask id="mask0_1_480" style="mask-type:alpha" maskUnits="userSpaceOnUse" x="0" y="0" width="20" height="20">
<rect width="19.5366" height="19.5366" fill="#D9D9D9"/>
</mask>
<g mask="url(#mask0_1_480)">
<path d="M2.44141 17.0899V5.69359H5.6975V2.4375H13.8377V8.94968H17.0938V17.0899H10.5816V13.8338H8.95359V17.0899H2.44141ZM4.06945 15.4619H5.6975V13.8338H4.06945V15.4619ZM4.06945 12.2058H5.6975V10.5777H4.06945V12.2058ZM4.06945 8.94968H5.6975V7.32164H4.06945V8.94968ZM7.32554 12.2058H8.95359V10.5777H7.32554V12.2058ZM7.32554 8.94968H8.95359V7.32164H7.32554V8.94968ZM7.32554 5.69359H8.95359V4.06555H7.32554V5.69359ZM10.5816 12.2058H12.2097V10.5777H10.5816V12.2058ZM10.5816 8.94968H12.2097V7.32164H10.5816V8.94968ZM10.5816 5.69359H12.2097V4.06555H10.5816V5.69359ZM13.8377 15.4619H15.4658V13.8338H13.8377V15.4619ZM13.8377 12.2058H15.4658V10.5777H13.8377V12.2058Z" fill="#35A476"/>
</g>
</svg>
