<svg width="230" height="228" viewBox="0 0 230 228" fill="none" xmlns="http://www.w3.org/2000/svg">
<!--<path d="M6.91406 209.388L2.20703 222.347H0.283203L5.70312 208.128H6.94336L6.91406 209.388ZM10.8594 222.347L6.14258 209.388L6.11328 208.128H7.35352L12.793 222.347H10.8594ZM10.6152 217.083V218.626H2.62695V217.083H10.6152ZM16.2305 213.812V226.409H14.4141V211.781H16.0742L16.2305 213.812ZM23.3496 216.976V217.181C23.3496 217.949 23.2585 218.662 23.0762 219.32C22.8939 219.971 22.627 220.537 22.2754 221.019C21.9303 221.501 21.5039 221.875 20.9961 222.142C20.4883 222.409 19.9056 222.542 19.248 222.542C18.5775 222.542 17.985 222.432 17.4707 222.21C16.9564 221.989 16.5202 221.667 16.1621 221.243C15.804 220.82 15.5176 220.312 15.3027 219.72C15.0944 219.128 14.9512 218.46 14.873 217.718V216.624C14.9512 215.843 15.0977 215.143 15.3125 214.525C15.5273 213.906 15.8105 213.379 16.1621 212.943C16.5202 212.5 16.9531 212.165 17.4609 211.937C17.9688 211.702 18.5547 211.585 19.2188 211.585C19.8828 211.585 20.472 211.715 20.9863 211.976C21.5007 212.23 21.9336 212.594 22.2852 213.07C22.6367 213.545 22.9004 214.115 23.0762 214.779C23.2585 215.436 23.3496 216.169 23.3496 216.976ZM21.5332 217.181V216.976C21.5332 216.448 21.4779 215.954 21.3672 215.491C21.2565 215.023 21.084 214.613 20.8496 214.261C20.6217 213.903 20.3288 213.623 19.9707 213.421C19.6126 213.213 19.1862 213.109 18.6914 213.109C18.2357 213.109 17.8385 213.187 17.5 213.343C17.168 213.499 16.8848 213.711 16.6504 213.978C16.416 214.238 16.224 214.538 16.0742 214.876C15.931 215.208 15.8236 215.553 15.752 215.911V218.441C15.8822 218.896 16.0645 219.326 16.2988 219.73C16.5332 220.127 16.8457 220.449 17.2363 220.697C17.627 220.937 18.1185 221.058 18.7109 221.058C19.1992 221.058 19.6191 220.957 19.9707 220.755C20.3288 220.547 20.6217 220.264 20.8496 219.906C21.084 219.547 21.2565 219.137 21.3672 218.675C21.4779 218.206 21.5332 217.708 21.5332 217.181ZM27.4609 213.812V226.409H25.6445V211.781H27.3047L27.4609 213.812ZM34.5801 216.976V217.181C34.5801 217.949 34.4889 218.662 34.3066 219.32C34.1243 219.971 33.8574 220.537 33.5059 221.019C33.1608 221.501 32.7344 221.875 32.2266 222.142C31.7188 222.409 31.1361 222.542 30.4785 222.542C29.8079 222.542 29.2155 222.432 28.7012 222.21C28.1868 221.989 27.7507 221.667 27.3926 221.243C27.0345 220.82 26.748 220.312 26.5332 219.72C26.3249 219.128 26.1816 218.46 26.1035 217.718V216.624C26.1816 215.843 26.3281 215.143 26.543 214.525C26.7578 213.906 27.041 213.379 27.3926 212.943C27.7507 212.5 28.1836 212.165 28.6914 211.937C29.1992 211.702 29.7852 211.585 30.4492 211.585C31.1133 211.585 31.7025 211.715 32.2168 211.976C32.7311 212.23 33.1641 212.594 33.5156 213.07C33.8672 213.545 34.1309 214.115 34.3066 214.779C34.4889 215.436 34.5801 216.169 34.5801 216.976ZM32.7637 217.181V216.976C32.7637 216.448 32.7083 215.954 32.5977 215.491C32.487 215.023 32.3145 214.613 32.0801 214.261C31.8522 213.903 31.5592 213.623 31.2012 213.421C30.8431 213.213 30.4167 213.109 29.9219 213.109C29.4661 213.109 29.069 213.187 28.7305 213.343C28.3984 213.499 28.1152 213.711 27.8809 213.978C27.6465 214.238 27.4544 214.538 27.3047 214.876C27.1615 215.208 27.054 215.553 26.9824 215.911V218.441C27.1126 218.896 27.2949 219.326 27.5293 219.73C27.7637 220.127 28.0762 220.449 28.4668 220.697C28.8574 220.937 29.349 221.058 29.9414 221.058C30.4297 221.058 30.8496 220.957 31.2012 220.755C31.5592 220.547 31.8522 220.264 32.0801 219.906C32.3145 219.547 32.487 219.137 32.5977 218.675C32.7083 218.206 32.7637 217.708 32.7637 217.181ZM38.8477 207.347V222.347H37.0312V207.347H38.8477ZM44.7168 221.253L47.6562 211.781H49.5898L45.3516 223.978C45.2539 224.238 45.1237 224.518 44.9609 224.818C44.8047 225.124 44.6029 225.413 44.3555 225.687C44.1081 225.96 43.8086 226.182 43.457 226.351C43.112 226.527 42.6986 226.615 42.2168 226.615C42.0736 226.615 41.8913 226.595 41.6699 226.556C41.4486 226.517 41.2923 226.484 41.2012 226.458L41.1914 224.993C41.2435 225 41.3249 225.006 41.4355 225.013C41.5527 225.026 41.6341 225.032 41.6797 225.032C42.0898 225.032 42.4382 224.977 42.7246 224.866C43.0111 224.762 43.252 224.583 43.4473 224.329C43.6491 224.082 43.8216 223.74 43.9648 223.304L44.7168 221.253ZM42.5586 211.781L45.3027 219.984L45.7715 221.888L44.4727 222.552L40.5859 211.781H42.5586ZM58.5938 222.347H56.7871V210.863C56.7871 210.062 56.9434 209.385 57.2559 208.831C57.5684 208.278 58.0143 207.858 58.5938 207.572C59.1732 207.285 59.86 207.142 60.6543 207.142C61.123 207.142 61.582 207.2 62.0312 207.318C62.4805 207.428 62.9427 207.568 63.418 207.738L63.1152 209.261C62.8158 209.144 62.4674 209.033 62.0703 208.929C61.6797 208.818 61.25 208.763 60.7812 208.763C60.0065 208.763 59.4466 208.939 59.1016 209.29C58.763 209.635 58.5938 210.159 58.5938 210.863V222.347ZM60.752 211.781V213.167H55.1172V211.781H60.752ZM64.3066 211.781V222.347H62.5V211.781H64.3066ZM69.2383 207.347V222.347H67.4219V207.347H69.2383ZM76.5625 211.781V213.167H70.8496V211.781H76.5625ZM72.7832 209.212H74.5898V219.73C74.5898 220.088 74.6452 220.358 74.7559 220.54C74.8665 220.723 75.0098 220.843 75.1855 220.902C75.3613 220.96 75.5501 220.99 75.752 220.99C75.9017 220.99 76.0579 220.976 76.2207 220.95C76.39 220.918 76.5169 220.892 76.6016 220.872L76.6113 222.347C76.4681 222.392 76.2793 222.435 76.0449 222.474C75.8171 222.519 75.5404 222.542 75.2148 222.542C74.7721 222.542 74.3652 222.454 73.9941 222.279C73.623 222.103 73.3268 221.81 73.1055 221.4C72.8906 220.983 72.7832 220.423 72.7832 219.72V209.212ZM83.0664 222.542C82.3307 222.542 81.6634 222.419 81.0645 222.171C80.472 221.917 79.9609 221.562 79.5312 221.107C79.1081 220.651 78.7826 220.111 78.5547 219.486C78.3268 218.861 78.2129 218.177 78.2129 217.435V217.025C78.2129 216.165 78.3398 215.4 78.5938 214.73C78.8477 214.053 79.1927 213.48 79.6289 213.011C80.0651 212.542 80.5599 212.187 81.1133 211.947C81.6667 211.706 82.2396 211.585 82.832 211.585C83.5872 211.585 84.2383 211.715 84.7852 211.976C85.3385 212.236 85.791 212.601 86.1426 213.07C86.4941 213.532 86.7546 214.079 86.9238 214.71C87.0931 215.335 87.1777 216.019 87.1777 216.761V217.572H79.2871V216.097H85.3711V215.96C85.3451 215.491 85.2474 215.036 85.0781 214.593C84.9154 214.15 84.6549 213.786 84.2969 213.499C83.9388 213.213 83.4505 213.07 82.832 213.07C82.4219 213.07 82.0443 213.157 81.6992 213.333C81.3542 213.503 81.0579 213.756 80.8105 214.095C80.5632 214.434 80.3711 214.847 80.2344 215.335C80.0977 215.823 80.0293 216.387 80.0293 217.025V217.435C80.0293 217.936 80.0977 218.408 80.2344 218.851C80.3776 219.287 80.5827 219.671 80.8496 220.003C81.123 220.335 81.4518 220.596 81.8359 220.784C82.2266 220.973 82.6693 221.068 83.1641 221.068C83.8021 221.068 84.3424 220.937 84.7852 220.677C85.2279 220.417 85.6152 220.068 85.9473 219.632L87.041 220.501C86.8132 220.846 86.5234 221.175 86.1719 221.488C85.8203 221.8 85.3874 222.054 84.873 222.249C84.3652 222.445 83.763 222.542 83.0664 222.542ZM91.0938 213.441V222.347H89.2871V211.781H91.0449L91.0938 213.441ZM94.3945 211.722L94.3848 213.402C94.235 213.369 94.0918 213.35 93.9551 213.343C93.8249 213.33 93.6751 213.323 93.5059 213.323C93.0892 213.323 92.7214 213.389 92.4023 213.519C92.0833 213.649 91.8132 213.831 91.5918 214.066C91.3704 214.3 91.1947 214.58 91.0645 214.906C90.9408 215.225 90.8594 215.576 90.8203 215.96L90.3125 216.253C90.3125 215.615 90.3743 215.016 90.498 214.456C90.6283 213.896 90.8268 213.402 91.0938 212.972C91.3607 212.536 91.6992 212.197 92.1094 211.956C92.526 211.709 93.0208 211.585 93.5938 211.585C93.724 211.585 93.8737 211.601 94.043 211.634C94.2122 211.66 94.3294 211.689 94.3945 211.722ZM105.449 211.781V213.167H99.7363V211.781H105.449ZM101.67 209.212H103.477V219.73C103.477 220.088 103.532 220.358 103.643 220.54C103.753 220.723 103.896 220.843 104.072 220.902C104.248 220.96 104.437 220.99 104.639 220.99C104.788 220.99 104.945 220.976 105.107 220.95C105.277 220.918 105.404 220.892 105.488 220.872L105.498 222.347C105.355 222.392 105.166 222.435 104.932 222.474C104.704 222.519 104.427 222.542 104.102 222.542C103.659 222.542 103.252 222.454 102.881 222.279C102.51 222.103 102.214 221.81 101.992 221.4C101.777 220.983 101.67 220.423 101.67 219.72V209.212ZM106.895 217.181V216.956C106.895 216.195 107.005 215.488 107.227 214.837C107.448 214.18 107.767 213.61 108.184 213.128C108.6 212.64 109.105 212.262 109.697 211.995C110.29 211.722 110.954 211.585 111.689 211.585C112.432 211.585 113.099 211.722 113.691 211.995C114.29 212.262 114.798 212.64 115.215 213.128C115.638 213.61 115.96 214.18 116.182 214.837C116.403 215.488 116.514 216.195 116.514 216.956V217.181C116.514 217.943 116.403 218.649 116.182 219.3C115.96 219.951 115.638 220.521 115.215 221.009C114.798 221.491 114.294 221.868 113.701 222.142C113.115 222.409 112.451 222.542 111.709 222.542C110.967 222.542 110.299 222.409 109.707 222.142C109.115 221.868 108.607 221.491 108.184 221.009C107.767 220.521 107.448 219.951 107.227 219.3C107.005 218.649 106.895 217.943 106.895 217.181ZM108.701 216.956V217.181C108.701 217.708 108.763 218.206 108.887 218.675C109.01 219.137 109.196 219.547 109.443 219.906C109.697 220.264 110.013 220.547 110.391 220.755C110.768 220.957 111.208 221.058 111.709 221.058C112.204 221.058 112.637 220.957 113.008 220.755C113.385 220.547 113.698 220.264 113.945 219.906C114.193 219.547 114.378 219.137 114.502 218.675C114.632 218.206 114.697 217.708 114.697 217.181V216.956C114.697 216.435 114.632 215.944 114.502 215.482C114.378 215.013 114.189 214.6 113.936 214.241C113.688 213.877 113.376 213.59 112.998 213.382C112.627 213.174 112.191 213.07 111.689 213.07C111.195 213.07 110.758 213.174 110.381 213.382C110.01 213.59 109.697 213.877 109.443 214.241C109.196 214.6 109.01 215.013 108.887 215.482C108.763 215.944 108.701 216.435 108.701 216.956ZM129.971 220.54V215.101C129.971 214.684 129.886 214.323 129.717 214.017C129.554 213.704 129.307 213.463 128.975 213.294C128.643 213.125 128.232 213.04 127.744 213.04C127.288 213.04 126.888 213.118 126.543 213.275C126.204 213.431 125.938 213.636 125.742 213.89C125.553 214.144 125.459 214.417 125.459 214.71H123.652C123.652 214.333 123.75 213.958 123.945 213.587C124.141 213.216 124.421 212.881 124.785 212.581C125.156 212.275 125.599 212.034 126.113 211.859C126.634 211.676 127.214 211.585 127.852 211.585C128.62 211.585 129.297 211.715 129.883 211.976C130.475 212.236 130.938 212.63 131.27 213.157C131.608 213.678 131.777 214.333 131.777 215.12V220.042C131.777 220.394 131.807 220.768 131.865 221.165C131.93 221.562 132.025 221.904 132.148 222.191V222.347H130.264C130.173 222.139 130.101 221.862 130.049 221.517C129.997 221.165 129.971 220.84 129.971 220.54ZM130.283 215.941L130.303 217.21H128.477C127.962 217.21 127.503 217.253 127.1 217.337C126.696 217.415 126.357 217.536 126.084 217.698C125.811 217.861 125.602 218.066 125.459 218.314C125.316 218.555 125.244 218.838 125.244 219.163C125.244 219.495 125.319 219.798 125.469 220.072C125.618 220.345 125.843 220.563 126.143 220.726C126.449 220.882 126.823 220.96 127.266 220.96C127.819 220.96 128.307 220.843 128.73 220.609C129.154 220.374 129.489 220.088 129.736 219.749C129.99 219.411 130.127 219.082 130.146 218.763L130.918 219.632C130.872 219.906 130.749 220.208 130.547 220.54C130.345 220.872 130.075 221.191 129.736 221.497C129.404 221.797 129.007 222.047 128.545 222.249C128.089 222.445 127.575 222.542 127.002 222.542C126.286 222.542 125.658 222.402 125.117 222.122C124.583 221.842 124.167 221.468 123.867 220.999C123.574 220.524 123.428 219.993 123.428 219.407C123.428 218.841 123.538 218.343 123.76 217.913C123.981 217.477 124.3 217.116 124.717 216.829C125.133 216.536 125.635 216.315 126.221 216.165C126.807 216.016 127.461 215.941 128.184 215.941H130.283ZM138.848 221.058C139.277 221.058 139.674 220.97 140.039 220.794C140.404 220.618 140.703 220.378 140.938 220.072C141.172 219.759 141.305 219.404 141.338 219.007H143.057C143.024 219.632 142.812 220.215 142.422 220.755C142.038 221.289 141.533 221.722 140.908 222.054C140.283 222.379 139.596 222.542 138.848 222.542C138.053 222.542 137.36 222.402 136.768 222.122C136.182 221.842 135.693 221.458 135.303 220.97C134.919 220.482 134.629 219.922 134.434 219.29C134.245 218.652 134.15 217.978 134.15 217.269V216.859C134.15 216.149 134.245 215.478 134.434 214.847C134.629 214.209 134.919 213.646 135.303 213.157C135.693 212.669 136.182 212.285 136.768 212.005C137.36 211.725 138.053 211.585 138.848 211.585C139.674 211.585 140.397 211.754 141.016 212.093C141.634 212.425 142.119 212.881 142.471 213.46C142.829 214.033 143.024 214.684 143.057 215.413H141.338C141.305 214.977 141.182 214.583 140.967 214.232C140.758 213.88 140.472 213.6 140.107 213.392C139.749 213.177 139.329 213.07 138.848 213.07C138.294 213.07 137.829 213.18 137.451 213.402C137.08 213.616 136.784 213.909 136.562 214.281C136.348 214.645 136.191 215.052 136.094 215.501C136.003 215.944 135.957 216.396 135.957 216.859V217.269C135.957 217.731 136.003 218.187 136.094 218.636C136.185 219.085 136.338 219.492 136.553 219.857C136.774 220.221 137.07 220.514 137.441 220.736C137.819 220.95 138.288 221.058 138.848 221.058ZM149.316 221.058C149.746 221.058 150.143 220.97 150.508 220.794C150.872 220.618 151.172 220.378 151.406 220.072C151.641 219.759 151.774 219.404 151.807 219.007H153.525C153.493 219.632 153.281 220.215 152.891 220.755C152.507 221.289 152.002 221.722 151.377 222.054C150.752 222.379 150.065 222.542 149.316 222.542C148.522 222.542 147.829 222.402 147.236 222.122C146.65 221.842 146.162 221.458 145.771 220.97C145.387 220.482 145.098 219.922 144.902 219.29C144.714 218.652 144.619 217.978 144.619 217.269V216.859C144.619 216.149 144.714 215.478 144.902 214.847C145.098 214.209 145.387 213.646 145.771 213.157C146.162 212.669 146.65 212.285 147.236 212.005C147.829 211.725 148.522 211.585 149.316 211.585C150.143 211.585 150.866 211.754 151.484 212.093C152.103 212.425 152.588 212.881 152.939 213.46C153.298 214.033 153.493 214.684 153.525 215.413H151.807C151.774 214.977 151.65 214.583 151.436 214.232C151.227 213.88 150.941 213.6 150.576 213.392C150.218 213.177 149.798 213.07 149.316 213.07C148.763 213.07 148.298 213.18 147.92 213.402C147.549 213.616 147.253 213.909 147.031 214.281C146.816 214.645 146.66 215.052 146.562 215.501C146.471 215.944 146.426 216.396 146.426 216.859V217.269C146.426 217.731 146.471 218.187 146.562 218.636C146.654 219.085 146.807 219.492 147.021 219.857C147.243 220.221 147.539 220.514 147.91 220.736C148.288 220.95 148.757 221.058 149.316 221.058ZM159.941 222.542C159.206 222.542 158.538 222.419 157.939 222.171C157.347 221.917 156.836 221.562 156.406 221.107C155.983 220.651 155.658 220.111 155.43 219.486C155.202 218.861 155.088 218.177 155.088 217.435V217.025C155.088 216.165 155.215 215.4 155.469 214.73C155.723 214.053 156.068 213.48 156.504 213.011C156.94 212.542 157.435 212.187 157.988 211.947C158.542 211.706 159.115 211.585 159.707 211.585C160.462 211.585 161.113 211.715 161.66 211.976C162.214 212.236 162.666 212.601 163.018 213.07C163.369 213.532 163.63 214.079 163.799 214.71C163.968 215.335 164.053 216.019 164.053 216.761V217.572H156.162V216.097H162.246V215.96C162.22 215.491 162.122 215.036 161.953 214.593C161.79 214.15 161.53 213.786 161.172 213.499C160.814 213.213 160.326 213.07 159.707 213.07C159.297 213.07 158.919 213.157 158.574 213.333C158.229 213.503 157.933 213.756 157.686 214.095C157.438 214.434 157.246 214.847 157.109 215.335C156.973 215.823 156.904 216.387 156.904 217.025V217.435C156.904 217.936 156.973 218.408 157.109 218.851C157.253 219.287 157.458 219.671 157.725 220.003C157.998 220.335 158.327 220.596 158.711 220.784C159.102 220.973 159.544 221.068 160.039 221.068C160.677 221.068 161.217 220.937 161.66 220.677C162.103 220.417 162.49 220.068 162.822 219.632L163.916 220.501C163.688 220.846 163.398 221.175 163.047 221.488C162.695 221.8 162.262 222.054 161.748 222.249C161.24 222.445 160.638 222.542 159.941 222.542ZM172.314 219.544C172.314 219.284 172.256 219.043 172.139 218.822C172.028 218.594 171.797 218.389 171.445 218.206C171.1 218.017 170.579 217.855 169.883 217.718C169.297 217.594 168.766 217.448 168.291 217.279C167.822 217.109 167.422 216.904 167.09 216.663C166.764 216.422 166.514 216.139 166.338 215.814C166.162 215.488 166.074 215.107 166.074 214.671C166.074 214.254 166.165 213.861 166.348 213.49C166.536 213.118 166.8 212.79 167.139 212.503C167.484 212.217 167.897 211.992 168.379 211.829C168.861 211.667 169.398 211.585 169.99 211.585C170.837 211.585 171.559 211.735 172.158 212.034C172.757 212.334 173.216 212.734 173.535 213.236C173.854 213.73 174.014 214.281 174.014 214.886H172.207C172.207 214.593 172.119 214.31 171.943 214.036C171.774 213.756 171.523 213.525 171.191 213.343C170.866 213.161 170.465 213.07 169.99 213.07C169.489 213.07 169.082 213.148 168.77 213.304C168.464 213.454 168.239 213.646 168.096 213.88C167.959 214.115 167.891 214.362 167.891 214.622C167.891 214.818 167.923 214.993 167.988 215.15C168.06 215.299 168.184 215.439 168.359 215.57C168.535 215.693 168.783 215.81 169.102 215.921C169.421 216.032 169.827 216.142 170.322 216.253C171.188 216.448 171.901 216.683 172.461 216.956C173.021 217.23 173.438 217.565 173.711 217.962C173.984 218.359 174.121 218.841 174.121 219.407C174.121 219.87 174.023 220.293 173.828 220.677C173.639 221.061 173.363 221.393 172.998 221.673C172.64 221.947 172.21 222.161 171.709 222.318C171.214 222.467 170.658 222.542 170.039 222.542C169.108 222.542 168.32 222.376 167.676 222.044C167.031 221.712 166.543 221.282 166.211 220.755C165.879 220.228 165.713 219.671 165.713 219.085H167.529C167.555 219.58 167.699 219.974 167.959 220.267C168.219 220.553 168.538 220.758 168.916 220.882C169.294 220.999 169.668 221.058 170.039 221.058C170.534 221.058 170.947 220.993 171.279 220.863C171.618 220.732 171.875 220.553 172.051 220.325C172.227 220.098 172.314 219.837 172.314 219.544ZM182.646 219.544C182.646 219.284 182.588 219.043 182.471 218.822C182.36 218.594 182.129 218.389 181.777 218.206C181.432 218.017 180.911 217.855 180.215 217.718C179.629 217.594 179.098 217.448 178.623 217.279C178.154 217.109 177.754 216.904 177.422 216.663C177.096 216.422 176.846 216.139 176.67 215.814C176.494 215.488 176.406 215.107 176.406 214.671C176.406 214.254 176.497 213.861 176.68 213.49C176.868 213.118 177.132 212.79 177.471 212.503C177.816 212.217 178.229 211.992 178.711 211.829C179.193 211.667 179.73 211.585 180.322 211.585C181.169 211.585 181.891 211.735 182.49 212.034C183.089 212.334 183.548 212.734 183.867 213.236C184.186 213.73 184.346 214.281 184.346 214.886H182.539C182.539 214.593 182.451 214.31 182.275 214.036C182.106 213.756 181.855 213.525 181.523 213.343C181.198 213.161 180.798 213.07 180.322 213.07C179.821 213.07 179.414 213.148 179.102 213.304C178.796 213.454 178.571 213.646 178.428 213.88C178.291 214.115 178.223 214.362 178.223 214.622C178.223 214.818 178.255 214.993 178.32 215.15C178.392 215.299 178.516 215.439 178.691 215.57C178.867 215.693 179.115 215.81 179.434 215.921C179.753 216.032 180.16 216.142 180.654 216.253C181.52 216.448 182.233 216.683 182.793 216.956C183.353 217.23 183.77 217.565 184.043 217.962C184.316 218.359 184.453 218.841 184.453 219.407C184.453 219.87 184.355 220.293 184.16 220.677C183.971 221.061 183.695 221.393 183.33 221.673C182.972 221.947 182.542 222.161 182.041 222.318C181.546 222.467 180.99 222.542 180.371 222.542C179.44 222.542 178.652 222.376 178.008 222.044C177.363 221.712 176.875 221.282 176.543 220.755C176.211 220.228 176.045 219.671 176.045 219.085H177.861C177.887 219.58 178.031 219.974 178.291 220.267C178.551 220.553 178.87 220.758 179.248 220.882C179.626 220.999 180 221.058 180.371 221.058C180.866 221.058 181.279 220.993 181.611 220.863C181.95 220.732 182.207 220.553 182.383 220.325C182.559 220.098 182.646 219.837 182.646 219.544ZM198.447 220.296V207.347H200.264V222.347H198.604L198.447 220.296ZM191.338 217.181V216.976C191.338 216.169 191.436 215.436 191.631 214.779C191.833 214.115 192.116 213.545 192.48 213.07C192.852 212.594 193.291 212.23 193.799 211.976C194.313 211.715 194.886 211.585 195.518 211.585C196.182 211.585 196.761 211.702 197.256 211.937C197.757 212.165 198.18 212.5 198.525 212.943C198.877 213.379 199.154 213.906 199.355 214.525C199.557 215.143 199.697 215.843 199.775 216.624V217.523C199.704 218.297 199.564 218.994 199.355 219.613C199.154 220.231 198.877 220.758 198.525 221.195C198.18 221.631 197.757 221.966 197.256 222.2C196.755 222.428 196.169 222.542 195.498 222.542C194.88 222.542 194.313 222.409 193.799 222.142C193.291 221.875 192.852 221.501 192.48 221.019C192.116 220.537 191.833 219.971 191.631 219.32C191.436 218.662 191.338 217.949 191.338 217.181ZM193.154 216.976V217.181C193.154 217.708 193.206 218.203 193.311 218.665C193.421 219.128 193.59 219.534 193.818 219.886C194.046 220.238 194.336 220.514 194.688 220.716C195.039 220.911 195.459 221.009 195.947 221.009C196.546 221.009 197.038 220.882 197.422 220.628C197.812 220.374 198.125 220.039 198.359 219.622C198.594 219.206 198.776 218.753 198.906 218.265V215.911C198.828 215.553 198.714 215.208 198.564 214.876C198.421 214.538 198.232 214.238 197.998 213.978C197.77 213.711 197.487 213.499 197.148 213.343C196.816 213.187 196.423 213.109 195.967 213.109C195.472 213.109 195.046 213.213 194.688 213.421C194.336 213.623 194.046 213.903 193.818 214.261C193.59 214.613 193.421 215.023 193.311 215.491C193.206 215.954 193.154 216.448 193.154 216.976ZM209.307 220.54V215.101C209.307 214.684 209.222 214.323 209.053 214.017C208.89 213.704 208.643 213.463 208.311 213.294C207.979 213.125 207.568 213.04 207.08 213.04C206.624 213.04 206.224 213.118 205.879 213.275C205.54 213.431 205.273 213.636 205.078 213.89C204.889 214.144 204.795 214.417 204.795 214.71H202.988C202.988 214.333 203.086 213.958 203.281 213.587C203.477 213.216 203.757 212.881 204.121 212.581C204.492 212.275 204.935 212.034 205.449 211.859C205.97 211.676 206.549 211.585 207.188 211.585C207.956 211.585 208.633 211.715 209.219 211.976C209.811 212.236 210.273 212.63 210.605 213.157C210.944 213.678 211.113 214.333 211.113 215.12V220.042C211.113 220.394 211.143 220.768 211.201 221.165C211.266 221.562 211.361 221.904 211.484 222.191V222.347H209.6C209.508 222.139 209.437 221.862 209.385 221.517C209.333 221.165 209.307 220.84 209.307 220.54ZM209.619 215.941L209.639 217.21H207.812C207.298 217.21 206.839 217.253 206.436 217.337C206.032 217.415 205.693 217.536 205.42 217.698C205.146 217.861 204.938 218.066 204.795 218.314C204.652 218.555 204.58 218.838 204.58 219.163C204.58 219.495 204.655 219.798 204.805 220.072C204.954 220.345 205.179 220.563 205.479 220.726C205.785 220.882 206.159 220.96 206.602 220.96C207.155 220.96 207.643 220.843 208.066 220.609C208.49 220.374 208.825 220.088 209.072 219.749C209.326 219.411 209.463 219.082 209.482 218.763L210.254 219.632C210.208 219.906 210.085 220.208 209.883 220.54C209.681 220.872 209.411 221.191 209.072 221.497C208.74 221.797 208.343 222.047 207.881 222.249C207.425 222.445 206.911 222.542 206.338 222.542C205.622 222.542 204.993 222.402 204.453 222.122C203.919 221.842 203.503 221.468 203.203 220.999C202.91 220.524 202.764 219.993 202.764 219.407C202.764 218.841 202.874 218.343 203.096 217.913C203.317 217.477 203.636 217.116 204.053 216.829C204.469 216.536 204.971 216.315 205.557 216.165C206.143 216.016 206.797 215.941 207.52 215.941H209.619ZM218.379 211.781V213.167H212.666V211.781H218.379ZM214.6 209.212H216.406V219.73C216.406 220.088 216.462 220.358 216.572 220.54C216.683 220.723 216.826 220.843 217.002 220.902C217.178 220.96 217.367 220.99 217.568 220.99C217.718 220.99 217.874 220.976 218.037 220.95C218.206 220.918 218.333 220.892 218.418 220.872L218.428 222.347C218.285 222.392 218.096 222.435 217.861 222.474C217.633 222.519 217.357 222.542 217.031 222.542C216.589 222.542 216.182 222.454 215.811 222.279C215.439 222.103 215.143 221.81 214.922 221.4C214.707 220.983 214.6 220.423 214.6 219.72V209.212ZM226.729 220.54V215.101C226.729 214.684 226.644 214.323 226.475 214.017C226.312 213.704 226.064 213.463 225.732 213.294C225.4 213.125 224.99 213.04 224.502 213.04C224.046 213.04 223.646 213.118 223.301 213.275C222.962 213.431 222.695 213.636 222.5 213.89C222.311 214.144 222.217 214.417 222.217 214.71H220.41C220.41 214.333 220.508 213.958 220.703 213.587C220.898 213.216 221.178 212.881 221.543 212.581C221.914 212.275 222.357 212.034 222.871 211.859C223.392 211.676 223.971 211.585 224.609 211.585C225.378 211.585 226.055 211.715 226.641 211.976C227.233 212.236 227.695 212.63 228.027 213.157C228.366 213.678 228.535 214.333 228.535 215.12V220.042C228.535 220.394 228.564 220.768 228.623 221.165C228.688 221.562 228.783 221.904 228.906 222.191V222.347H227.021C226.93 222.139 226.859 221.862 226.807 221.517C226.755 221.165 226.729 220.84 226.729 220.54ZM227.041 215.941L227.061 217.21H225.234C224.72 217.21 224.261 217.253 223.857 217.337C223.454 217.415 223.115 217.536 222.842 217.698C222.568 217.861 222.36 218.066 222.217 218.314C222.074 218.555 222.002 218.838 222.002 219.163C222.002 219.495 222.077 219.798 222.227 220.072C222.376 220.345 222.601 220.563 222.9 220.726C223.206 220.882 223.581 220.96 224.023 220.96C224.577 220.96 225.065 220.843 225.488 220.609C225.911 220.374 226.247 220.088 226.494 219.749C226.748 219.411 226.885 219.082 226.904 218.763L227.676 219.632C227.63 219.906 227.507 220.208 227.305 220.54C227.103 220.872 226.833 221.191 226.494 221.497C226.162 221.797 225.765 222.047 225.303 222.249C224.847 222.445 224.333 222.542 223.76 222.542C223.044 222.542 222.415 222.402 221.875 222.122C221.341 221.842 220.924 221.468 220.625 220.999C220.332 220.524 220.186 219.993 220.186 219.407C220.186 218.841 220.296 218.343 220.518 217.913C220.739 217.477 221.058 217.116 221.475 216.829C221.891 216.536 222.393 216.315 222.979 216.165C223.564 216.016 224.219 215.941 224.941 215.941H227.041Z" fill="black"/>-->
<path opacity="0.21" d="M179.231 12.5939C190.776 19.8977 193.839 40.3954 188.184 55.2385C182.529 70.3173 168.628 79.7416 160.617 92.6999C152.842 105.658 151.428 122.151 140.354 137.229C129.044 152.308 108.074 166.445 89.2248 164.088C70.3754 161.732 53.6465 143.355 45.6355 122.857C37.6245 102.36 38.0958 79.9772 40.6876 56.6522C43.2794 33.5628 47.7561 9.2954 62.3644 2.46283C76.9727 -4.60534 101.713 5.52571 124.096 8.11737C146.716 10.4734 167.45 5.05449 179.231 12.5939Z" fill="#B2E9D1"/>
<g clip-path="url(#clip0_1_5740)">
<path d="M150.7 10.8509H68.4199V119.05H150.7V10.8509Z" fill="#CACACA"/>
<path d="M148.26 13.2735H70.8574V116.638H148.26V13.2735Z" fill="white"/>
<path fill-rule="evenodd" clip-rule="evenodd" d="M66.798 98.2469C63.2292 101.472 64.7846 104.701 67.4172 110.695C70.0515 116.689 70.5146 138.822 70.5146 138.822L68.345 138.514C68.345 138.514 68.6555 115.766 65.7108 109.619C62.761 103.466 61.5228 100.396 58.8834 102.396C56.2492 104.392 66.7947 98.2452 66.7947 98.2452L66.798 98.2469Z" fill="#CACACA"/>
<path fill-rule="evenodd" clip-rule="evenodd" d="M68.7581 94.0724C68.3286 92.1564 65.758 90.0908 62.315 88.3346C62.8251 91.1552 64.4661 95.7671 62.768 96.7117C60.4794 97.9907 62.5449 91.5477 61.6657 88.0103C58.429 86.4469 54.5447 85.1663 50.9708 84.5294C50.9758 84.546 50.9758 84.5576 50.9826 84.5693C52.996 89.6418 55.6303 91.6376 54.5447 92.4059C53.7293 92.9863 51.0732 87.1288 47.5563 84.1252C44.9237 83.9888 42.6904 84.3414 41.3716 85.3759C39.3347 86.9742 37.9638 88.3961 40.0125 93.2691C41.1837 94.099 42.7089 94.6911 44.4707 94.8673C49.1184 95.328 51.293 95.481 48.0328 97.0178C46.4372 97.7745 43.7693 96.9778 41.6015 96.4939C42.3012 97.7795 43.1686 99.2297 44.2173 100.885C44.8834 101.937 45.6167 102.847 46.3969 103.637C47.8936 103.921 49.2023 103.921 49.897 103.632C52.0665 102.706 57.6488 99.7869 59.0431 101.016C60.4089 102.222 48.704 102.983 49.5127 106.044C55.1924 109.28 61.6824 107.738 62.8284 104.765C64.3721 100.773 70.0585 99.8284 68.7547 94.0724H68.7581Z" fill="#35A476"/>
<path fill-rule="evenodd" clip-rule="evenodd" d="M57.0271 115.923C63.2285 111.311 69.5861 115.615 72.8445 120.535C76.0979 125.454 73.7741 136.521 73.7741 136.521C73.7741 136.521 72.5341 136.521 72.5341 136.06C72.5341 135.599 75.9486 122.991 67.8813 117.305C62.8376 113.751 59.1999 115.462 58.7352 117.152C58.2653 118.842 60.7486 121.918 60.7486 121.918L57.0254 115.925L57.0271 115.923Z" fill="#CACACA"/>
<path fill-rule="evenodd" clip-rule="evenodd" d="M71.2983 106.445C65.0901 106.445 63.0766 115.977 64.7864 121.51C66.4911 127.043 68.8133 137.343 68.8133 137.343L70.362 135.808C70.362 135.808 64.4693 121.357 65.8703 114.902C67.2646 108.448 70.6724 107.367 71.2983 107.367C71.9241 107.367 71.2983 106.445 71.2983 106.445Z" fill="#CACACA"/>
<path fill-rule="evenodd" clip-rule="evenodd" d="M66.0941 121.547C65.6578 120.973 65.1192 120.501 64.4648 120.181C64.5454 120.642 64.6544 121.08 64.7853 121.5C65.5605 124.02 66.4599 127.534 67.2233 130.606C67.2871 130.213 67.3961 129.605 67.5555 128.672C67.5958 128.45 67.6243 128.211 67.6478 127.955C67.0404 125.908 66.4666 123.672 66.0924 121.545L66.0941 121.547Z" fill="#CACACA"/>
<path fill-rule="evenodd" clip-rule="evenodd" d="M64.3946 121.593C52.6108 116.674 58.8173 109.923 48.4279 114.382C47.6997 114.695 46.8104 115.485 45.9144 116.577C46.8389 116.839 47.9564 117.027 49.2081 116.839C52.3055 116.378 51.2215 118.834 46.104 119.455C45.1392 119.568 44.354 119.727 43.7063 119.955C41.2683 124.595 40.1659 130.704 45.3305 132.825C46.3456 133.245 47.6023 133.485 49.0017 133.57C50.5974 132.319 48.6108 125.063 51.0672 126.062C53.4246 127.024 50.3272 132.284 50.7517 133.61C53.0806 133.57 55.6579 133.189 58.1126 132.587C59.0875 132.046 59.8341 131.318 60.0573 130.368C60.8375 127.138 55.72 125.143 55.5656 122.372C55.423 119.829 57.4415 127.968 62.7839 129.167C67.6212 126.927 69.9032 123.89 64.3963 121.592L64.3946 121.593Z" fill="#35A476"/>
<path fill-rule="evenodd" clip-rule="evenodd" d="M72.7949 112.897C71.5549 110.286 74.8084 109.672 74.654 111.668C74.5214 113.443 74.5047 117.742 76.3352 118.919C79.4964 118.578 83.7934 117.316 87.0418 115.394C87.0821 115.133 87.0418 114.865 86.9093 114.592C85.5099 111.823 76.5181 109.519 79.3068 108.598C81.5266 107.865 85.4294 112.197 88.567 114.382C90.4496 112.96 91.7164 111.272 91.7164 109.39C91.7164 106.83 88.5838 103.941 84.5334 102.559C82.7146 102.741 81.0165 103.73 78.3772 105.215C74.4694 107.411 75.3772 103.862 79.0652 101.758C75.8805 101.922 72.7026 103.271 70.3552 106.494C70.3552 106.494 70.5784 107.876 69.1103 110.008C65.0934 115.821 69.7294 119.215 75.2664 118.999C74.951 117.464 73.6489 114.705 72.7932 112.897H72.7949Z" fill="#35A476"/>
<path fill-rule="evenodd" clip-rule="evenodd" d="M57.4017 115.664C54.3664 117.984 50.9989 120.703 46.8679 122.546C42.7319 124.394 43.5574 130.406 43.5574 130.406C43.5574 130.406 42.9383 125.214 46.3863 123.439C49.8294 121.66 52.1063 119.544 54.7221 119.135C57.3446 118.726 58.7893 118.317 58.7893 118.317C58.7893 118.317 57.9638 116.674 58.4453 116.058C58.9269 115.445 57.4017 115.666 57.4017 115.666V115.664Z" fill="#CACACA"/>
<path fill-rule="evenodd" clip-rule="evenodd" d="M42.4551 88.3853C53.551 91.3191 61.6803 98.3607 63.2022 100.067C64.7173 101.773 64.7173 102.256 64.7173 102.256L63.5461 104.439L62.9958 104.167C62.9958 104.167 63.8901 102.324 61.5444 99.9307C57.5057 95.8078 52.5878 92.5548 49.2086 91.1162C45.8293 89.6825 42.4551 88.387 42.4551 88.387V88.3853Z" fill="#CACACA"/>
<path fill-rule="evenodd" clip-rule="evenodd" d="M73.0883 149.273H68.8482C65.8297 149.273 63.3867 146.849 63.3867 143.859V134.208H78.5448V143.859C78.5448 146.851 76.1001 149.273 73.0883 149.273Z" fill="#CACACA"/>
<path d="M78.5448 135.928H63.3867V136.986H78.5448V135.928Z" fill="white"/>
<path d="M78.5448 137.854H63.3867V138.474H78.5448V137.854Z" fill="white"/>
<path fill-rule="evenodd" clip-rule="evenodd" d="M80.4547 22.3218H86.6629C87.5975 22.3218 88.3677 23.0835 88.3677 24.0115V30.1584C88.3677 31.0914 87.5992 31.8482 86.6629 31.8482H80.4547C79.5202 31.8482 78.75 31.0914 78.75 30.1584V24.0115C78.75 23.0852 79.5185 22.3218 80.4547 22.3218Z" fill="#CCE8DC"/>
<path fill-rule="evenodd" clip-rule="evenodd" d="M91.8201 24.6353H136.893C137.318 24.6353 137.662 24.9829 137.662 25.4036C137.662 25.8294 137.318 26.172 136.893 26.172H91.8201C91.3956 26.172 91.0449 25.8311 91.0449 25.4036C91.0449 24.9829 91.3956 24.6353 91.8201 24.6353ZM91.8201 28.0197H125.843C126.267 28.0197 126.618 28.3673 126.618 28.7881C126.618 29.2089 126.267 29.5565 125.843 29.5565H91.8201C91.3956 29.5565 91.0449 29.2089 91.0449 28.7881C91.0449 28.3673 91.3956 28.0197 91.8201 28.0197Z" fill="#CACACA"/>
<path d="M80.4547 35.7063H86.6629C87.6042 35.7063 88.3677 36.463 88.3677 37.3961V43.5496C88.3677 44.481 87.6042 45.2393 86.6629 45.2393H80.4547C79.5151 45.2393 78.75 44.4826 78.75 43.5496V37.3961C78.75 36.463 79.5134 35.7063 80.4547 35.7063Z" fill="#CCE8DC"/>
<path fill-rule="evenodd" clip-rule="evenodd" d="M91.8201 38.02H136.893C137.318 38.02 137.662 38.361 137.662 38.7884C137.662 39.2092 137.318 39.5568 136.893 39.5568H91.8201C91.3956 39.5568 91.0449 39.2092 91.0449 38.7884C91.0449 38.3626 91.3956 38.02 91.8201 38.02ZM91.8201 41.3978H125.843C126.267 41.3978 126.618 41.7454 126.618 42.1662C126.618 42.592 126.267 42.9346 125.843 42.9346H91.8201C91.3956 42.9346 91.0449 42.5936 91.0449 42.1662C91.0449 41.7454 91.3956 41.3978 91.8201 41.3978Z" fill="#CACACA"/>
<path d="M80.4547 49.0911H86.6629C87.6042 49.0911 88.3677 49.8478 88.3677 50.7808V56.9344C88.3677 57.8657 87.6042 58.6241 86.6629 58.6241H80.4547C79.5134 58.6241 78.75 57.8674 78.75 56.9344V50.7808C78.75 49.8478 79.5134 49.0911 80.4547 49.0911Z" fill="#CCE8DC"/>
<path fill-rule="evenodd" clip-rule="evenodd" d="M91.8201 51.4048H136.893C137.318 51.4048 137.662 51.7524 137.662 52.1732C137.662 52.5939 137.318 52.9415 136.893 52.9415H91.8201C91.3956 52.9415 91.0449 52.5939 91.0449 52.1732C91.0449 51.7524 91.3956 51.4048 91.8201 51.4048ZM91.8201 54.7826H125.843C126.267 54.7826 126.618 55.1302 126.618 55.551C126.618 55.9767 126.267 56.3243 125.843 56.3243H91.8201C91.3956 56.3243 91.0449 55.9767 91.0449 55.551C91.0449 55.1302 91.3956 54.7826 91.8201 54.7826Z" fill="#CACACA"/>
<path fill-rule="evenodd" clip-rule="evenodd" d="M80.4547 62.4759H86.6629C87.5975 62.4759 88.3677 63.2326 88.3677 64.1656V70.3125C88.3677 71.2455 87.5992 72.0022 86.6629 72.0022H80.4547C79.5202 72.0022 78.75 71.2455 78.75 70.3125V64.1656C78.75 63.2326 79.5185 62.4759 80.4547 62.4759Z" fill="#CACACA"/>
<path fill-rule="evenodd" clip-rule="evenodd" d="M91.8201 64.7774H136.893C137.318 64.7774 137.662 65.125 137.662 65.5457C137.662 65.9665 137.318 66.3141 136.893 66.3141H91.8201C91.3956 66.3141 91.0449 65.9665 91.0449 65.5457C91.0449 65.125 91.3956 64.7774 91.8201 64.7774ZM91.8201 68.1618H125.843C126.267 68.1618 126.618 68.5094 126.618 68.9302C126.618 69.351 126.267 69.6985 125.843 69.6985H91.8201C91.3956 69.6985 91.0449 69.351 91.0449 68.9302C91.0449 68.5094 91.3956 68.1618 91.8201 68.1618Z" fill="#CACACA"/>
<path fill-rule="evenodd" clip-rule="evenodd" d="M80.4547 75.8606H86.6629C87.5975 75.8606 88.3677 76.6223 88.3677 77.5504V83.6973C88.3677 84.6303 87.5992 85.392 86.6629 85.392H80.4547C79.5202 85.392 78.75 84.6303 78.75 83.6973V77.5504C78.75 76.624 79.5185 75.8606 80.4547 75.8606Z" fill="#CACACA"/>
<path fill-rule="evenodd" clip-rule="evenodd" d="M91.8201 78.1619H136.893C137.318 78.1619 137.662 78.5095 137.662 78.9352C137.662 79.356 137.318 79.7036 136.893 79.7036H91.8201C91.3956 79.7036 91.0449 79.356 91.0449 78.9352C91.0449 78.5095 91.3956 78.1619 91.8201 78.1619ZM91.8201 81.5464H125.843C126.267 81.5464 126.618 81.8939 126.618 82.3147C126.618 82.7355 126.267 83.0831 125.843 83.0831H91.8201C91.3956 83.0831 91.0449 82.7355 91.0449 82.3147C91.0449 81.8939 91.3956 81.5464 91.8201 81.5464Z" fill="#CACACA"/>
<path d="M80.4547 89.2329H86.6629C87.6042 89.2329 88.3677 89.9897 88.3677 90.9227V97.0762C88.3677 98.0076 87.6042 98.766 86.6629 98.766H80.4547C79.5134 98.766 78.75 98.0092 78.75 97.0762V90.9227C78.75 89.9897 79.5134 89.2329 80.4547 89.2329Z" fill="#CACACA"/>
<path fill-rule="evenodd" clip-rule="evenodd" d="M91.8201 91.5469H136.893C137.318 91.5469 137.662 91.8995 137.662 92.3203C137.662 92.741 137.318 93.0886 136.893 93.0886H91.8201C91.3956 93.0886 91.0449 92.741 91.0449 92.3203C91.0449 91.8995 91.3956 91.5469 91.8201 91.5469ZM91.8201 94.9314H125.843C126.267 94.9314 126.618 95.279 126.618 95.6997C126.618 96.1255 126.267 96.4731 125.843 96.4731H91.8201C91.3956 96.4731 91.0449 96.1255 91.0449 95.6997C91.0449 95.279 91.3956 94.9314 91.8201 94.9314Z" fill="#CACACA"/>
<path fill-rule="evenodd" clip-rule="evenodd" d="M80.72 25.2251C80.4901 24.8725 80.5874 24.4002 80.9431 24.1723C81.2989 23.9445 81.7754 24.041 82.0052 24.3935C82.3777 24.9623 82.7452 25.576 83.1076 26.2296C83.257 26.509 83.4113 26.7984 83.5607 27.0944C84.3291 26.0034 85.1328 24.974 85.9651 24.0177C87.0674 22.7437 88.2252 21.5945 89.4249 20.565C89.747 20.2923 90.2336 20.3322 90.5088 20.6498C90.784 20.9675 90.7437 21.4515 90.4232 21.7242C89.2823 22.6972 88.1849 23.7882 87.1295 25.0056C86.0741 26.223 85.064 27.5651 84.0942 29.032H84.0892C84.0154 29.1451 83.9063 29.2432 83.7687 29.3047C83.3845 29.481 82.9314 29.3097 82.7536 28.9289C82.4314 28.2354 82.0992 27.5751 81.7603 26.9547C81.4213 26.3411 81.0774 25.7606 80.7217 25.2201L80.72 25.2251Z" fill="#35A476"/>
<path fill-rule="evenodd" clip-rule="evenodd" d="M80.72 51.9888C80.4901 51.6362 80.5874 51.1639 80.9431 50.936C81.2989 50.7082 81.7754 50.8113 82.0052 51.1639C82.3777 51.7327 82.7452 52.3414 83.1076 52.995C83.257 53.2794 83.4113 53.5638 83.5607 53.8598C84.3291 52.7688 85.1328 51.7443 85.9651 50.7897C87.0674 49.5157 88.2252 48.3615 89.4249 47.337C89.747 47.0643 90.2336 47.0975 90.5088 47.4218C90.784 47.7395 90.7437 48.2185 90.4232 48.4912C89.2823 49.4642 88.1849 50.5618 87.1295 51.7776C86.0741 52.9883 85.064 54.3305 84.0942 55.799H84.0892C84.0154 55.9187 83.9063 56.0152 83.7687 56.0784C83.3845 56.2497 82.9314 56.0834 82.7536 55.7025C82.4314 55.0024 82.0992 54.3438 81.7603 53.7234C81.4213 53.1097 81.0774 52.5343 80.7217 51.9888H80.72Z" fill="#35A476"/>
<path fill-rule="evenodd" clip-rule="evenodd" d="M80.72 38.6091C80.4901 38.2565 80.5874 37.7842 80.9431 37.5563C81.2989 37.3285 81.7754 37.4316 82.0052 37.7775C82.3777 38.3513 82.7452 38.96 83.1076 39.6136C83.257 39.898 83.4113 40.1824 83.5607 40.4784C84.3291 39.3858 85.1328 38.3629 85.9651 37.4017C87.0674 36.1277 88.2252 34.9785 89.4249 33.9557C89.747 33.6763 90.2336 33.7162 90.5088 34.0355C90.784 34.3532 90.7437 34.8371 90.4232 35.1099C89.2823 36.0828 88.1849 37.1805 87.1295 38.3912C86.0741 39.6086 85.064 40.9508 84.0942 42.4176H84.0892C84.0154 42.5374 83.9063 42.6289 83.7687 42.6904C83.3845 42.8667 82.9314 42.702 82.7536 42.3145C82.4314 41.621 82.0992 40.9607 81.7603 40.3404C81.4213 39.7267 81.0774 39.1463 80.7217 38.6058L80.72 38.6091Z" fill="#35A476"/>
<path fill-rule="evenodd" clip-rule="evenodd" d="M172.953 154.705C175.5 153.819 175.706 152.515 177.079 151.885C178.461 151.243 178.622 150.105 177.268 148.865C176.27 149.655 175.03 150.627 174.377 150.11C173.941 149.769 172.454 149.791 172.157 150.291C170.867 153.272 169.065 152.327 168.709 153.686C168.669 155.494 171.79 155.113 172.954 154.704L172.953 154.705Z" fill="#383838"/>
<path fill-rule="evenodd" clip-rule="evenodd" d="M151.076 154.791C155.774 154.717 159.293 154.666 160.915 154.154C162.67 153.608 162.304 152.544 161.299 150.849C156.865 152.873 158.046 150.433 155.975 150.746C154.517 151.907 152.361 152.685 149.504 153.083C148.294 153.964 148.787 154.754 151.076 154.789V154.791Z" fill="#383838"/>
<path fill-rule="evenodd" clip-rule="evenodd" d="M167.323 41.6552C166.571 41.7068 165.39 41.5637 165.177 41.2976C164.38 40.2964 163.828 39.2453 163.622 38.5851C163.776 38.141 163.942 37.5905 164.11 36.9186C167.008 34.9678 167.404 33.5242 165.298 32.5912C164.873 32.8307 164.351 33.5525 163.721 34.7699C163.221 34.7466 162.836 34.4971 162.58 34.0082C163.177 31.9559 163.566 30.2894 163.744 29.0088C162.321 26.9099 158.982 26.6089 154.569 27.1777C154.363 28.3436 154.197 29.5726 154.064 30.8748C153.284 31.5916 153.381 34.236 154.105 37.2779C153.744 39.0125 154.828 39.9571 157.341 40.1151C157.376 40.7288 157.318 41.4856 157.277 41.5704C157.214 41.7018 156.991 41.8315 156.68 41.9396C156.6 44.7952 160.145 44.7037 167.323 41.6552Z" fill="#F9AF79"/>
<path fill-rule="evenodd" clip-rule="evenodd" d="M154.568 27.1827C158.98 26.6139 162.32 26.9149 163.743 29.0138C163.565 30.2927 163.174 31.9592 162.579 34.0132C162.837 34.5021 163.216 34.7516 163.72 34.7749C164.351 33.5575 164.872 32.8357 165.297 32.5962C167.403 33.5292 167.007 34.9728 164.109 36.9236C163.943 37.5939 163.777 38.146 163.621 38.5901C166.225 38.0096 168.406 35.7012 168.71 34.7067C171.745 28.7693 168.359 26.268 166.547 25.3516C165.75 19.4775 157.137 24.6697 152.829 21.8374C151.107 24.1858 153.23 27.1262 154.567 27.1827H154.568Z" fill="#333333"/>
<path fill-rule="evenodd" clip-rule="evenodd" d="M128.068 52.0617C130.255 61.3369 134.092 68.5316 139.584 73.6556C141.564 73.0586 143.319 71.7164 144.851 69.6342C144.77 76.3383 144.936 83.0157 145.356 89.6632C149.366 91.5459 154.69 91.4261 161.322 89.299L164.019 86.0127C164.707 85.8813 166.279 86.638 167.031 87.7922C173.331 83.0207 177.581 77.9033 180.09 72.8124C179.412 61.8757 177.91 53.2441 175.591 46.9259C174.422 45.1397 171.662 43.3768 167.324 41.6538C160.146 44.7023 156.601 44.7938 156.681 41.9382C154.571 42.6201 151.77 43.8375 148.277 45.5838C145.367 47.7741 142.889 53.7165 140.84 63.4058C137.513 59.2663 134.053 54.8807 130.473 50.2455C129.676 50.4667 128.872 51.0704 128.068 52.06V52.0617ZM165.465 83.049C163.376 76.2368 164.531 67.8364 168.925 57.8443C170.032 62.7755 171.232 67.6252 172.511 72.4033C171.019 73.1085 168.672 76.6576 165.465 83.049Z" fill="#35A476"/>
<path fill-rule="evenodd" clip-rule="evenodd" d="M166.246 91.9278C165.231 91.848 163.59 90.9732 161.323 89.3001C154.69 91.4272 149.366 91.547 145.356 89.6643C144.645 100.85 147.422 112.577 150.939 125.651C154.387 131.389 154.244 135.422 156.08 148.665C157.095 149.387 158.783 149.279 161.135 148.353C161.882 137.058 161.365 129.586 158.41 125.372C158.875 121.585 157.664 112.281 157.607 106.44C159.758 111.188 161.232 117.61 164.033 124.093C167.447 131.986 169.822 140.431 171.624 148.136C173.523 148.501 175.313 148.284 176.976 147.488C175.06 134.823 172.942 126.105 170.619 121.339C170.711 108.89 169.511 97.7039 167.033 87.7917C166.568 88.9625 166.31 90.3396 166.248 91.9262L166.246 91.9278Z" fill="#1D3C45"/>
<path fill-rule="evenodd" clip-rule="evenodd" d="M161.324 89.3002C163.591 90.9716 165.232 91.8481 166.247 91.9279C166.311 90.3413 166.569 88.9659 167.032 87.7934C166.281 86.6392 164.709 85.8825 164.021 86.0138L161.324 89.3002Z" fill="#F9AF79"/>
<path fill-rule="evenodd" clip-rule="evenodd" d="M144.852 69.6353C145.07 63.1175 145.599 57.7788 146.436 53.6094C144.307 62.4589 142.248 68.333 140.251 71.2269C138.995 71.187 137.394 70.4485 135.461 69.0033C136.718 70.7096 138.089 72.2563 139.585 73.655C141.565 73.058 143.32 71.7158 144.852 69.6336V69.6353Z" fill="#1D3C45"/>
<path fill-rule="evenodd" clip-rule="evenodd" d="M164.022 86.017C164.407 85.0723 164.888 84.0828 165.469 83.0533C163.38 76.2411 164.534 67.8407 168.928 57.8487C162.537 66.8561 160.724 76.4623 163.489 86.6639L164.022 86.0153V86.017Z" fill="#1D3C45"/>
<path fill-rule="evenodd" clip-rule="evenodd" d="M160.246 39.5117C159.539 39.8593 158.571 40.0572 157.343 40.1137C157.366 40.5295 157.348 41.0002 157.326 41.2962C158.559 41.0567 159.534 40.4597 160.247 39.51L160.246 39.5117Z" fill="#ED7D57"/>
<path fill-rule="evenodd" clip-rule="evenodd" d="M160.857 151.05C160.616 150.277 160.53 149.447 160.587 148.559C158.792 149.196 157.426 149.309 156.48 148.895C156.525 149.555 156.451 150.164 156.25 150.721C157.886 150.664 157.139 152.627 160.857 151.05ZM172.712 149.953C173.274 149.811 174.071 149.873 174.376 150.106C174.962 150.566 176.017 149.838 176.947 149.116C176.786 148.679 176.655 148.195 176.551 147.678C175.427 148.143 174.255 148.354 173.027 148.303C173.044 148.963 172.942 149.514 172.712 149.953Z" fill="#F9AF79"/>
<path fill-rule="evenodd" clip-rule="evenodd" d="M166.312 93.52C166.243 92.9462 166.22 92.4173 166.243 91.9333C165.228 91.8535 163.587 90.9787 161.32 89.3056C160.782 89.4769 160.253 89.6349 159.736 89.7829C161.325 91.4261 163.517 92.6718 166.312 93.5183V93.52Z" fill="#1D3C45"/>
<path fill-rule="evenodd" clip-rule="evenodd" d="M115.566 42.6092L117.35 38.7591C126.914 43.1098 129.25 44.1725 138.814 48.5183C139.352 48.7627 139.589 49.3947 139.342 49.9236L138.453 51.8462C138.206 52.375 137.569 52.6079 137.035 52.3701C127.471 48.026 125.13 46.9566 115.566 42.6109V42.6092Z" fill="#6D96CE"/>
<path fill-rule="evenodd" clip-rule="evenodd" d="M117.351 38.7523L115.568 42.6024L111.195 38.2866L117.351 38.7523Z" fill="#F9AF79"/>
<path fill-rule="evenodd" clip-rule="evenodd" d="M136.336 48.9427L135.756 50.205L116.17 41.3106L116.749 40.055L136.336 48.9427Z" fill="#466FB5"/>
<path fill-rule="evenodd" clip-rule="evenodd" d="M136.932 47.6638L135.148 51.5139L137.036 52.3721C137.57 52.6116 138.207 52.3771 138.454 51.8482L139.343 49.9256C139.59 49.3968 139.355 48.7648 138.815 48.5203L136.932 47.6621V47.6638Z" fill="#466FB5"/>
<path fill-rule="evenodd" clip-rule="evenodd" d="M112.813 39.8799C113.966 39.8234 114.167 39.3461 113.427 38.4579L111.195 38.2866L112.813 39.8783V39.8799Z" fill="#466FB5"/>
<path fill-rule="evenodd" clip-rule="evenodd" d="M130.473 50.2452C130.438 48.3908 129.435 47.9301 129.222 46.9123C128.361 47.2815 128.138 47.9817 128.556 48.9995C128.166 48.6869 127.775 48.3459 127.391 47.9817C126.141 47.4129 125.16 46.9689 124.453 46.6446C124.883 47.7705 125.487 49.0677 126.255 50.5462C126.715 51.263 127.403 51.1267 128.269 51.8252C129.009 50.977 129.743 50.4498 130.472 50.2436L130.473 50.2452Z" fill="#F9AF79"/>
<path fill-rule="evenodd" clip-rule="evenodd" d="M160.044 31.9828C160.395 32.0277 160.83 30.6855 159.98 30.5841C159.521 30.5325 159.47 31.9096 160.044 31.9828Z" fill="#20386F"/>
<path fill-rule="evenodd" clip-rule="evenodd" d="M155 31.6351C154.649 31.5952 154.53 30.1898 155.384 30.2979C155.837 30.3495 155.573 31.7083 155 31.6351Z" fill="#20386F"/>
<path fill-rule="evenodd" clip-rule="evenodd" d="M159.826 29.3258C159.257 29.2809 159.219 29.7466 159.62 29.9179C159.734 29.9694 161.972 30.6962 161.887 30.5432C161.732 30.2306 160.9 29.4173 159.826 29.3258Z" fill="#20386F"/>
<path fill-rule="evenodd" clip-rule="evenodd" d="M156.067 29.0108C156.636 29.074 156.589 29.5397 156.164 29.6311C155.963 29.676 153.679 29.9488 153.84 29.7725C154.104 29.4831 155.033 28.896 156.067 29.0108Z" fill="#20386F"/>
<path fill-rule="evenodd" clip-rule="evenodd" d="M155.233 33.234C155.973 34.315 156.231 33.7745 155.909 33.6032C154.854 33.0227 156.161 33.2273 157.327 31.5392C157.448 31.3629 157.247 31.2316 157.126 31.3629C157.045 31.4544 156.787 31.8236 156.69 31.9151C155.52 33.0643 154.992 32.888 155.233 33.234Z" fill="#ED7D57"/>
<path fill-rule="evenodd" clip-rule="evenodd" d="M155.261 35.6303C156.907 38.7636 158.686 35.9546 158.192 35.8698C155.702 35.449 155.06 35.2495 155.261 35.6303Z" fill="white"/>
</g>
<defs>
<clipPath id="clip0_1_5740">
<rect width="141.09" height="144.191" fill="white" transform="translate(39 10.8531)"/>
</clipPath>
</defs>
</svg>
