<svg width="42" height="40" viewBox="0 0 42 40" fill="white" xmlns="http://www.w3.org/2000/svg">
<ellipse cx="20.779" cy="19.8678" rx="20.291" ry="19.8678" fill="white"/>
<path d="M40.2753 19.8678C40.2753 30.3858 31.5624 38.9408 20.779 38.9408C9.9956 38.9408 1.28269 30.3858 1.28269 19.8678C1.28269 9.34972 9.9956 0.794711 20.779 0.794711C31.5624 0.794711 40.2753 9.34972 40.2753 19.8678Z" stroke="#5FDEFE" stroke-opacity="0.6" stroke-width="1.58942"/>
<path d="M21.2162 17.1194L21.2162 17.1194L21.217 17.1202C21.2656 17.1679 21.3041 17.2248 21.3305 17.2876C21.3568 17.3503 21.3704 17.4177 21.3704 17.4858V20.2253V20.3242H21.4694H23.3727C23.5104 20.3242 23.6425 20.379 23.7399 20.4764C23.8374 20.5738 23.8921 20.7059 23.8921 20.8437C23.8921 20.9814 23.8374 21.1135 23.7399 21.211C23.6425 21.3084 23.5104 21.3631 23.3727 21.3631H20.769V21.3631L20.7674 21.3631C20.6548 21.365 20.5459 21.3228 20.4641 21.2455C20.3827 21.1686 20.3343 21.0632 20.3292 20.9514V17.5101H20.3292L20.3292 17.5084C20.3271 17.3852 20.3675 17.265 20.4437 17.168C20.5195 17.0714 20.6263 17.0037 20.746 16.9763C20.8299 16.9595 20.9167 16.9636 20.9986 16.9885C21.0808 17.0134 21.1556 17.0584 21.2162 17.1194Z" fill="#3DC8EB" stroke="white" stroke-width="0.197928"/>
<path d="M20.0036 26.502C20.0036 26.1126 20.3193 25.7969 20.7088 25.7969C21.0982 25.7969 21.4139 26.1126 21.4139 26.502V27.4423H20.0036V26.502Z" fill="#3DC8EB"/>
<mask id="path-5-inside-1_1_255" fill="white">
<path d="M29.1652 20.2663C29.1652 24.8749 25.4292 28.6108 20.8207 28.6108C16.2122 28.6108 12.4763 24.8749 12.4763 20.2663C12.4763 15.6578 16.2122 11.9219 20.8207 11.9219C25.4292 11.9219 29.1652 15.6578 29.1652 20.2663ZM13.6712 20.2663C13.6712 24.2149 16.8721 27.4159 20.8207 27.4159C24.7693 27.4159 27.9703 24.2149 27.9703 20.2663C27.9703 16.3178 24.7693 13.1168 20.8207 13.1168C16.8721 13.1168 13.6712 16.3178 13.6712 20.2663Z"/>
</mask>
<path d="M29.1652 20.2663C29.1652 24.8749 25.4292 28.6108 20.8207 28.6108C16.2122 28.6108 12.4763 24.8749 12.4763 20.2663C12.4763 15.6578 16.2122 11.9219 20.8207 11.9219C25.4292 11.9219 29.1652 15.6578 29.1652 20.2663ZM13.6712 20.2663C13.6712 24.2149 16.8721 27.4159 20.8207 27.4159C24.7693 27.4159 27.9703 24.2149 27.9703 20.2663C27.9703 16.3178 24.7693 13.1168 20.8207 13.1168C16.8721 13.1168 13.6712 16.3178 13.6712 20.2663Z" fill="#3DC8EB" stroke="white" stroke-width="0.263904" mask="url(#path-5-inside-1_1_255)"/>
<path d="M21.4099 14.0292C21.4099 14.4187 21.0941 14.7344 20.7047 14.7344C20.3152 14.7344 19.9995 14.4187 19.9995 14.0292V13.089H21.4099V14.0292Z" fill="#3DC8EB"/>
<path d="M14.5992 19.4375C14.9887 19.4375 15.3044 19.7532 15.3044 20.1427C15.3044 20.5321 14.9887 20.8478 14.5992 20.8478H13.659V19.4375H14.5992Z" fill="#3DC8EB"/>
<path d="M27.0447 20.8516C26.6553 20.8516 26.3395 20.5358 26.3395 20.1464C26.3395 19.7569 26.6553 19.4412 27.0447 19.4412H27.9849V20.8516H27.0447Z" fill="#3DC8EB"/>
</svg>
