<svg width="16" height="18" viewBox="0 0 16 18" fill="none" xmlns="http://www.w3.org/2000/svg">
<path d="M1.75338 3.84001C1.3819 3.84001 1.01043 3.84001 0.638952 3.84001C0.298432 3.84001 0.0507812 3.59236 0.0507812 3.2828C0.0507812 2.94228 0.298432 2.72559 0.669908 2.72559C5.56101 2.72559 10.4521 2.72559 15.3432 2.72559C15.6837 2.72559 15.9314 2.97324 15.9314 3.2828C15.9314 3.62332 15.6837 3.87097 15.3432 3.87097C14.9717 3.87097 14.6312 3.87097 14.2288 3.87097C14.2288 3.96384 14.2288 4.02575 14.2288 4.11862C14.2288 7.8953 14.2288 11.641 14.2288 15.4177C14.2288 16.4392 13.5477 17.337 12.4952 17.4918C12.4024 17.4918 12.3095 17.5227 12.1857 17.5227C9.36864 17.5227 6.58257 17.5227 3.76554 17.5227C2.5892 17.5227 1.72242 16.6559 1.72242 15.4796C1.72242 11.7029 1.72242 7.92625 1.72242 4.14958C1.75338 4.02575 1.75338 3.93288 1.75338 3.84001ZM2.89877 3.84001C2.89877 3.90193 2.89877 3.96384 2.89877 4.02575C2.89877 7.80243 2.89877 11.6101 2.89877 15.3867C2.89877 15.9749 3.27024 16.3154 3.82746 16.3154C6.58257 16.3154 9.36864 16.3154 12.1238 16.3154C12.7429 16.3154 13.1144 15.9749 13.1144 15.3558C13.1144 11.5791 13.1144 7.83338 13.1144 4.05671C13.1144 3.9948 13.1144 3.93288 13.1144 3.87097C9.67821 3.84001 6.30396 3.84001 2.89877 3.84001Z" fill="#2892FD"/>
<path d="M7.97328 1.58191C7.23033 1.58191 6.51833 1.58191 5.77538 1.58191C5.4039 1.58191 5.15625 1.33426 5.15625 0.993738C5.15625 0.653218 5.4039 0.436523 5.77538 0.436523C7.26128 0.436523 8.71623 0.436523 10.2021 0.436523C10.5736 0.436523 10.8213 0.684174 10.8213 1.02469C10.8213 1.36521 10.5736 1.58191 10.2021 1.58191C9.45918 1.58191 8.71623 1.58191 7.97328 1.58191Z" fill="#2892FD"/>
<path d="M5.53125 10.0962C5.53125 8.98177 5.53125 7.83639 5.53125 6.72196C5.53125 6.38144 5.74794 6.13379 6.05751 6.13379C6.39803 6.13379 6.64568 6.35048 6.64568 6.691C6.64568 6.81483 6.64568 6.93865 6.64568 7.06248C6.64568 9.19847 6.64568 11.3345 6.64568 13.4704C6.64568 13.7491 6.4909 13.9657 6.24325 14.0586C6.02655 14.1205 5.74794 14.0586 5.62412 13.8419C5.56221 13.7181 5.53125 13.5633 5.53125 13.4395C5.53125 12.2941 5.53125 11.1797 5.53125 10.0962Z" fill="#2892FD"/>
<path d="M10.4504 10.0959C10.4504 11.2103 10.4504 12.3557 10.4504 13.4701C10.4504 13.7488 10.2956 13.9345 10.0479 14.0274C9.83124 14.0893 9.55263 14.0274 9.42881 13.8107C9.36689 13.7178 9.33594 13.594 9.33594 13.4701C9.33594 11.2103 9.33594 8.91957 9.33594 6.65975C9.33594 6.35019 9.58359 6.10254 9.89315 6.10254C10.2027 6.10254 10.4504 6.35019 10.4813 6.65975C10.4504 7.80514 10.4504 8.95052 10.4504 10.0959Z" fill="#2892FD"/>
</svg>
