<svg width="46" height="38" viewBox="0 0 46 38" fill="none" xmlns="http://www.w3.org/2000/svg">
<path d="M22.8261 0.850516C28.7518 0.850516 34.6922 0.923252 40.6179 0.821421C43.6027 0.763232 45.6365 3.00351 45.6072 5.79659C45.5195 14.6413 45.578 23.4861 45.578 32.3309C45.578 35.3858 43.7052 37.2333 40.6179 37.2333C28.7518 37.2333 16.9004 37.2333 5.03427 37.2333C1.94704 37.2333 0.0742188 35.3858 0.0742188 32.3309C0.0742188 23.3697 0.0742188 14.4086 0.0742188 5.43291C0.0742188 3.19263 1.49347 1.40331 3.65892 0.937799C4.12713 0.835968 4.62459 0.850516 5.10743 0.850516C11.0185 0.850516 16.915 0.850516 22.8261 0.850516ZM42.6517 29.305C42.6663 29.0868 42.681 28.9268 42.681 28.7668C42.681 21.1585 42.681 13.5358 42.681 5.92752C42.681 4.1382 42.2127 3.71633 40.4277 3.71633C28.7372 3.71633 17.0467 3.71633 5.34153 3.71633C3.35166 3.71633 2.98587 4.09456 2.97124 6.08754C2.97124 6.16028 2.97124 6.23301 2.97124 6.30575C2.97124 13.7249 2.97124 21.144 2.97124 28.5631C2.97124 28.7959 2.98587 29.0286 3.00051 29.305C16.2273 29.305 29.3956 29.305 42.6517 29.305ZM19.139 33.2764C19.1243 32.7236 18.6122 32.2436 18.0416 32.2581C17.5003 32.2727 17.032 32.7382 17.0174 33.2764C17.0174 33.8292 17.5295 34.3384 18.0709 34.3384C18.6415 34.3529 19.1536 33.8292 19.139 33.2764ZM23.8503 33.3201C23.8649 32.7236 23.3967 32.2581 22.7968 32.2581C22.2262 32.2581 21.7873 32.6945 21.7726 33.2619C21.758 33.8438 22.2555 34.3384 22.8115 34.3384C23.3821 34.3384 23.8503 33.8729 23.8503 33.3201ZM28.6055 33.291C28.6055 32.7382 28.1373 32.2727 27.5813 32.2581C26.9961 32.2436 26.484 32.7382 26.4986 33.3055C26.4986 33.8438 26.9961 34.3238 27.5228 34.3529C28.0934 34.3675 28.6055 33.8583 28.6055 33.291Z" fill="#35A476"/>
<path d="M14.6627 16.6726C16.594 16.6726 18.4376 16.6726 20.2812 16.6726C21.32 16.6726 21.5541 16.9344 21.4956 17.9818C21.3054 21.9823 17.7499 25.2264 13.6824 25.1245C9.67337 25.0227 6.42519 21.8805 6.16183 18.0691C5.89846 14.1559 8.6638 10.4027 13.0386 9.89353C14.3554 9.73351 14.6481 9.99536 14.6481 11.3046C14.6627 13.0503 14.6627 14.8105 14.6627 16.6726ZM9.04422 21.0513C10.3025 19.8002 11.5169 18.5928 12.7313 17.3708C12.8338 17.2545 12.9362 17.0799 12.9508 16.9344C12.9508 15.1742 12.9508 13.414 12.9508 11.6101C10.6976 12.032 9.13201 13.2249 8.31265 15.2469C7.47865 17.2545 7.75665 19.2038 9.04422 21.0513ZM19.6813 18.36C17.8816 18.36 16.1405 18.36 14.3993 18.36C14.2676 18.36 14.1067 18.4328 14.0189 18.5201C12.7752 19.7566 11.5316 20.9931 10.2879 22.2296C13.9311 24.8918 19.1545 22.7533 19.6813 18.36Z" fill="#35A476"/>
<path d="M20.0978 15.4727C19.059 15.4727 18.0055 15.4872 16.9667 15.4727C16.1766 15.4581 15.8547 15.1381 15.8547 14.3671C15.8401 12.2723 15.8401 10.1629 15.8547 8.0681C15.8547 7.268 16.2059 6.96251 17.0399 6.97706C20.9318 7.07889 24.3556 10.512 24.3995 14.3671C24.4141 15.1235 24.0922 15.4581 23.3021 15.4727C22.234 15.4872 21.1659 15.4727 20.0978 15.4727ZM17.5959 13.7125C19.3077 13.7125 20.9318 13.7125 22.5706 13.7125C22.3364 11.2249 20.0539 8.95549 17.5959 8.78092C17.5959 10.4102 17.5959 12.0395 17.5959 13.7125Z" fill="#35A476"/>
<path d="M36.1273 19.4967C36.1273 18.1438 36.1127 16.7909 36.1273 15.438C36.1273 15.0597 36.0542 14.8124 35.6738 14.5651C34.0497 13.5468 34.0789 11.4375 35.6591 10.3319C35.8786 10.1719 36.0396 9.83726 36.0835 9.54632C36.1566 9.09535 36.0835 8.62984 36.1127 8.17887C36.1273 7.64062 36.3468 7.21875 36.9613 7.21875C37.5759 7.21875 37.81 7.59698 37.8246 8.16432C37.8246 8.41163 37.8392 8.64438 37.8246 8.89169C37.7807 9.60451 37.8685 10.1282 38.5854 10.6228C39.9462 11.5684 39.7413 13.6487 38.3074 14.5506C37.927 14.7833 37.81 15.0306 37.81 15.4671C37.8246 18.2165 37.8246 20.9659 37.81 23.7154C37.81 24.05 37.6783 24.4282 37.4588 24.6755C37.3271 24.8355 36.8443 24.9083 36.698 24.7919C36.4346 24.5882 36.142 24.21 36.1273 23.9045C36.0835 22.4352 36.1273 20.9659 36.1273 19.4967ZM36.0835 12.3248C36.0835 12.4412 36.0835 12.5576 36.0835 12.674C36.3907 12.8776 36.6687 13.1977 36.9906 13.2559C37.4442 13.3286 37.7807 12.9795 37.7807 12.4994C37.7807 12.0048 37.4734 11.6266 36.9613 11.7284C36.6394 11.7866 36.3761 12.1212 36.0835 12.3248Z" fill="#35A476"/>
<path d="M31.157 21.3767C31.157 20.8966 31.157 20.4165 31.157 19.9219C31.157 19.1073 31.2302 18.409 30.3084 17.7835C28.9769 16.8815 29.2988 14.8013 30.7327 13.9284C31.0839 13.7248 31.1717 13.5066 31.1717 13.1429C31.157 11.5281 31.1717 9.9134 31.157 8.2841C31.157 7.70221 31.318 7.26579 31.9618 7.22215C32.5324 7.17851 32.8543 7.55674 32.8689 8.26955C32.8835 9.8843 32.8835 11.4991 32.8689 13.1283C32.8689 13.492 32.9567 13.7102 33.2932 13.9284C34.9319 14.9613 34.9466 17.0852 33.3225 18.1181C32.9567 18.3508 32.8543 18.5981 32.8689 18.9909C32.8835 20.562 32.8835 22.1331 32.8689 23.7042C32.8689 24.4461 32.5178 24.8971 31.991 24.8971C31.4497 24.8826 31.157 24.4752 31.157 23.6897C31.1424 22.9332 31.157 22.1477 31.157 21.3767ZM32.9128 16.2124C32.9128 16.096 32.9128 15.9796 32.9128 15.8632C32.5909 15.6596 32.2544 15.2668 31.9618 15.2959C31.6838 15.325 31.2887 15.7614 31.2302 16.0669C31.157 16.5324 31.5228 16.9252 32.0349 16.8088C32.3568 16.7361 32.6202 16.416 32.9128 16.2124Z" fill="#35A476"/>
<path d="M27.8448 12.5738C27.8448 13.9267 27.8594 15.2796 27.8448 16.6325C27.8448 17.0399 27.9179 17.3163 28.3276 17.5636C29.9517 18.5673 29.9371 20.7349 28.313 21.7386C27.9326 21.9714 27.8448 22.2187 27.8594 22.6115C27.874 23.0915 27.874 23.5716 27.8448 24.0662C27.8302 24.5754 27.5229 24.91 27.0254 24.91C26.4987 24.91 26.1768 24.5899 26.1768 24.0226C26.1768 23.848 26.1622 23.688 26.1768 23.5134C26.2353 22.6697 26.1622 22.0005 25.2989 21.3895C23.9967 20.4585 24.2601 18.4364 25.6647 17.5781C26.089 17.3163 26.1914 17.0399 26.1768 16.5889C26.1622 13.8395 26.1768 11.09 26.1622 8.32604C26.1622 7.83143 26.2353 7.39501 26.7913 7.24954C27.3912 7.10407 27.8155 7.4823 27.8302 8.20966C27.8594 9.67894 27.8448 11.1191 27.8448 12.5738ZM27.8448 19.8475C27.7277 19.1201 27.4205 18.7564 26.9376 18.8874C26.6304 18.9747 26.2207 19.4111 26.2353 19.6729C26.25 19.9493 26.7035 20.3857 26.9815 20.4003C27.2888 20.4148 27.6107 20.0075 27.8448 19.8475Z" fill="#35A476"/>
</svg>
