<svg width="25" height="25" viewBox="0 0 16 18" fill="none" xmlns="http://www.w3.org/2000/svg">
<path d="M0 3.44444V15.5C0 15.9568 0.181448 16.3948 0.504427 16.7178C0.827406 17.0408 1.26546 17.2222 1.72222 17.2222H13.7778C14.2345 17.2222 14.6726 17.0408 14.9956 16.7178C15.3186 16.3948 15.5 15.9568 15.5 15.5V3.44444C15.5 2.98768 15.3186 2.54963 14.9956 2.22665C14.6726 1.90367 14.2345 1.72222 13.7778 1.72222H12.0556V0H10.3333V1.72222H5.16667V0H3.44444V1.72222H1.72222C1.26546 1.72222 0.827406 1.90367 0.504427 2.22665C0.181448 2.54963 0 2.98768 0 3.44444ZM13.7778 15.5H1.72222V5.16667H13.7778V15.5Z" fill="#898989"/>
</svg>
