<svg width="25" height="25" viewBox="0 0 15 18" fill="none" xmlns="http://www.w3.org/2000/svg">
<path d="M13.4625 4.15125L10.8488 1.5375C9.85725 0.546 8.53875 2.50683e-07 7.13625 2.50683e-07H3.75C1.68225 -0.000749749 0 1.6815 0 3.74925V14.2493C0 16.317 1.68225 17.9993 3.75 17.9993H11.25C13.3178 17.9993 15 16.317 15 14.2493V7.863C15 6.4605 14.454 5.1435 13.4625 4.15125ZM12.402 5.21175C12.6405 5.45025 12.8423 5.715 13.0058 5.99925H9.75C9.33675 5.99925 9 5.6625 9 5.24925V1.9935C9.28425 2.157 9.54975 2.35875 9.7875 2.59725L12.4013 5.211L12.402 5.21175ZM13.5 14.2493C13.5 15.4898 12.4905 16.4993 11.25 16.4993H3.75C2.5095 16.4993 1.5 15.4898 1.5 14.2493V3.74925C1.5 2.50875 2.5095 1.49925 3.75 1.49925H7.13625C7.2585 1.49925 7.38 1.50525 7.5 1.5165V5.24925C7.5 6.48975 8.5095 7.49925 9.75 7.49925H13.4828C13.494 7.61925 13.5 7.74075 13.5 7.863V14.2493ZM10.125 9.74925H4.875C3.8415 9.74925 3 10.5908 3 11.6243V13.1243C3 14.1578 3.8415 14.9993 4.875 14.9993H10.125C11.1585 14.9993 12 14.1578 12 13.1243V11.6243C12 10.5908 11.1585 9.74925 10.125 9.74925ZM10.5 13.1243C10.5 13.3313 10.332 13.4993 10.125 13.4993H4.875C4.668 13.4993 4.5 13.3313 4.5 13.1243V11.6243C4.5 11.4173 4.668 11.2493 4.875 11.2493H10.125C10.332 11.2493 10.5 11.4173 10.5 11.6243V13.1243ZM3 7.49925C3 7.08525 3.336 6.74925 3.75 6.74925H5.25C5.664 6.74925 6 7.08525 6 7.49925C6 7.91325 5.664 8.24925 5.25 8.24925H3.75C3.336 8.24925 3 7.91325 3 7.49925ZM3 4.49925C3 4.08525 3.336 3.74925 3.75 3.74925H5.25C5.664 3.74925 6 4.08525 6 4.49925C6 4.91325 5.664 5.24925 5.25 5.24925H3.75C3.336 5.24925 3 4.91325 3 4.49925Z" fill="#898989"/>
</svg>
