<svg width="20" height="20" viewBox="0 0 20 20" fill="none" xmlns="http://www.w3.org/2000/svg">
<path d="M9.63672 6.80078C10.2926 6.80078 10.8242 6.26912 10.8242 5.61328C10.8242 4.95744 10.2926 4.42578 9.63672 4.42578C8.98088 4.42578 8.44922 4.95744 8.44922 5.61328C8.44922 6.26912 8.98088 6.80078 9.63672 6.80078Z" fill="#333333"/>
<path d="M9.63672 11.5508C10.2926 11.5508 10.8242 11.0191 10.8242 10.3633C10.8242 9.70744 10.2926 9.17578 9.63672 9.17578C8.98088 9.17578 8.44922 9.70744 8.44922 10.3633C8.44922 11.0191 8.98088 11.5508 9.63672 11.5508Z" fill="#333333"/>
<path d="M9.63672 16.3008C10.2926 16.3008 10.8242 15.7691 10.8242 15.1133C10.8242 14.4574 10.2926 13.9258 9.63672 13.9258C8.98088 13.9258 8.44922 14.4574 8.44922 15.1133C8.44922 15.7691 8.98088 16.3008 9.63672 16.3008Z" fill="#333333"/>
</svg>
