<svg width="45" height="44" viewBox="0 0 45 44" fill="none" xmlns="http://www.w3.org/2000/svg">
<ellipse cx="22.5858" cy="21.8167" rx="22.2815" ry="21.8167" fill="white"/>
<path d="M43.9946 21.8167C43.9946 33.3665 34.427 42.7607 22.5858 42.7607C10.7447 42.7607 1.17705 33.3665 1.17705 21.8167C1.17705 10.2669 10.7447 0.872668 22.5858 0.872668C34.427 0.872668 43.9946 10.2669 43.9946 21.8167Z" stroke="#1EAE64" stroke-opacity="0.3" stroke-width="1.74534"/>
<path d="M18.4608 21.7331L18.4607 21.7331L18.4616 21.7377C18.4935 21.8973 18.6241 22.0359 18.7989 22.0359H19.5535C19.7283 22.0359 19.8589 21.8973 19.8908 21.7377L19.891 21.7378L19.8916 21.7331L19.9663 21.1607C20.1878 21.1061 20.4262 21.0104 20.6267 20.8917L21.0742 21.2398L21.0733 21.2409L21.0857 21.247C21.0877 21.248 21.0896 21.249 21.0917 21.25C21.141 21.2748 21.2078 21.3082 21.2783 21.3082C21.3258 21.3082 21.3752 21.3004 21.4185 21.2831C21.4576 21.2674 21.4979 21.2414 21.5227 21.2003L22.0549 20.6681C22.1194 20.6036 22.1548 20.5274 22.1592 20.4479C22.1636 20.3689 22.1371 20.2926 22.0884 20.2276C22.0884 20.2276 22.0883 20.2275 22.0883 20.2274L21.7375 19.7514C21.8557 19.534 21.9529 19.3138 22.0084 19.0916L22.5809 19.0169L22.5809 19.0171L22.5855 19.0161C22.7451 18.9842 22.8836 18.8536 22.8836 18.6788V17.8973C22.8836 17.7225 22.7451 17.5919 22.5855 17.56L22.5855 17.5598L22.5809 17.5592L22.0095 17.4847C21.9548 17.2421 21.8582 17.0218 21.7396 16.824L22.0875 16.3766L22.0875 16.3766L22.0883 16.3757C22.1882 16.2424 22.1888 16.0419 22.0549 15.908L21.5159 15.369C21.4514 15.3045 21.3752 15.269 21.2956 15.2646C21.2166 15.2602 21.1403 15.2868 21.0754 15.3354C21.0753 15.3355 21.0752 15.3355 21.0751 15.3356L20.601 15.6849C20.4029 15.566 20.1823 15.4692 19.9392 15.4143L19.8646 14.843L19.8648 14.843L19.8639 14.8384C19.832 14.6788 19.7014 14.5402 19.5266 14.5402H18.772C18.5972 14.5402 18.4666 14.6788 18.4347 14.8384L18.4345 14.8383L18.4339 14.843L18.3592 15.4154C18.1372 15.4701 17.8984 15.566 17.6977 15.685L17.2234 15.3356C17.2233 15.3355 17.2232 15.3355 17.2232 15.3354C17.0957 15.24 16.8906 15.2294 16.7794 15.3722L16.2437 15.908C16.1792 15.9725 16.1437 16.0487 16.1393 16.1282C16.1349 16.2072 16.1615 16.2835 16.2101 16.3485C16.2102 16.3486 16.2102 16.3486 16.2103 16.3487L16.561 16.8247C16.4429 17.0421 16.3456 17.2623 16.2901 17.4845L15.7177 17.5592L15.7177 17.559L15.7131 17.56C15.5535 17.5919 15.4149 17.7225 15.4149 17.8973V18.6788C15.4149 18.8536 15.5535 18.9842 15.7131 19.0161L15.713 19.0163L15.718 19.017L16.3172 19.0918C16.3727 19.314 16.4699 19.5341 16.588 19.7514L16.2372 20.2274C16.2372 20.2275 16.2371 20.2276 16.2371 20.2276C16.1417 20.3551 16.1311 20.5602 16.2739 20.6714L16.8096 21.2071C16.8741 21.2716 16.9503 21.3071 17.0299 21.3115C17.1089 21.3159 17.1851 21.2893 17.2501 21.2407C17.2502 21.2406 17.2503 21.2406 17.2504 21.2405L17.7245 20.8912C17.9226 21.0101 18.1432 21.1069 18.3863 21.1618L18.4608 21.7331ZM16.6258 18.1274L16.6258 18.1278L16.6327 18.1261C16.6962 18.1102 16.7609 18.0783 16.8109 18.0325C16.8598 17.9876 16.8986 17.9254 16.9006 17.8497C16.9531 17.5401 17.0827 17.2549 17.2655 16.9937L17.2661 16.9941L17.2707 16.985C17.3344 16.8577 17.3344 16.727 17.2707 16.5997L17.2718 16.5991L17.2638 16.5886L16.9502 16.1786L17.0802 16.0486L17.4869 16.3596C17.543 16.4135 17.6212 16.437 17.694 16.437C17.7663 16.437 17.8438 16.4138 17.8998 16.3607C18.1586 16.1807 18.4436 16.0771 18.7304 16.0249L18.7305 16.0251L18.7348 16.024C18.8706 15.99 18.9697 15.8867 19.0015 15.7279L19.0016 15.7279L19.0022 15.7237L19.0749 15.1906H19.2506L19.3233 15.7237L19.3229 15.7237L19.3247 15.7311C19.3556 15.8544 19.45 15.9888 19.5907 16.024L19.5906 16.0242L19.5961 16.0251C19.9075 16.077 20.1945 16.207 20.4571 16.3908L20.4567 16.3914L20.4658 16.396C20.5931 16.4597 20.7238 16.4597 20.8511 16.396L20.8517 16.3972L20.8622 16.3891L21.2722 16.0755L21.4022 16.2055L21.0912 16.6122C20.9841 16.7231 20.9931 16.8948 21.0875 17.0215C21.2691 17.2811 21.3741 17.5683 21.4538 17.8871C21.4869 18.0197 21.5871 18.1199 21.7197 18.153L21.7196 18.1534L21.7267 18.1544L22.2333 18.2268V18.4033L21.7267 18.4756L21.7266 18.4753L21.7197 18.477C21.6562 18.4929 21.5916 18.5247 21.5415 18.5706C21.4926 18.6154 21.4538 18.6776 21.4518 18.7534C21.3993 19.0629 21.2698 19.3482 21.0869 19.6094L21.0863 19.6089L21.0817 19.6181C21.0181 19.7454 21.0181 19.8761 21.0817 20.0034L21.0806 20.0039L21.0886 20.0144L21.4022 20.4245L21.2722 20.5545L20.8656 20.2435C20.7547 20.1363 20.5829 20.1454 20.4562 20.2398C20.1966 20.4213 19.9095 20.5263 19.5907 20.606C19.4549 20.64 19.3558 20.7433 19.324 20.9021L19.3239 20.9021L19.3233 20.9063L19.2506 21.4394H19.0749L19.0022 20.9063L19.0026 20.9063L19.0008 20.8989C18.9699 20.7756 18.8755 20.6412 18.7348 20.606L18.7349 20.6058L18.7294 20.6049C18.418 20.553 18.131 20.423 17.8684 20.2392L17.8688 20.2386L17.8596 20.234C17.7324 20.1703 17.6017 20.1703 17.4744 20.234L17.4738 20.2329L17.4633 20.2409L17.0533 20.5545L16.9233 20.4245L17.2343 20.0178C17.2882 19.9617 17.3117 19.8835 17.3117 19.8107C17.3117 19.7384 17.2885 19.6609 17.2354 19.6049C17.0556 19.3464 16.952 19.0616 16.8998 18.7483L16.9 18.7483L16.8987 18.7429C16.8655 18.6103 16.7653 18.5101 16.6327 18.477L16.6328 18.4766L16.6258 18.4756L16.1192 18.4033V18.1998L16.6258 18.1274Z" fill="#1EAE64" stroke="#1EAE64" stroke-width="0.13831"/>
<path d="M18.1743 18.3037H18.1743L18.1742 18.3007C18.149 17.7219 18.6009 17.2679 19.1831 17.2679C19.7367 17.2679 20.1919 17.7209 20.1919 18.3037C20.1919 18.8607 19.7356 19.3395 19.1831 19.3395C18.6295 19.3395 18.1743 18.8865 18.1743 18.3037ZM19.1831 19.9899C20.1114 19.9899 20.8693 19.2305 20.8693 18.2768C20.8693 17.323 20.1114 16.5637 19.1831 16.5637C18.2548 16.5637 17.4969 17.323 17.4969 18.2768C17.4969 19.2298 18.2271 19.9899 19.1831 19.9899Z" fill="#1EAE64" stroke="#1EAE64" stroke-width="0.13831"/>
<path d="M24.6634 13.1191L24.6634 13.1191L24.6622 13.1179C24.5945 13.0502 24.4957 13.0168 24.4247 13.0168H14.2106C14.114 13.0168 14.0282 13.0493 13.9663 13.1112C13.9044 13.173 13.8719 13.2589 13.8719 13.3554V30.6035C13.8719 30.7 13.9044 30.7859 13.9663 30.8477C14.0282 30.9096 14.114 30.9421 14.2106 30.9421H29.1679C29.2644 30.9421 29.3503 30.9096 29.4122 30.8477C29.474 30.7859 29.5065 30.7 29.5065 30.6035V22.8403L31.4298 20.5697C31.9675 19.9745 31.9097 19.0685 31.2887 18.5318C30.7851 18.0816 30.0596 18.0535 29.5065 18.4428V18.3412C29.5065 18.2704 29.4734 18.172 29.4061 18.1043L24.6634 13.1191ZM22.8359 26.1927L22.8355 26.1924L22.831 26.1992L22.7771 26.28L22.776 26.2793L22.7708 26.2917L21.3703 29.6315C21.3068 29.761 21.3322 29.9356 21.4732 30.0133C21.5829 30.1146 21.748 30.1056 21.8684 30.0455L21.8685 30.0457L21.8736 30.0425L24.946 28.156L24.9529 28.1518L24.9587 28.146L25.0126 28.0921L25.0127 28.0922L25.0161 28.0883L28.8292 23.6484V30.2648H14.5493V13.6941H24.0591V18.3412C24.0591 18.4378 24.0915 18.5236 24.1534 18.5855C24.2153 18.6474 24.3011 18.6798 24.3977 18.6798H28.8292V19.1512L22.8359 26.1927ZM30.9227 20.1538L30.9214 20.1553L30.2387 20.9391L29.0495 19.9233L29.7327 19.1135C29.7327 19.1135 29.7328 19.1135 29.7328 19.1134C30.0028 18.7944 30.4976 18.7673 30.8209 19.0406C31.1717 19.3415 31.2165 19.8356 30.9227 20.1538ZM29.7981 21.4751L24.7404 27.4067L23.5519 26.3915L28.6096 20.46L29.7981 21.4751ZM22.4134 28.9235L23.2127 26.9722L24.2 27.8185L22.4134 28.9235ZM24.7633 14.202L28.3865 18.0025H24.7633V14.202Z" fill="#1EAE64" stroke="#1EAE64" stroke-width="0.13831"/>
<path d="M21.7084 23.2902H16.2106C16.114 23.2902 16.0282 23.3227 15.9663 23.3846C15.9044 23.4465 15.8719 23.5323 15.8719 23.6289C15.8719 23.7254 15.9044 23.8113 15.9663 23.8732C16.0282 23.935 16.114 23.9675 16.2106 23.9675H21.6815C21.778 23.9675 21.8639 23.935 21.9257 23.8732C21.9876 23.8113 22.0201 23.7254 22.0201 23.6289C22.0201 23.4339 21.8861 23.2902 21.7084 23.2902Z" fill="#1EAE64" stroke="#1EAE64" stroke-width="0.13831"/>
<path d="M21.6428 25.4336C21.6428 25.337 21.6103 25.2512 21.5484 25.1893C21.4866 25.1274 21.4007 25.0949 21.3042 25.0949H16.2106C16.114 25.0949 16.0282 25.1274 15.9663 25.1893C15.9044 25.2512 15.8719 25.337 15.8719 25.4336C15.8719 25.5301 15.9044 25.616 15.9663 25.6779C16.0282 25.7397 16.114 25.7722 16.2106 25.7722H21.2772C21.4681 25.7722 21.6428 25.6418 21.6428 25.4336Z" fill="#1EAE64" stroke="#1EAE64" stroke-width="0.13831"/>
<path d="M20.5226 26.923H16.2106C16.114 26.923 16.0282 26.9555 15.9663 27.0174C15.9044 27.0793 15.8719 27.1651 15.8719 27.2617C15.8719 27.3583 15.9044 27.4441 15.9663 27.506C16.0282 27.5679 16.114 27.6003 16.2106 27.6003H20.4957C20.5922 27.6003 20.6781 27.5679 20.7399 27.506C20.8018 27.4441 20.8343 27.3583 20.8343 27.2617C20.8343 27.0667 20.7003 26.923 20.5226 26.923Z" fill="#1EAE64" stroke="#1EAE64" stroke-width="0.13831"/>
</svg>
