<svg width="17" height="18" viewBox="0 0 17 18" fill="none" xmlns="http://www.w3.org/2000/svg">
<path d="M4.85175 2.94296C4.85175 3.4786 4.63897 3.9923 4.26021 4.37105C3.88146 4.74981 3.36776 4.96259 2.83212 4.96259C2.29649 4.96259 1.78279 4.74981 1.40403 4.37105C1.02528 3.9923 0.8125 3.4786 0.8125 2.94296C0.8125 2.40733 1.02528 1.89363 1.40403 1.51487C1.78279 1.13612 2.29649 0.92334 2.83212 0.92334C3.36776 0.92334 3.88146 1.13612 4.26021 1.51487C4.63897 1.89363 4.85175 2.40733 4.85175 2.94296ZM4.85175 9.00183C4.85175 9.53747 4.63897 10.0512 4.26021 10.4299C3.88146 10.8087 3.36776 11.0215 2.83212 11.0215C2.29649 11.0215 1.78279 10.8087 1.40403 10.4299C1.02528 10.0512 0.8125 9.53747 0.8125 9.00183C0.8125 8.4662 1.02528 7.9525 1.40403 7.57375C1.78279 7.19499 2.29649 6.98221 2.83212 6.98221C3.36776 6.98221 3.88146 7.19499 4.26021 7.57375C4.63897 7.9525 4.85175 8.4662 4.85175 9.00183ZM2.83212 17.0803C3.36776 17.0803 3.88146 16.8675 4.26021 16.4888C4.63897 16.11 4.85175 15.5963 4.85175 15.0607C4.85175 14.5251 4.63897 14.0114 4.26021 13.6326C3.88146 13.2539 3.36776 13.0411 2.83212 13.0411C2.29649 13.0411 1.78279 13.2539 1.40403 13.6326C1.02528 14.0114 0.8125 14.5251 0.8125 15.0607C0.8125 15.5963 1.02528 16.11 1.40403 16.4888C1.78279 16.8675 2.29649 17.0803 2.83212 17.0803ZM10.9106 2.94296C10.9106 3.4786 10.6978 3.9923 10.3191 4.37105C9.94033 4.74981 9.42663 4.96259 8.89099 4.96259C8.35536 4.96259 7.84166 4.74981 7.46291 4.37105C7.08415 3.9923 6.87137 3.4786 6.87137 2.94296C6.87137 2.40733 7.08415 1.89363 7.46291 1.51487C7.84166 1.13612 8.35536 0.92334 8.89099 0.92334C9.42663 0.92334 9.94033 1.13612 10.3191 1.51487C10.6978 1.89363 10.9106 2.40733 10.9106 2.94296ZM8.89099 11.0215C9.42663 11.0215 9.94033 10.8087 10.3191 10.4299C10.6978 10.0512 10.9106 9.53747 10.9106 9.00183C10.9106 8.4662 10.6978 7.9525 10.3191 7.57375C9.94033 7.19499 9.42663 6.98221 8.89099 6.98221C8.35536 6.98221 7.84166 7.19499 7.46291 7.57375C7.08415 7.9525 6.87137 8.4662 6.87137 9.00183C6.87137 9.53747 7.08415 10.0512 7.46291 10.4299C7.84166 10.8087 8.35536 11.0215 8.89099 11.0215ZM10.9106 15.0607C10.9106 15.5963 10.6978 16.11 10.3191 16.4888C9.94033 16.8675 9.42663 17.0803 8.89099 17.0803C8.35536 17.0803 7.84166 16.8675 7.46291 16.4888C7.08415 16.11 6.87137 15.5963 6.87137 15.0607C6.87137 14.5251 7.08415 14.0114 7.46291 13.6326C7.84166 13.2539 8.35536 13.0411 8.89099 13.0411C9.42663 13.0411 9.94033 13.2539 10.3191 13.6326C10.6978 14.0114 10.9106 14.5251 10.9106 15.0607ZM14.9499 4.96259C15.4855 4.96259 15.9992 4.74981 16.378 4.37105C16.7567 3.9923 16.9695 3.4786 16.9695 2.94296C16.9695 2.40733 16.7567 1.89363 16.378 1.51487C15.9992 1.13612 15.4855 0.92334 14.9499 0.92334C14.4142 0.92334 13.9005 1.13612 13.5218 1.51487C13.143 1.89363 12.9302 2.40733 12.9302 2.94296C12.9302 3.4786 13.143 3.9923 13.5218 4.37105C13.9005 4.74981 14.4142 4.96259 14.9499 4.96259ZM16.9695 9.00183C16.9695 9.53747 16.7567 10.0512 16.378 10.4299C15.9992 10.8087 15.4855 11.0215 14.9499 11.0215C14.4142 11.0215 13.9005 10.8087 13.5218 10.4299C13.143 10.0512 12.9302 9.53747 12.9302 9.00183C12.9302 8.4662 13.143 7.9525 13.5218 7.57375C13.9005 7.19499 14.4142 6.98221 14.9499 6.98221C15.4855 6.98221 15.9992 7.19499 16.378 7.57375C16.7567 7.9525 16.9695 8.4662 16.9695 9.00183ZM14.9499 17.0803C15.4855 17.0803 15.9992 16.8675 16.378 16.4888C16.7567 16.11 16.9695 15.5963 16.9695 15.0607C16.9695 14.5251 16.7567 14.0114 16.378 13.6326C15.9992 13.2539 15.4855 13.0411 14.9499 13.0411C14.4142 13.0411 13.9005 13.2539 13.5218 13.6326C13.143 14.0114 12.9302 14.5251 12.9302 15.0607C12.9302 15.5963 13.143 16.11 13.5218 16.4888C13.9005 16.8675 14.4142 17.0803 14.9499 17.0803Z" fill="#6E6E6F"/>
</svg>
