<svg width="582" height="438" viewBox="0 0 582 438" fill="none" xmlns="http://www.w3.org/2000/svg">
<path d="M452.471 71.3711H17.8014V289.001H452.471V71.3711Z" fill="#DFEAF5"/>
<path d="M369.041 137.231H311.691V140.081H369.041V137.231Z" fill="#93B2CE"/>
<path d="M426.401 144.401H311.691V147.251H426.401V144.401Z" fill="#93B2CE"/>
<path d="M426.401 151.572H311.691V154.422H426.401V151.572Z" fill="#93B2CE"/>
<path d="M426.401 158.751H311.691V161.601H426.401V158.751Z" fill="#93B2CE"/>
<path d="M426.401 165.921H311.691V168.771H426.401V165.921Z" fill="#93B2CE"/>
<path d="M426.401 173.091H311.691V175.941H426.401V173.091Z" fill="#93B2CE"/>
<path d="M232.621 193.912V270.842H397.811" stroke="#93B2CE" stroke-miterlimit="10"/>
<path d="M246.791 198.932H239.981V266.282H246.791V198.932Z" fill="#5295FE"/>
<path d="M263.411 234.332H256.601V266.282H263.411V234.332Z" fill="#35A476"/>
<path d="M280.021 246.312H273.211V266.282H280.021V246.312Z" fill="#5295FE"/>
<path d="M296.641 226.352H289.831V266.282H296.641V226.352Z" fill="#696CFF"/>
<path d="M313.251 198.932H306.441V266.282H313.251V198.932Z" fill="#5295FE"/>
<path d="M329.871 246.312H323.061V266.282H329.871V246.312Z" fill="#1D3C45"/>
<path d="M346.481 226.352H339.671V266.282H346.481V226.352Z" fill="#696CFF"/>
<path d="M363.101 233.461H356.291V266.281H363.101V233.461Z" fill="#1D3C45"/>
<path opacity="0.2" d="M379.711 231.891H372.901V266.281H379.711V231.891Z" fill="#696CFF"/>
<path d="M396.321 259.461H389.511V266.271H396.321V259.461Z" fill="#FF5050"/>
<path d="M426.671 94.7112H232.621V119.191H426.671V94.7112Z" fill="#93B2CE"/>
<path d="M291.831 137.171H240.181C236.006 137.171 232.621 140.554 232.621 144.726C232.621 148.899 236.006 152.281 240.181 152.281H291.831C296.007 152.281 299.391 148.899 299.391 144.726C299.391 140.554 296.007 137.171 291.831 137.171Z" fill="white"/>
<path d="M262.231 137.171H240.181C236.006 137.171 232.621 140.554 232.621 144.726C232.621 148.899 236.006 152.281 240.181 152.281H262.231C266.407 152.281 269.791 148.899 269.791 144.726C269.791 140.554 266.407 137.171 262.231 137.171Z" fill="#5295FE"/>
<path d="M291.801 178.952H240.181C239.189 178.952 238.205 178.756 237.288 178.376C236.371 177.996 235.538 177.439 234.836 176.737C234.134 176.035 233.577 175.202 233.197 174.285C232.817 173.367 232.621 172.384 232.621 171.392C232.62 170.398 232.815 169.415 233.194 168.497C233.574 167.579 234.13 166.745 234.833 166.043C235.535 165.341 236.369 164.784 237.287 164.404C238.205 164.025 239.188 163.83 240.181 163.832H291.801C292.795 163.83 293.778 164.025 294.696 164.404C295.614 164.784 296.448 165.341 297.15 166.043C297.852 166.745 298.409 167.579 298.789 168.497C299.168 169.415 299.363 170.398 299.361 171.392C299.361 172.384 299.166 173.367 298.786 174.285C298.406 175.202 297.849 176.035 297.147 176.737C296.445 177.439 295.612 177.996 294.694 178.376C293.777 178.756 292.794 178.952 291.801 178.952Z" fill="white"/>
<path d="M279.801 178.952H240.181C239.189 178.952 238.205 178.756 237.288 178.376C236.371 177.996 235.538 177.439 234.836 176.737C234.134 176.035 233.577 175.202 233.197 174.285C232.817 173.367 232.621 172.384 232.621 171.392C232.62 170.398 232.815 169.415 233.194 168.497C233.574 167.579 234.13 166.745 234.833 166.043C235.535 165.341 236.369 164.784 237.287 164.404C238.205 164.025 239.188 163.83 240.181 163.832H279.801C280.794 163.832 281.776 164.027 282.693 164.407C283.61 164.787 284.442 165.344 285.144 166.046C285.845 166.749 286.401 167.582 286.779 168.499C287.158 169.416 287.353 170.399 287.351 171.392C287.351 173.395 286.556 175.316 285.141 176.734C283.725 178.151 281.805 178.949 279.801 178.952Z" fill="#1D3C45"/>
<path d="M78.6388 214.171H133.575C133.575 244.305 108.788 269.107 78.6388 269.107C48.49 269.107 23.7024 244.32 23.7024 214.171C23.7024 184.022 48.49 159.234 78.6388 159.234V214.171Z" fill="#1D3C45"/>
<path d="M85.4589 207.372L85.2111 147.251H85.4589C118.341 147.251 145.438 174.227 145.587 207.11L85.4589 207.372Z" fill="#5295FE"/>
<g opacity="0.7">
<path d="M185.501 282.056C185.197 280.876 184.728 279.746 184.109 278.696L185.525 276.563L183.553 274.592L181.582 272.62L179.456 274.063C178.407 273.437 177.275 272.962 176.093 272.651L175.588 270.14H170.024L169.52 272.651C168.338 272.962 167.205 273.437 166.156 274.063L164.023 272.644L162.051 274.615L160.08 276.587L161.499 278.72C160.879 279.769 160.409 280.9 160.103 282.08L157.595 282.584V288.128L160.111 288.653C160.417 289.826 160.886 290.95 161.503 291.993L160.083 294.13L162.055 296.102L164.027 298.073L166.16 296.654C167.211 297.272 168.343 297.742 169.523 298.05L170.028 300.557H175.596L176.093 298.042C177.272 297.734 178.403 297.265 179.452 296.646L181.586 298.065L183.557 296.094L185.529 294.122L184.113 291.985C184.729 290.944 185.196 289.823 185.501 288.653L188.013 288.148V282.561L185.501 282.056ZM172.808 295.1C170.879 295.101 168.992 294.529 167.387 293.458C165.782 292.386 164.531 290.863 163.792 289.081C163.054 287.298 162.86 285.336 163.236 283.444C163.612 281.551 164.541 279.813 165.905 278.448C167.269 277.083 169.007 276.154 170.9 275.777C172.792 275.4 174.754 275.593 176.537 276.331C178.319 277.07 179.843 278.32 180.915 279.924C181.987 281.529 182.56 283.415 182.56 285.345C182.56 287.931 181.532 290.412 179.704 292.241C177.875 294.071 175.395 295.099 172.808 295.1Z" fill="#1D3C45"/>
<path d="M189.299 305.731C189.158 305.19 188.943 304.671 188.66 304.189L189.31 303.211L188.407 302.308L187.504 301.405L186.527 302.06C186.046 301.776 185.529 301.561 184.989 301.421L184.756 300.27H182.205L181.972 301.421C181.431 301.561 180.912 301.776 180.43 302.06L179.452 301.409L178.549 302.312L177.647 303.215L178.297 304.193C178.014 304.675 177.799 305.194 177.658 305.735L176.511 305.967V308.519L177.67 308.763C177.811 309.303 178.026 309.821 178.309 310.301L177.658 311.279L178.561 312.182L179.464 313.085L180.442 312.434C180.924 312.718 181.443 312.933 181.984 313.073L182.217 314.224H184.768L185.001 313.073C185.541 312.933 186.058 312.718 186.538 312.434L187.516 313.085L188.419 312.182L189.322 311.279L188.672 310.301C188.955 309.821 189.17 309.303 189.31 308.763L190.462 308.531V305.964L189.299 305.731ZM183.478 311.709C182.594 311.709 181.73 311.446 180.994 310.955C180.259 310.464 179.686 309.765 179.347 308.948C179.009 308.131 178.92 307.232 179.093 306.365C179.265 305.497 179.691 304.701 180.317 304.075C180.942 303.45 181.739 303.024 182.606 302.851C183.474 302.679 184.373 302.768 185.19 303.106C186.007 303.444 186.705 304.018 187.196 304.753C187.688 305.488 187.95 306.353 187.95 307.237C187.95 308.423 187.479 309.56 186.64 310.399C185.802 311.238 184.664 311.709 183.478 311.709Z" fill="#1D3C45"/>
</g>
<g clip-path="url(#clip0_836_4020)">
<path d="M256.85 106.95C256.85 108.617 256.357 110.246 255.431 111.632C254.505 113.018 253.19 114.099 251.65 114.737C250.11 115.375 248.416 115.542 246.781 115.218C245.146 114.893 243.645 114.09 242.466 112.912C241.287 111.734 240.484 110.232 240.159 108.598C239.834 106.963 240 105.269 240.638 103.729C241.276 102.189 242.356 100.873 243.742 99.9467C245.127 99.0206 246.757 98.5264 248.423 98.5264C250.658 98.5264 252.8 99.4137 254.381 100.993C255.961 102.573 256.849 104.716 256.85 106.95Z" fill="#EEF0F7"/>
<path d="M253.913 111.599L253.292 113.83C252.157 114.635 250.84 115.144 249.46 115.313C249.209 115.345 248.956 115.362 248.703 115.371H248.415C248.144 115.371 247.874 115.356 247.609 115.333C247.314 115.305 247.021 115.261 246.731 115.201C245.474 114.948 244.292 114.41 243.276 113.629C243.158 112.892 243.029 112.077 242.916 111.326C243.535 111.095 245.507 110.425 246.751 110.004L246.803 109.987L246.883 109.958L247.093 109.889L247.286 109.823L247.787 109.656H247.813H247.828L249.5 109.78L249.788 109.8H249.874H249.915C250.015 109.826 250.309 109.904 250.695 110.022C251.7 110.33 253.306 110.905 253.913 111.599Z" fill="#D9C7C1"/>
<path d="M248.864 102.767C248.864 102.767 250.879 103.107 250.528 106.247C250.177 109.388 248.418 109.109 248.3 109.106C248.182 109.103 246.518 109.144 246.431 105.303C246.431 105.303 246.405 102.465 248.864 102.767Z" fill="#EEA987"/>
<path d="M249.742 108.193C249.742 108.193 249.673 109.486 249.794 109.768C249.915 110.05 248.184 110.94 247.108 109.926C247.213 109.299 247.263 108.663 247.257 108.026C247.197 107.517 249.742 108.193 249.742 108.193Z" fill="#EEA987"/>
<path d="M250.568 105.358C250.568 105.358 250.793 105.127 250.856 105.358C250.92 105.588 250.499 106.656 250.528 106.705C250.528 106.705 250.485 106.797 250.433 106.745C250.45 106.281 250.495 105.817 250.568 105.358Z" fill="#EEA987"/>
<path d="M246.454 105.274C246.454 105.274 246.241 105.033 246.152 105.274C246.063 105.516 246.385 106.567 246.426 106.63C246.426 106.63 246.495 106.74 246.549 106.691C246.547 106.217 246.515 105.744 246.454 105.274Z" fill="#EEA987"/>
<path d="M250.698 105.093C250.629 105.522 250.562 105.841 250.562 105.841L250.275 106.221C250.286 105.896 250.277 105.57 250.246 105.245C250.246 105.196 250.211 105.107 250.191 105.012C250.157 104.854 250.122 104.672 250.099 104.615C250.076 104.557 248.372 104.039 246.88 104.716C246.88 104.716 246.895 104.845 246.895 105.004C246.895 105.162 246.875 105.358 246.797 105.386C246.653 105.441 246.713 106.374 246.713 106.374L246.48 106.103C246.48 106.103 246.414 105.617 246.348 105.055L246.305 104.655C246.27 104.079 246.325 103.069 247.059 102.467C247.557 102.254 248.349 102.073 249.667 102.467C249.799 102.47 249.928 102.5 250.047 102.557C250.87 103.469 250.698 105.093 250.698 105.093Z" fill="#E8734D"/>
<path d="M247.396 108.686C247.527 108.835 247.692 108.951 247.876 109.025C248.061 109.099 248.26 109.129 248.458 109.112C248.654 109.121 248.85 109.09 249.034 109.021C249.217 108.951 249.385 108.845 249.526 108.709C249.526 108.709 249.175 109.446 248.455 109.437C247.735 109.429 247.396 108.686 247.396 108.686Z" fill="#C78D71"/>
<path d="M246.909 109.953C247.078 110.228 247.304 110.462 247.574 110.639C247.843 110.816 248.148 110.932 248.467 110.978C249.114 111.032 249.673 110.215 249.935 109.826C249.448 109.645 248.929 109.563 248.409 109.584C247.89 109.606 247.38 109.731 246.909 109.953Z" fill="#EEA987"/>
<path d="M249.745 109.515C249.375 109.945 248.942 110.317 248.461 110.617L249.005 111.455L249.929 109.803L249.745 109.515Z" fill="#EDDAD3"/>
<path d="M247.148 109.639C247.507 110.059 247.956 110.394 248.461 110.618L247.865 111.481L246.823 109.981L247.148 109.639Z" fill="#EDDAD3"/>
<path d="M248.461 110.617L248.924 111.334C248.778 111.412 248.615 111.451 248.45 111.448C248.285 111.445 248.123 111.4 247.98 111.317L248.461 110.617Z" fill="#5073AB"/>
<path d="M254.449 111.481C254.371 111.769 254.25 112.189 253.934 113.341C253.836 113.424 253.738 113.505 253.646 113.583C253.554 113.66 253.418 113.758 253.3 113.845C252.166 114.649 250.849 115.159 249.469 115.327C249.592 112.411 249.938 109.826 249.938 109.826C250.211 109.898 250.47 109.967 250.715 110.039C251.957 110.36 253.161 110.815 254.305 111.395C254.394 111.438 254.449 111.481 254.449 111.481Z" fill="#323657"/>
<path d="M246.739 115.206C245.111 114.874 243.617 114.066 242.447 112.886L242.303 112.728C242.156 112.103 242.058 111.694 242.053 111.665C242.053 111.665 243.095 110.98 246.783 109.996C246.771 110.082 246.774 112.448 246.739 115.206Z" fill="#323657"/>
<path d="M248.729 111.412C248.694 112.181 248.688 113.672 248.703 115.37H248.415C248.144 115.37 247.873 115.356 247.609 115.333C247.697 114.012 247.887 112.701 248.176 111.409C248.216 111.239 248.242 111.156 248.242 111.156L248.737 111.236C248.731 111.291 248.731 111.349 248.729 111.412Z" fill="#5073AB"/>
<path d="M254.875 112.371C254.587 112.714 254.272 113.033 253.934 113.327C253.836 113.41 253.738 113.491 253.646 113.568L254.449 111.481C254.648 111.634 254.809 112.207 254.875 112.371Z" fill="#323657"/>
<path d="M242.447 112.886L242.303 112.728C242.116 112.529 241.937 112.319 241.771 112.103C241.825 111.934 241.925 111.782 242.058 111.665L242.447 112.886Z" fill="#323657"/>
</g>
<path d="M47.4865 334.501L47.2843 332.912C47.7396 332.854 48.1816 332.733 48.5991 332.548L49.2432 334.014C48.6841 334.259 48.0928 334.422 47.4865 334.499V334.501ZM45.6617 334.465C45.0591 334.367 44.4754 334.18 43.922 333.913L44.6228 332.472C45.0346 332.674 45.4728 332.812 45.9205 332.886L45.6636 334.465H45.6617ZM50.7922 333.045L49.7552 331.826C50.1027 331.531 50.4069 331.186 50.66 330.8L51.9974 331.679C51.6612 332.191 51.2569 332.65 50.7922 333.045ZM42.4126 332.886C41.9612 332.474 41.572 331.998 41.2585 331.475L42.6318 330.649C42.8679 331.042 43.1569 331.397 43.495 331.707L42.4126 332.886ZM52.7662 330.02L51.2323 329.563C51.3608 329.129 51.4269 328.675 51.4269 328.214H53.0269C53.0269 328.83 52.9381 329.437 52.7643 330.02H52.7662ZM40.5539 329.79C40.4235 329.28 40.3574 328.751 40.3574 328.216L40.3612 327.978L41.9612 328.031L41.9574 328.216C41.9574 328.617 42.0065 329.013 42.1047 329.393L40.5539 329.79ZM51.3211 327.213C51.2248 326.766 51.0623 326.337 50.8432 325.938L52.2448 325.166C52.5395 325.7 52.7549 326.274 52.8852 326.875L51.3211 327.213ZM42.2067 326.694L40.6899 326.178C40.8845 325.602 41.164 325.056 41.5192 324.554L42.8282 325.475C42.5619 325.853 42.3522 326.263 42.2067 326.694ZM50.0215 324.848C49.6947 324.527 49.3264 324.253 48.924 324.038L49.6796 322.629C50.218 322.916 50.7129 323.28 51.1474 323.711L50.0215 324.848ZM43.7708 324.491L42.7791 323.235C43.2589 322.857 43.7935 322.549 44.3621 322.325L44.9514 323.813C44.5264 323.981 44.1278 324.21 43.7689 324.493L43.7708 324.491ZM47.6395 323.577C47.2012 323.484 46.7309 323.458 46.2794 323.499L46.1377 321.905C46.7441 321.854 47.3694 321.886 47.9606 322.007L47.6395 323.577Z" fill="#3D95D1"/>
<g opacity="0.8">
<path d="M569.611 307.761H460.961V433.431H569.611V307.761Z" fill="#E2E2E2"/>
<path d="M561.241 315.021H469.321V347.661H561.241V315.021Z" stroke="#839ECC" stroke-miterlimit="10"/>
<path d="M527.081 339.292H503.491V342.292H527.081V339.292Z" fill="#839ECC"/>
<path d="M561.241 353.042H469.321V385.681H561.241V353.042Z" stroke="#839ECC" stroke-miterlimit="10"/>
<path d="M527.081 377.312H503.491V380.312H527.081V377.312Z" fill="#839ECC"/>
<path d="M561.241 391.072H469.321V423.712H561.241V391.072Z" stroke="#839ECC" stroke-miterlimit="10"/>
<path d="M527.081 415.332H503.491V418.332H527.081V415.332Z" fill="#839ECC"/>
<path d="M483.831 433.432H469.321V437.192H483.831V433.432Z" fill="#839ECC"/>
<path d="M561.241 433.432H546.731V437.192H561.241V433.432Z" fill="#839ECC"/>
</g>
<path d="M515.074 281.023C515.074 281.023 511.751 278.732 511.413 277.752C510.946 276.4 511.991 275.327 512.994 276.313C513.997 277.299 514.184 277.928 515.075 281.022L515.074 281.023Z" fill="#1D3C45"/>
<path d="M512.23 276.693C512.23 276.693 513.407 278.051 515.06 280.979C515.06 280.979 512.399 277.206 512.23 276.693Z" fill="#1D3C45"/>
<path d="M527.64 251.357C527.64 251.357 525.384 248.01 525.428 246.974C525.487 245.545 526.852 244.928 527.425 246.213C527.998 247.498 527.941 248.15 527.64 251.357Z" fill="#35A476"/>
<path d="M526.576 246.286C526.576 246.286 527.175 247.98 527.644 251.309C527.644 251.309 526.547 246.826 526.576 246.286Z" fill="#35A476"/>
<path d="M524.114 257.596C524.114 257.596 520.791 255.305 520.454 254.325C519.986 252.972 521.032 251.9 522.035 252.886C523.038 253.871 523.224 254.5 524.115 257.595L524.114 257.596Z" fill="#35A476"/>
<path d="M521.272 253.264C521.272 253.264 522.449 254.622 524.102 257.549C524.102 257.549 521.441 253.776 521.272 253.264Z" fill="#35A476"/>
<path d="M524.551 256.526C524.551 256.526 528.585 256.408 529.402 255.771C530.529 254.889 530.235 253.421 528.857 253.704C527.48 253.987 526.982 254.413 524.552 256.527L524.551 256.526Z" fill="#35A476"/>
<path d="M529.29 254.436C529.29 254.436 527.564 254.936 524.586 256.495C524.586 256.495 528.868 254.774 529.29 254.436Z" fill="#35A476"/>
<path d="M521.386 262.942C521.386 262.942 525.42 262.824 526.237 262.186C527.364 261.305 527.07 259.837 525.692 260.12C524.314 260.403 523.817 260.828 521.386 262.943V262.942Z" fill="#35A476"/>
<path d="M526.127 260.851C526.127 260.851 524.401 261.351 521.422 262.91C521.422 262.91 525.706 261.189 526.127 260.851Z" fill="#35A476"/>
<path d="M518.143 270.855C518.143 270.855 522.166 271.179 523.047 270.635C524.263 269.882 524.132 268.39 522.732 268.521C521.331 268.652 520.79 269.02 518.144 270.855H518.143Z" fill="#35A476"/>
<path d="M523.083 269.296C523.083 269.296 521.312 269.604 518.181 270.829C518.181 270.829 522.627 269.587 523.083 269.296Z" fill="#35A476"/>
<path d="M515.5 278.914C515.5 278.914 519.523 279.238 520.405 278.693C521.621 277.941 521.489 276.448 520.089 276.579C518.689 276.709 518.148 277.079 515.501 278.914H515.5Z" fill="#35A476"/>
<path d="M520.44 277.354C520.44 277.354 518.67 277.663 515.539 278.887C515.539 278.887 519.985 277.646 520.44 277.354Z" fill="#35A476"/>
<path d="M528.217 250.291C528.217 250.291 532.251 250.174 533.068 249.536C534.194 248.655 533.9 247.187 532.523 247.47C531.145 247.753 530.648 248.179 528.218 250.292L528.217 250.291Z" fill="#35A476"/>
<path d="M532.956 248.201C532.956 248.201 531.23 248.701 528.251 250.26C528.251 250.26 532.535 248.54 532.956 248.201Z" fill="#35A476"/>
<path d="M532.302 244.492C532.302 244.492 536.336 244.374 537.152 243.737C538.279 242.856 537.985 241.387 536.608 241.67C535.23 241.953 534.732 242.379 532.302 244.493V244.492Z" fill="#35A476"/>
<path d="M537.041 242.401C537.041 242.401 535.315 242.902 532.336 244.461C532.336 244.461 536.62 242.74 537.041 242.401Z" fill="#35A476"/>
<path d="M537.107 238.236C537.107 238.236 541.141 238.118 541.958 237.48C543.085 236.599 542.791 235.131 541.413 235.414C540.035 235.697 539.538 236.123 537.108 238.237L537.107 238.236Z" fill="#35A476"/>
<path d="M541.846 236.146C541.846 236.146 540.12 236.647 537.141 238.206C537.141 238.206 541.425 236.485 541.846 236.146Z" fill="#35A476"/>
<path d="M541.934 233.306C541.934 233.306 545.339 234.108 546.165 233.755C547.305 233.269 547.386 231.973 546.17 231.902C544.952 231.832 544.442 232.078 541.934 233.305V233.306Z" fill="#35A476"/>
<path d="M546.371 232.613C546.371 232.613 544.814 232.648 541.971 233.288C541.971 233.288 545.942 232.803 546.371 232.613Z" fill="#35A476"/>
<path d="M545.434 230.28C545.434 230.28 548.9 229.801 549.543 229.175C550.431 228.31 550.041 227.072 548.879 227.445C547.718 227.817 547.331 228.231 545.434 230.28Z" fill="#35A476"/>
<path d="M549.323 228.035C549.323 228.035 547.883 228.628 545.463 230.25C545.463 230.25 548.993 228.366 549.323 228.035Z" fill="#35A476"/>
<path d="M520.609 265.003C520.609 265.003 517.286 262.712 516.949 261.732C516.481 260.379 517.527 259.307 518.53 260.293C519.533 261.279 519.719 261.907 520.61 265.002L520.609 265.003Z" fill="#35A476"/>
<path d="M517.767 260.672C517.767 260.672 518.944 262.03 520.597 264.957C520.597 264.957 517.936 261.184 517.767 260.672Z" fill="#35A476"/>
<path d="M517.73 272.024C517.73 272.024 514.406 269.733 514.068 268.753C513.601 267.401 514.646 266.328 515.649 267.314C516.652 268.3 516.838 268.929 517.73 272.023V272.024Z" fill="#35A476"/>
<path d="M514.888 267.693C514.888 267.693 516.065 269.051 517.718 271.979C517.718 271.979 515.057 268.206 514.888 267.693Z" fill="#35A476"/>
<path d="M531.726 245.184C531.726 245.184 529.471 241.837 529.514 240.801C529.573 239.372 530.938 238.755 531.511 240.04C532.084 241.325 532.029 241.977 531.726 245.184Z" fill="#35A476"/>
<path d="M530.662 240.113C530.662 240.113 531.261 241.808 531.731 245.136C531.731 245.136 530.633 240.653 530.662 240.113Z" fill="#35A476"/>
<path d="M536.75 239.264C536.75 239.264 534.494 235.916 534.537 234.881C534.597 233.452 535.961 232.835 536.534 234.12C537.107 235.405 537.052 236.056 536.75 239.264Z" fill="#35A476"/>
<path d="M535.686 234.193C535.686 234.193 536.285 235.888 536.754 239.216C536.754 239.216 535.656 234.733 535.686 234.193Z" fill="#35A476"/>
<path d="M541.213 234.093C541.213 234.093 539.321 231.285 539.357 230.416C539.406 229.217 540.551 228.699 541.033 229.777C541.513 230.855 541.467 231.403 541.214 234.093H541.213Z" fill="#35A476"/>
<path d="M540.32 229.839C540.32 229.839 540.823 231.26 541.216 234.054C541.216 234.054 540.295 230.292 540.32 229.839Z" fill="#35A476"/>
<path d="M511.614 299.758C511.621 299.648 512.408 288.659 516.981 274.658C521.201 261.738 529.601 243.537 545.653 230.205L545.58 230.118C538.483 236.013 532.274 243.342 527.127 251.901C523.011 258.749 519.561 266.393 516.872 274.625C512.295 288.638 511.508 299.64 511.5 299.749L511.614 299.757V299.758Z" fill="#35A476"/>
<path d="M521.822 280.108C521.822 280.108 518.67 276.219 518.61 274.935C518.528 273.163 520.147 272.251 520.995 273.776C521.843 275.301 521.845 276.112 521.823 280.107L521.822 280.108Z" fill="#337DA8"/>
<path d="M519.955 273.959C519.955 273.959 520.881 275.987 521.823 280.049C521.823 280.049 519.977 274.629 519.955 273.959Z" fill="#265E7E"/>
<path d="M547.16 249.203C547.16 249.203 545.647 244.431 546.06 243.214C546.631 241.535 548.471 241.278 548.703 243.007C548.936 244.736 548.641 245.492 547.16 249.203Z" fill="#337DA8"/>
<path d="M547.669 242.798C547.669 242.798 547.79 245.024 547.181 249.149C547.181 249.149 547.444 243.43 547.669 242.798Z" fill="#265E7E"/>
<path d="M540.781 255.393C540.781 255.393 537.629 251.504 537.569 250.22C537.486 248.448 539.105 247.536 539.953 249.061C540.801 250.586 540.803 251.397 540.781 255.392V255.393Z" fill="#337DA8"/>
<path d="M538.914 249.244C538.914 249.244 539.839 251.272 540.782 255.333C540.782 255.333 538.936 249.914 538.914 249.244Z" fill="#265E7E"/>
<path d="M541.67 254.272C541.67 254.272 546.512 255.544 547.706 255.071C549.356 254.416 549.52 252.566 547.781 252.42C546.042 252.275 545.302 252.608 541.67 254.272Z" fill="#337DA8"/>
<path d="M548.042 253.444C548.042 253.444 545.813 253.435 541.723 254.248C541.723 254.248 547.422 253.699 548.042 253.444Z" fill="#265E7E"/>
<path d="M535.659 260.799C535.659 260.799 540.501 262.071 541.695 261.598C543.345 260.943 543.509 259.093 541.77 258.948C540.032 258.802 539.291 259.135 535.659 260.8V260.799Z" fill="#337DA8"/>
<path d="M542.031 259.97C542.031 259.97 539.802 259.961 535.712 260.774C535.712 260.774 541.411 260.225 542.031 259.97Z" fill="#265E7E"/>
<path d="M529.034 269.081C529.034 269.081 533.708 270.875 534.946 270.535C536.657 270.065 537.023 268.244 535.311 267.909C533.599 267.573 532.826 267.823 529.034 269.081Z" fill="#337DA8"/>
<path d="M535.46 268.955C535.46 268.955 533.245 268.702 529.091 269.062C529.091 269.062 534.816 269.141 535.46 268.955Z" fill="#265E7E"/>
<path d="M523.068 277.746C523.068 277.746 527.741 279.541 528.98 279.201C530.691 278.73 531.056 276.91 529.344 276.574C527.633 276.24 526.859 276.489 523.068 277.746Z" fill="#337DA8"/>
<path d="M529.493 277.62C529.493 277.62 527.279 277.367 523.125 277.728C523.125 277.728 528.85 277.806 529.493 277.62Z" fill="#265E7E"/>
<path d="M548.219 248.137C548.219 248.137 553.061 249.409 554.255 248.936C555.904 248.282 556.069 246.431 554.33 246.286C552.592 246.14 551.851 246.473 548.219 248.138V248.137Z" fill="#337DA8"/>
<path d="M554.591 247.308C554.591 247.308 552.362 247.299 548.272 248.112C548.272 248.112 553.971 247.563 554.591 247.308Z" fill="#265E7E"/>
<path d="M555.11 242.666C555.11 242.666 559.951 243.938 561.146 243.464C562.794 242.81 562.959 240.96 561.22 240.815C559.482 240.669 558.741 241.001 555.11 242.667V242.666Z" fill="#337DA8"/>
<path d="M561.481 241.837C561.481 241.837 559.252 241.828 555.162 242.641C555.162 242.641 560.861 242.092 561.481 241.837Z" fill="#265E7E"/>
<path d="M563.015 236.904C563.015 236.904 567.857 238.176 569.052 237.703C570.701 237.048 570.865 235.198 569.126 235.052C567.388 234.906 566.647 235.238 563.015 236.904Z" fill="#337DA8"/>
<path d="M569.387 236.075C569.387 236.075 567.158 236.066 563.068 236.88C563.068 236.88 568.767 236.331 569.387 236.075Z" fill="#265E7E"/>
<path d="M570.487 232.726C570.487 232.726 574.259 234.872 575.364 234.741C576.891 234.561 577.442 233.048 576.018 232.539C574.594 232.029 573.9 232.142 570.487 232.726Z" fill="#337DA8"/>
<path d="M576.009 233.454C576.009 233.454 574.144 232.95 570.538 232.718C570.538 232.718 575.433 233.531 576.009 233.454Z" fill="#265E7E"/>
<path d="M575.71 230.35C575.71 230.35 580.001 230.993 580.985 230.472C582.345 229.754 582.313 228.144 580.801 228.182C579.29 228.22 578.682 228.576 575.71 230.35Z" fill="#337DA8"/>
<path d="M581.123 229.039C581.123 229.039 579.201 229.241 575.754 230.324C575.754 230.324 580.613 229.317 581.123 229.039Z" fill="#265E7E"/>
<path d="M534.012 262.98C534.012 262.98 530.86 259.091 530.801 257.807C530.718 256.034 532.338 255.123 533.186 256.648C534.033 258.172 534.035 258.984 534.013 262.98H534.012Z" fill="#337DA8"/>
<path d="M532.146 256.832C532.146 256.832 533.071 258.86 534.014 262.922C534.014 262.922 532.168 257.502 532.146 256.832Z" fill="#265E7E"/>
<path d="M528.136 270.328C528.136 270.328 524.984 266.439 524.924 265.155C524.841 263.382 526.459 262.471 527.308 263.996C528.156 265.52 528.158 266.332 528.136 270.327V270.328Z" fill="#337DA8"/>
<path d="M526.269 264.178C526.269 264.178 527.194 266.207 528.137 270.268C528.137 270.268 526.291 264.848 526.269 264.178Z" fill="#265E7E"/>
<path d="M554.184 243.288C554.184 243.288 552.672 238.516 553.085 237.3C553.656 235.62 555.496 235.363 555.728 237.092C555.961 238.821 555.666 239.577 554.184 243.288Z" fill="#337DA8"/>
<path d="M554.693 236.883C554.693 236.883 554.813 239.109 554.206 243.234C554.206 243.234 554.469 237.514 554.693 236.883Z" fill="#265E7E"/>
<path d="M562.23 238C562.23 238 560.718 233.227 561.131 232.011C561.702 230.331 563.541 230.074 563.774 231.804C564.007 233.533 563.712 234.289 562.23 238Z" fill="#337DA8"/>
<path d="M562.738 231.594C562.738 231.594 562.859 233.821 562.25 237.946C562.25 237.946 562.513 232.226 562.738 231.594Z" fill="#265E7E"/>
<path d="M569.353 233.409C569.353 233.409 568.084 229.406 568.43 228.385C568.91 226.977 570.452 226.761 570.648 228.211C570.842 229.661 570.595 230.297 569.353 233.409Z" fill="#337DA8"/>
<path d="M569.78 228.035C569.78 228.035 569.881 229.902 569.371 233.363C569.371 233.363 569.592 228.564 569.78 228.035Z" fill="#265E7E"/>
<path d="M511.149 301.187C511.197 301.059 515.978 288.259 526.32 273.197C535.863 259.301 552.228 240.583 575.994 230.335L575.938 230.205C565.43 234.736 555.478 241.286 546.358 249.669C539.063 256.376 532.282 264.266 526.203 273.119C515.851 288.194 511.066 301.009 511.018 301.137L511.15 301.186L511.149 301.187Z" fill="#265E7E"/>
<path d="M520.391 290.369C520.391 290.369 519.354 287.791 519.533 287.1C519.778 286.146 520.786 285.928 520.987 286.875C521.187 287.823 521.055 288.254 520.391 290.369Z" fill="#1D3C45"/>
<path d="M520.405 286.802C520.405 286.802 520.564 288.029 520.4 290.337C520.4 290.337 520.308 287.16 520.405 286.802Z" fill="#1D3C45"/>
<path d="M538.883 278.119C538.883 278.119 538.861 275.34 539.28 274.762C539.857 273.965 540.875 274.13 540.716 275.085C540.557 276.039 540.276 276.393 538.884 278.119H538.883Z" fill="#35A476"/>
<path d="M540.2 274.803C540.2 274.803 539.9 276.004 538.903 278.092C538.903 278.092 539.977 275.102 540.2 274.803Z" fill="#35A476"/>
<path d="M534.49 280.36C534.49 280.36 533.454 277.781 533.632 277.091C533.878 276.137 534.886 275.919 535.087 276.866C535.287 277.814 535.155 278.245 534.49 280.36Z" fill="#35A476"/>
<path d="M534.505 276.793C534.505 276.793 534.664 278.02 534.5 280.328C534.5 280.328 534.407 277.151 534.505 276.793Z" fill="#35A476"/>
<path d="M535.146 279.91C535.146 279.91 537.506 281.376 538.217 281.321C539.199 281.243 539.589 280.289 538.69 279.927C537.792 279.566 537.345 279.621 535.146 279.91Z" fill="#35A476"/>
<path d="M538.662 280.513C538.662 280.513 537.48 280.144 535.178 279.906C535.178 279.906 538.291 280.547 538.662 280.513Z" fill="#35A476"/>
<path d="M530.89 282.389C530.89 282.389 533.25 283.855 533.961 283.8C534.943 283.722 535.333 282.767 534.434 282.406C533.536 282.044 533.089 282.1 530.89 282.389Z" fill="#35A476"/>
<path d="M534.406 282.992C534.406 282.992 533.224 282.623 530.922 282.385C530.922 282.385 534.035 283.026 534.406 282.992Z" fill="#35A476"/>
<path d="M526.02 285.699C526.02 285.699 528.205 287.415 528.918 287.437C529.902 287.468 530.394 286.561 529.54 286.104C528.687 285.647 528.236 285.652 526.019 285.699H526.02Z" fill="#35A476"/>
<path d="M529.449 286.683C529.449 286.683 528.315 286.186 526.053 285.699C526.053 285.699 529.077 286.677 529.449 286.683Z" fill="#35A476"/>
<path d="M521.438 289.32C521.438 289.32 523.623 291.036 524.336 291.058C525.32 291.088 525.813 290.182 524.959 289.724C524.106 289.267 523.655 289.272 521.437 289.32H521.438Z" fill="#35A476"/>
<path d="M524.868 290.303C524.868 290.303 523.735 289.807 521.473 289.319C521.473 289.319 524.497 290.297 524.868 290.303Z" fill="#35A476"/>
<path d="M539.621 277.727C539.621 277.727 541.981 279.194 542.692 279.138C543.674 279.061 544.064 278.106 543.166 277.744C542.267 277.383 541.82 277.438 539.621 277.727Z" fill="#35A476"/>
<path d="M543.137 278.33C543.137 278.33 541.956 277.96 539.654 277.722C539.654 277.722 542.766 278.364 543.137 278.33Z" fill="#35A476"/>
<path d="M544.169 275.951C544.169 275.951 546.53 277.417 547.241 277.362C548.222 277.284 548.612 276.33 547.714 275.968C546.816 275.607 546.368 275.662 544.169 275.951Z" fill="#35A476"/>
<path d="M547.685 276.554C547.685 276.554 546.504 276.185 544.202 275.947C544.202 275.947 547.315 276.589 547.685 276.554Z" fill="#35A476"/>
<path d="M549.308 274.189C549.308 274.189 551.668 275.655 552.379 275.6C553.361 275.522 553.751 274.567 552.853 274.206C551.954 273.844 551.507 273.9 549.308 274.189Z" fill="#35A476"/>
<path d="M552.824 274.791C552.824 274.791 551.643 274.421 549.34 274.184C549.34 274.184 552.453 274.825 552.824 274.791Z" fill="#35A476"/>
<path d="M553.953 273.194C553.953 273.194 555.603 274.949 556.211 275.06C557.051 275.214 557.59 274.502 556.918 273.999C556.247 273.495 555.86 273.442 553.953 273.194Z" fill="#35A476"/>
<path d="M556.764 274.482C556.764 274.482 555.858 273.909 553.983 273.197C553.983 273.197 556.447 274.429 556.764 274.482Z" fill="#35A476"/>
<path d="M557.112 272.787C557.112 272.787 559.283 273.829 559.891 273.715C560.73 273.556 560.975 272.697 560.168 272.47C559.36 272.242 558.979 272.332 557.112 272.787Z" fill="#35A476"/>
<path d="M560.198 272.977C560.198 272.977 559.146 272.77 557.14 272.781C557.14 272.781 559.882 273.042 560.198 272.977Z" fill="#35A476"/>
<path d="M529.66 283.278C529.66 283.278 528.624 280.7 528.802 280.009C529.048 279.055 530.056 278.836 530.257 279.784C530.457 280.732 530.325 281.163 529.66 283.278Z" fill="#35A476"/>
<path d="M529.675 279.712C529.675 279.712 529.834 280.938 529.67 283.248C529.67 283.248 529.577 280.07 529.675 279.712Z" fill="#35A476"/>
<path d="M525.339 286.213C525.339 286.213 524.303 283.634 524.481 282.944C524.727 281.991 525.735 281.772 525.935 282.72C526.136 283.668 526.004 284.099 525.339 286.214V286.213Z" fill="#35A476"/>
<path d="M525.354 282.646C525.354 282.646 525.513 283.873 525.349 286.181C525.349 286.181 525.256 283.004 525.354 282.646Z" fill="#35A476"/>
<path d="M543.579 276.131C543.579 276.131 543.556 273.352 543.974 272.774C544.551 271.977 545.569 272.142 545.41 273.096C545.251 274.052 544.971 274.405 543.579 276.131Z" fill="#35A476"/>
<path d="M544.896 272.815C544.896 272.815 544.595 274.016 543.599 276.104C543.599 276.104 544.673 273.114 544.896 272.815Z" fill="#35A476"/>
<path d="M548.71 274.641C548.71 274.641 548.688 271.862 549.107 271.284C549.684 270.487 550.702 270.652 550.543 271.607C550.384 272.561 550.103 272.915 548.711 274.641H548.71Z" fill="#35A476"/>
<path d="M550.027 271.327C550.027 271.327 549.727 272.527 548.73 274.616C548.73 274.616 549.804 271.625 550.027 271.327Z" fill="#35A476"/>
<path d="M553.241 273.371C553.241 273.371 553.223 271.039 553.573 270.555C554.057 269.885 554.911 270.024 554.777 270.826C554.643 271.627 554.409 271.923 553.241 273.372V273.371Z" fill="#35A476"/>
<path d="M554.345 270.59C554.345 270.59 554.093 271.597 553.258 273.349C553.258 273.349 554.159 270.84 554.345 270.59Z" fill="#35A476"/>
<path d="M511.283 299.805C511.328 299.745 515.958 293.737 523.907 287.439C531.242 281.628 542.983 274.376 557.265 272.827L557.257 272.749C550.942 273.434 544.591 275.28 538.383 278.236C533.416 280.6 528.529 283.677 523.857 287.378C515.901 293.681 511.267 299.698 511.22 299.757L511.283 299.805Z" fill="#35A476"/>
<path opacity="0.2" d="M518.092 295.885V245.362C514.464 244.147 510.556 243.48 506.481 243.48C487.452 243.48 472.027 257.914 472.027 275.72C472.027 286.888 478.097 296.729 487.318 302.515H511.464C515.126 302.515 518.093 299.547 518.093 295.885H518.092Z" fill="#1D3C45"/>
<path d="M509.649 307.96C528.332 307.96 543.477 292.815 543.477 274.133C543.477 255.451 528.332 240.306 509.649 240.306C490.967 240.306 475.822 255.451 475.822 274.133C475.822 292.815 490.967 307.96 509.649 307.96Z" fill="#3D95D1"/>
<path d="M509.649 240.304C490.967 240.304 475.822 255.449 475.822 274.133C475.822 292.816 490.967 307.96 509.649 307.96C528.332 307.96 543.478 292.815 543.478 274.133C543.478 255.45 528.333 240.304 509.649 240.304ZM509.649 306.861C491.573 306.861 476.92 292.208 476.92 274.132C476.92 256.055 491.573 241.402 509.649 241.402C527.726 241.402 542.379 256.055 542.379 274.132C542.379 292.208 527.726 306.861 509.649 306.861Z" fill="#64AADA"/>
<path d="M529.816 294.297C540.952 283.16 540.952 265.104 529.816 253.967C518.679 242.831 500.623 242.831 489.486 253.967C478.349 265.104 478.349 283.16 489.486 294.297C500.623 305.433 518.679 305.433 529.816 294.297Z" fill="#E9F5FC"/>
<path opacity="0.15" d="M538.167 274.133C538.167 258.384 525.4 245.616 509.65 245.616C501.585 245.616 494.307 248.969 489.121 254.352C494.248 249.41 501.217 246.365 508.902 246.365C524.651 246.365 537.419 259.132 537.419 274.882C537.419 282.566 534.374 289.536 529.432 294.663C534.815 289.476 538.168 282.198 538.168 274.134L538.167 274.133Z" fill="#1D3C45"/>
<path opacity="0.3" d="M511.494 274.472H507.806V255.962C507.806 254.944 508.632 254.118 509.65 254.118C510.668 254.118 511.494 254.944 511.494 255.962V274.472Z" fill="#1D3C45"/>
<path d="M511.801 273.802H508.114V255.292C508.114 254.274 508.94 253.448 509.958 253.448C510.976 253.448 511.802 254.274 511.802 255.292V273.802H511.801Z" fill="#1D3C45"/>
<path opacity="0.4" d="M511.802 255.292C511.802 254.274 510.976 253.448 509.958 253.448C509.368 253.448 508.848 253.73 508.511 254.162C508.835 253.877 509.256 253.698 509.722 253.698C510.74 253.698 511.566 254.524 511.566 255.542V273.802H511.801V255.292H511.802Z" fill="#3D95D1"/>
<path opacity="0.3" d="M524.04 285.197L510.884 272.041L510.507 272.418L507.108 275.817L520.264 288.973C520.908 289.618 521.801 289.861 522.634 289.709C522.685 289.7 522.733 289.683 522.782 289.671C522.884 289.647 522.984 289.619 523.082 289.582C523.14 289.561 523.194 289.536 523.25 289.511C523.344 289.469 523.437 289.419 523.528 289.365C523.573 289.338 523.619 289.311 523.664 289.281C523.795 289.191 523.922 289.091 524.04 288.974C525.082 287.932 525.082 286.241 524.04 285.198V285.197Z" fill="#1D3C45"/>
<path d="M507.352 275.539L511.128 271.763L524.284 284.919C525.327 285.961 525.327 287.652 524.284 288.695C523.242 289.738 521.551 289.738 520.508 288.695L507.352 275.539Z" fill="#1D3C45"/>
<path opacity="0.4" d="M524.283 284.919L511.127 271.763L510.75 272.141L523.706 285.097C524.748 286.139 524.748 287.83 523.706 288.873C523.46 289.119 523.177 289.301 522.877 289.431C523.392 289.338 523.885 289.094 524.283 288.695C525.325 287.653 525.325 285.962 524.283 284.919Z" fill="#3D95D1"/>
<path opacity="0.3" d="M488.735 286.449C488.618 286.449 488.505 286.388 488.444 286.28C488.352 286.118 488.409 285.915 488.57 285.823L509.392 273.989C509.552 273.896 509.757 273.953 509.848 274.115C509.94 274.276 509.884 274.479 509.722 274.571L488.9 286.405C488.848 286.436 488.79 286.45 488.735 286.45V286.449Z" fill="#1D3C45"/>
<path d="M488.649 286.348C488.532 286.348 488.419 286.288 488.358 286.179C488.266 286.018 488.322 285.813 488.483 285.723L509.381 273.842C509.542 273.749 509.746 273.806 509.838 273.968C509.929 274.129 509.873 274.332 509.712 274.424L488.814 286.305C488.761 286.335 488.705 286.348 488.649 286.348Z" fill="#333333"/>
<path opacity="0.3" d="M509.545 268.832C506.529 268.832 504.076 271.285 504.076 274.301C504.076 277.317 506.529 279.77 509.545 279.77C512.561 279.77 515.014 277.317 515.014 274.301C515.014 271.285 512.561 268.832 509.545 268.832ZM513.507 271.035C512.775 270.148 511.75 269.51 510.579 269.271C511.749 269.51 512.774 270.147 513.507 271.035ZM513.507 277.567C512.775 278.454 511.75 279.091 510.579 279.331C511.749 279.091 512.774 278.455 513.507 277.567Z" fill="#1D3C45"/>
<path d="M509.544 279.1C512.38 279.1 514.678 276.801 514.678 273.966C514.678 271.13 512.38 268.832 509.544 268.832C506.709 268.832 504.41 271.13 504.41 273.966C504.41 276.801 506.709 279.1 509.544 279.1Z" fill="#FAA634"/>
<path d="M509.545 268.832C512.381 268.832 514.679 271.131 514.679 273.966C514.679 276.8 512.38 279.099 509.545 279.099C506.71 279.099 504.411 276.8 504.411 273.966C504.411 271.131 506.71 268.832 509.545 268.832ZM509.545 268.496C506.529 268.496 504.076 270.949 504.076 273.966C504.076 276.982 506.529 279.435 509.545 279.435C512.561 279.435 515.014 276.982 515.014 273.966C515.014 270.949 512.561 268.496 509.545 268.496Z" fill="#FBB85D"/>
<path style="mix-blend-mode:screen" opacity="0.5" d="M509.545 268.832C506.798 268.832 504.561 270.992 504.425 273.706C506.354 272.552 510.434 270.951 514.651 274.507C514.67 274.329 514.68 274.149 514.68 273.966C514.68 271.13 512.381 268.832 509.546 268.832H509.545Z" fill="url(#paint0_linear_836_4020)"/>
<path d="M512.517 274.133C512.517 275.774 511.187 277.103 509.547 277.103C507.906 277.103 506.577 275.774 506.577 274.133C506.577 272.493 507.906 271.164 509.547 271.164C511.187 271.164 512.517 272.493 512.517 274.133Z" fill="white"/>
<path d="M508.982 251.485V247.879H507.708V248.402H508.459V251.485H507.708V252.006H509.734V251.485H508.982Z" fill="#1D3C45"/>
<path d="M510.491 251.485V250.204H512.077C512.222 250.204 512.347 250.152 512.45 250.05C512.554 249.947 512.605 249.822 512.605 249.675V248.403C512.605 248.26 512.553 248.137 512.45 248.035C512.347 247.932 512.223 247.881 512.077 247.881H510.374V248.403H512.077V249.675H510.491C510.348 249.675 510.225 249.727 510.122 249.83C510.019 249.934 509.968 250.058 509.968 250.204V252.007H512.605V251.485H510.491Z" fill="#1D3C45"/>
<path d="M535.692 274.125C535.833 273.984 535.903 273.799 535.903 273.571V272.591C535.903 272.448 535.853 272.325 535.751 272.222C535.65 272.12 535.527 272.068 535.381 272.068H533.657V272.591H535.381V273.602C535.381 273.675 535.354 273.736 535.303 273.787C535.251 273.838 535.19 273.864 535.12 273.864H534.105V274.387H535.114C535.186 274.387 535.248 274.413 535.299 274.466C535.349 274.518 535.376 274.582 535.376 274.654V275.675H533.658V276.197H535.382C535.527 276.197 535.652 276.146 535.755 276.043C535.859 275.94 535.91 275.818 535.91 275.675V274.654C535.91 274.464 535.838 274.288 535.693 274.126L535.692 274.125Z" fill="#1D3C45"/>
<path d="M510.219 298.59C510.168 298.537 510.107 298.51 510.036 298.51H508.195V297.06H508.189V297.17H507.667V300.128C507.667 300.199 507.693 300.26 507.746 300.312C507.799 300.363 507.862 300.389 507.934 300.389H510.031C510.104 300.389 510.166 300.364 510.219 300.313C510.273 300.262 510.299 300.2 510.299 300.127V298.778C510.299 298.705 510.273 298.643 510.221 298.59H510.219ZM509.768 299.866H508.188V299.039H509.768V299.866Z" fill="#1D3C45"/>
<path d="M508.188 296.784H509.912V296.261H508.188C508.043 296.261 507.919 296.313 507.817 296.415C507.715 296.518 507.665 296.641 507.665 296.784V297.06H508.188V296.784Z" fill="#1D3C45"/>
<path d="M508.188 297.06H507.665V297.17H508.188V297.06Z" fill="#1D3C45"/>
<path d="M485.945 272.147C485.893 272.095 485.829 272.07 485.757 272.07H483.66C483.587 272.07 483.525 272.095 483.472 272.146C483.418 272.197 483.392 272.259 483.392 272.331V273.681C483.392 273.753 483.418 273.816 483.47 273.869C483.522 273.922 483.582 273.949 483.653 273.949H485.494V275.399H485.5V275.675H483.776V276.197H485.5C485.645 276.197 485.769 276.146 485.87 276.043C485.972 275.941 486.022 275.818 486.022 275.675V272.331C486.022 272.261 485.996 272.199 485.943 272.148L485.945 272.147ZM483.922 273.419V272.591H485.502V273.419H483.922Z" fill="#1D3C45"/>
<path style="mix-blend-mode:screen" opacity="0.8" d="M509.65 245.616C496.602 245.616 485.609 254.383 482.218 266.344C487.087 270.937 495.883 266.322 507.806 261.838C522.038 256.485 533.207 268.438 537.988 277.297C538.103 276.258 538.167 275.202 538.167 274.132C538.167 258.383 525.4 245.615 509.65 245.615V245.616Z" fill="url(#paint1_linear_836_4020)"/>
<rect x="399.683" y="101.596" width="21.4571" height="10.3312" rx="5.1656" fill="#112E36"/>
<g filter="url(#filter0_dd_836_4020)">
<path fill-rule="evenodd" clip-rule="evenodd" d="M415.685 111.331C418.258 111.331 420.344 109.228 420.344 106.635C420.344 104.042 418.258 101.939 415.685 101.939C413.113 101.939 411.027 104.042 411.027 106.635C411.027 109.228 413.113 111.331 415.685 111.331Z" fill="white"/>
</g>
<path d="M332.748 64.595C345.87 64.595 356.507 53.9577 356.507 40.8361C356.507 27.7144 345.87 17.0771 332.748 17.0771C319.626 17.0771 308.989 27.7144 308.989 40.8361C308.989 53.9577 319.626 64.595 332.748 64.595Z" fill="#35A476" stroke="white" stroke-width="0.651673" stroke-miterlimit="10"/>
<path d="M323.387 44.1937C322.994 44.1937 322.675 43.8753 322.675 43.4824V39.2146C322.675 38.8218 322.994 38.5033 323.387 38.5033C323.78 38.5033 324.098 38.8218 324.098 39.2146V43.4824C324.098 43.8753 323.78 44.1937 323.387 44.1937ZM340.686 50.3678H324.809C323.633 50.3678 322.675 49.4106 322.675 48.2339V47.7503C322.675 47.3574 322.994 47.0389 323.387 47.0389C323.78 47.0389 324.098 47.3574 324.098 47.7503V48.2339C324.098 48.6261 324.417 48.9452 324.809 48.9452H340.686C341.078 48.9452 341.397 48.6261 341.397 48.2339V42.8565C341.397 42.4636 341.715 42.1452 342.108 42.1452C342.501 42.1452 342.819 42.4636 342.819 42.8565V48.2339C342.819 49.4106 341.862 50.3678 340.686 50.3678ZM342.108 39.3569C341.715 39.3569 341.397 39.0384 341.397 38.6456V33.4388C341.397 33.0466 341.078 32.7275 340.686 32.7275H324.809C324.417 32.7275 324.098 33.0466 324.098 33.4388V35.1175C324.098 35.5104 323.78 35.8288 323.387 35.8288C322.994 35.8288 322.675 35.5104 322.675 35.1175V33.4388C322.675 32.2622 323.633 31.3049 324.809 31.3049H340.686C341.862 31.3049 342.819 32.2622 342.819 33.4388V38.6456C342.819 39.0384 342.501 39.3569 342.108 39.3569ZM324.724 37.7636H321.936C321.621 37.7636 321.367 37.5088 321.367 37.1945C321.367 36.8802 321.621 36.6255 321.936 36.6255H324.724C325.038 36.6255 325.293 36.8802 325.293 37.1945C325.293 37.5088 325.038 37.7636 324.724 37.7636ZM324.724 46.1H321.936C321.621 46.1 321.367 45.8453 321.367 45.531C321.367 45.2167 321.621 44.9619 321.936 44.9619H324.724C325.038 44.9619 325.293 45.2167 325.293 45.531C325.293 45.8453 325.038 46.1 324.724 46.1Z" fill="white"/>
<path d="M337.129 37.8772H328.366C327.973 37.8772 327.655 37.5587 327.655 37.1659C327.655 36.7731 327.973 36.4546 328.366 36.4546H337.129C337.522 36.4546 337.841 36.7731 337.841 37.1659C337.841 37.5587 337.522 37.8772 337.129 37.8772ZM337.129 42.0028H328.366C327.973 42.0028 327.655 41.6843 327.655 41.2914C327.655 40.8986 327.973 40.5801 328.366 40.5801H337.129C337.522 40.5801 337.841 40.8986 337.841 41.2914C337.841 41.6843 337.522 42.0028 337.129 42.0028ZM337.129 46.1283H328.366C327.973 46.1283 327.655 45.8098 327.655 45.417C327.655 45.0242 327.973 44.7057 328.366 44.7057H337.129C337.522 44.7057 337.841 45.0242 337.841 45.417C337.841 45.8098 337.522 46.1283 337.129 46.1283ZM342.108 43.5107C340.618 43.5107 339.405 42.2982 339.405 40.8078C339.405 39.3174 340.618 38.1048 342.108 38.1048C343.599 38.1048 344.811 39.3174 344.811 40.8078C344.811 42.2982 343.599 43.5107 342.108 43.5107ZM342.108 39.5274C341.402 39.5274 340.828 40.1018 340.828 40.8078C340.828 41.5137 341.402 42.0881 342.108 42.0881C342.814 42.0881 343.389 41.5137 343.389 40.8078C343.389 40.1018 342.814 39.5274 342.108 39.5274Z" fill="white"/>
<path d="M469.321 136.939C483.28 136.939 494.595 125.623 494.595 111.665C494.595 97.707 483.28 86.3916 469.321 86.3916C455.363 86.3916 444.048 97.707 444.048 111.665C444.048 125.623 455.363 136.939 469.321 136.939Z" fill="#35A476" stroke="white" stroke-width="0.693218" stroke-miterlimit="10"/>
<g clip-path="url(#clip1_836_4020)">
<path fill-rule="evenodd" clip-rule="evenodd" d="M480.178 105.716C479.218 104.029 477.868 102.576 476.257 101.491L476.571 100.987C476.692 100.792 476.633 100.535 476.438 100.413C474.298 99.0744 471.838 98.3669 469.321 98.3669C466.805 98.3669 464.344 99.0744 462.205 100.413C462.01 100.535 461.951 100.792 462.072 100.987L462.386 101.491C460.775 102.575 459.424 104.029 458.465 105.716C457.403 107.583 456.842 109.704 456.842 111.852V116.445C456.842 117.877 458.007 119.042 459.44 119.042H459.456C459.661 119.574 460.177 119.953 460.78 119.953H461.296C462.078 119.953 462.715 119.316 462.715 118.534V113.233C462.715 112.45 462.078 111.814 461.296 111.814H460.78C460.177 111.814 459.661 112.192 459.456 112.724H459.44C458.759 112.724 458.14 112.987 457.676 113.417V111.852C457.676 107.959 459.594 104.382 462.827 102.2L463.132 102.691C463.191 102.785 463.284 102.852 463.392 102.877C463.5 102.902 463.614 102.883 463.708 102.824C465.394 101.769 467.335 101.212 469.321 101.212C471.308 101.212 473.249 101.769 474.935 102.824C475.002 102.866 475.078 102.888 475.156 102.888C475.188 102.888 475.219 102.884 475.25 102.877C475.358 102.852 475.452 102.785 475.51 102.691L475.816 102.2C479.049 104.382 480.966 107.959 480.966 111.852V113.417C480.503 112.987 479.883 112.724 479.203 112.724H479.187C478.982 112.192 478.466 111.814 477.863 111.814H477.347C476.564 111.814 475.928 112.45 475.928 113.233V118.534C475.928 119.316 476.564 119.953 477.347 119.953H477.863C478.466 119.953 478.982 119.574 479.187 119.042H479.203C479.375 119.042 479.544 119.025 479.707 118.993V120.687C479.707 121.899 478.72 122.886 477.507 122.886H471.962C471.887 122.187 471.294 121.642 470.576 121.642H468.067C467.298 121.642 466.672 122.268 466.672 123.037V123.57C466.672 124.339 467.298 124.965 468.067 124.965H470.576C471.294 124.965 471.887 124.419 471.962 123.72H477.507C479.18 123.72 480.541 122.359 480.541 120.687V118.67C481.295 118.215 481.801 117.388 481.801 116.445V111.852C481.801 109.704 481.24 107.583 480.178 105.716ZM460.78 112.648H461.296C461.618 112.648 461.881 112.91 461.881 113.233V118.534C461.881 118.856 461.618 119.118 461.296 119.118H460.78C460.458 119.118 460.196 118.856 460.196 118.534V113.233C460.196 112.91 460.458 112.648 460.78 112.648ZM459.361 113.561V118.206C458.425 118.165 457.676 117.39 457.676 116.445V115.322V115.321C457.677 114.375 458.425 113.602 459.361 113.561ZM475.019 101.902C473.286 100.903 471.325 100.377 469.321 100.377C467.318 100.377 465.357 100.903 463.624 101.902L463.004 100.905C464.925 99.7893 467.1 99.2014 469.321 99.2014C471.542 99.2014 473.718 99.7893 475.639 100.905L475.019 101.902ZM471.136 123.57C471.136 123.879 470.885 124.13 470.576 124.13H468.067C467.758 124.13 467.506 123.879 467.506 123.57V123.036C467.506 122.727 467.758 122.476 468.067 122.476H470.576C470.885 122.476 471.136 122.727 471.136 123.036V123.57ZM477.863 119.118H477.347C477.024 119.118 476.762 118.856 476.762 118.534V113.233C476.762 112.91 477.024 112.648 477.347 112.648H477.863C478.185 112.648 478.447 112.91 478.447 113.233V118.534C478.447 118.856 478.185 119.118 477.863 119.118ZM480.966 116.445C480.966 117.39 480.218 118.165 479.281 118.206V113.561C480.217 113.602 480.966 114.376 480.966 115.322V116.445ZM467.767 117.066C467.767 117.296 467.954 117.483 468.185 117.483H470.458C470.688 117.483 470.875 117.296 470.875 117.066V116.258C471.435 116.113 471.969 115.892 472.467 115.598L473.039 116.17C473.202 116.332 473.466 116.332 473.629 116.17L475.237 114.562C475.4 114.399 475.4 114.135 475.237 113.972L474.665 113.4C474.96 112.901 475.181 112.368 475.325 111.808H476.133C476.363 111.808 476.55 111.621 476.55 111.391V109.118C476.55 108.887 476.363 108.7 476.133 108.7H475.325C475.18 108.14 474.959 107.607 474.665 107.108L475.237 106.536C475.4 106.373 475.4 106.109 475.237 105.946L473.629 104.339C473.466 104.176 473.202 104.176 473.039 104.339L472.467 104.911C471.968 104.616 471.435 104.395 470.875 104.251V103.442C470.875 103.212 470.688 103.025 470.458 103.025H468.185C467.954 103.025 467.767 103.212 467.767 103.442V104.251C467.207 104.395 466.674 104.616 466.175 104.911L465.603 104.339C465.441 104.176 465.176 104.176 465.014 104.339L463.406 105.946C463.328 106.024 463.284 106.131 463.284 106.241C463.284 106.352 463.328 106.458 463.406 106.536L463.978 107.108C463.683 107.607 463.462 108.14 463.318 108.7H462.51C462.279 108.7 462.092 108.887 462.092 109.117V111.391C462.092 111.621 462.279 111.808 462.51 111.808H463.318C463.462 112.368 463.683 112.902 463.978 113.4L463.406 113.972C463.243 114.135 463.243 114.399 463.406 114.562L465.013 116.169C465.176 116.332 465.441 116.332 465.603 116.169L466.175 115.598C466.674 115.892 467.207 116.113 467.767 116.258V117.066ZM466.347 114.721C466.181 114.61 465.961 114.632 465.82 114.773L465.308 115.284L464.291 114.267L464.803 113.755C464.944 113.614 464.965 113.394 464.855 113.228C464.464 112.643 464.197 111.998 464.059 111.309C464.02 111.114 463.849 110.974 463.65 110.974H462.927V109.535H463.65C463.849 109.535 464.02 109.394 464.059 109.199C464.196 108.511 464.464 107.865 464.855 107.28C464.965 107.114 464.944 106.894 464.803 106.753L464.291 106.241L465.308 105.224L465.82 105.736C465.961 105.876 466.181 105.898 466.347 105.788C466.932 105.397 467.578 105.129 468.266 104.992C468.461 104.953 468.602 104.782 468.602 104.583V103.859H470.041V104.583C470.041 104.782 470.181 104.953 470.377 104.992C471.065 105.129 471.71 105.397 472.296 105.788C472.461 105.898 472.682 105.876 472.822 105.736L473.334 105.224L474.352 106.241L473.84 106.753C473.699 106.894 473.677 107.114 473.788 107.28C474.178 107.865 474.446 108.511 474.583 109.199C474.622 109.394 474.793 109.535 474.992 109.535H475.716V110.974H474.992C474.793 110.974 474.622 111.114 474.583 111.309C474.446 111.997 474.178 112.643 473.788 113.228C473.677 113.394 473.699 113.614 473.84 113.755L474.352 114.267L473.334 115.284L472.822 114.773C472.682 114.632 472.461 114.61 472.296 114.721C471.71 115.111 471.065 115.379 470.376 115.516C470.181 115.555 470.041 115.726 470.041 115.925V116.649H468.602V115.925C468.602 115.726 468.461 115.555 468.266 115.516C467.578 115.379 466.933 115.111 466.347 114.721ZM473.772 110.254C473.772 107.8 471.775 105.804 469.321 105.804C466.867 105.804 464.871 107.8 464.871 110.254C464.871 112.708 466.867 114.705 469.321 114.705C471.775 114.705 473.772 112.708 473.772 110.254ZM465.705 110.254C465.705 108.26 467.327 106.638 469.321 106.638C471.315 106.638 472.937 108.26 472.937 110.254C472.937 112.248 471.315 113.87 469.321 113.87C467.327 113.87 465.705 112.248 465.705 110.254ZM470.145 109.192C470.145 108.737 469.776 108.368 469.321 108.368C468.867 108.368 468.497 108.737 468.497 109.192C468.497 109.422 468.31 109.609 468.08 109.609C467.85 109.609 467.663 109.422 467.663 109.192C467.663 108.277 468.407 107.533 469.321 107.533C470.236 107.533 470.98 108.277 470.98 109.192C470.98 109.838 470.6 110.429 470.013 110.699C469.839 110.78 469.739 110.936 469.739 111.128V111.565C469.739 111.795 469.552 111.982 469.321 111.982C469.091 111.982 468.904 111.795 468.904 111.565V111.128C468.904 110.612 469.196 110.157 469.665 109.941C469.957 109.807 470.145 109.513 470.145 109.192ZM469.321 112.922C469.106 112.922 468.93 112.746 468.93 112.53C468.93 112.315 469.106 112.139 469.321 112.139C469.537 112.139 469.712 112.315 469.712 112.53C469.712 112.746 469.537 112.922 469.321 112.922Z" fill="white"/>
</g>
<g opacity="0.6">
<path d="M100.004 95.9019L190.144 95.9019C192.077 95.9019 193.644 94.3349 193.644 92.4019V92.2119C193.644 90.2789 192.077 88.7119 190.144 88.7119L100.004 88.7119C98.0707 88.7119 96.5037 90.2789 96.5037 92.2119V92.4019C96.5037 94.3349 98.0707 95.9019 100.004 95.9019Z" fill="#F6F6FA"/>
<path d="M100.004 108.872L190.144 108.872C192.077 108.872 193.644 107.305 193.644 105.372V105.182C193.644 103.249 192.077 101.682 190.144 101.682L100.004 101.682C98.0707 101.682 96.5037 103.249 96.5037 105.182V105.372C96.5037 107.305 98.0707 108.872 100.004 108.872Z" fill="#F6F6FA"/>
<path d="M100.004 121.842L190.144 121.842C192.077 121.842 193.644 120.275 193.644 118.342V118.152C193.644 116.219 192.077 114.652 190.144 114.652L100.004 114.652C98.0707 114.652 96.5037 116.219 96.5037 118.152V118.342C96.5037 120.275 98.0707 121.842 100.004 121.842Z" fill="#F6F6FA"/>
<path d="M33.6937 88.4919H79.8137C81.6171 88.4919 83.3468 89.2084 84.622 90.4836C85.8973 91.7589 86.6137 93.4885 86.6137 95.2919V113.932C86.6137 115.735 85.8973 117.465 84.622 118.74C83.3468 120.016 81.6171 120.732 79.8137 120.732H33.6937C32.8007 120.732 31.9164 120.556 31.0914 120.214C30.2664 119.873 29.5168 119.372 28.8853 118.74C28.2539 118.109 27.753 117.359 27.4113 116.534C27.0696 115.709 26.8937 114.825 26.8937 113.932V95.2919C26.8963 93.4893 27.6136 91.7612 28.8883 90.4865C30.1629 89.2119 31.891 88.4946 33.6937 88.4919Z" fill="#F6F6FA"/>
</g>
<path d="M206.236 87.1487C221.986 87.1487 234.753 74.3813 234.753 58.632C234.753 42.8826 221.986 30.1152 206.236 30.1152C190.487 30.1152 177.72 42.8826 177.72 58.632C177.72 74.3813 190.487 87.1487 206.236 87.1487Z" fill="#35A476" stroke="white" stroke-width="0.782173" stroke-miterlimit="10"/>
<path d="M212.397 60.5398C210.353 60.5398 208.526 61.486 207.33 62.963L202.355 60.0905C202.51 59.5344 202.593 58.9488 202.593 58.3441C202.593 57.7394 202.51 57.1537 202.355 56.5977L207.03 53.8988C207.282 54.2651 207.571 54.6045 207.891 54.9114C207.915 54.9389 207.942 54.964 207.971 54.9864C209.134 56.0642 210.69 56.7241 212.397 56.7241C214.104 56.7241 215.659 56.0641 216.822 54.9862C216.851 54.9639 216.878 54.9389 216.901 54.9116C218.14 53.7247 218.913 52.0548 218.913 50.2077C218.913 46.6146 215.99 43.6914 212.397 43.6914C208.804 43.6914 205.88 46.6146 205.88 50.2077C205.88 51.2108 206.108 52.1616 206.515 53.0113L201.996 55.6205C200.962 53.3838 198.698 51.8277 196.077 51.8277C192.484 51.8277 189.56 54.751 189.56 58.3441C189.56 60.1911 190.333 61.8611 191.572 63.048C191.595 63.0753 191.622 63.1003 191.651 63.1226C192.814 64.2004 194.37 64.8604 196.077 64.8604C197.784 64.8604 199.339 64.2005 200.502 63.1228C200.532 63.1003 200.558 63.0752 200.582 63.0477C201.169 62.4853 201.651 61.8144 201.996 61.0677L206.747 63.811C206.196 64.7671 205.88 65.8755 205.88 67.0562C205.88 68.9031 206.653 70.5729 207.892 71.7599C207.915 71.7874 207.942 71.8124 207.972 71.8349C209.135 72.9125 210.69 73.5725 212.397 73.5725C214.103 73.5725 215.659 72.9126 216.822 71.8349C216.852 71.8124 216.878 71.7872 216.902 71.7595C218.141 70.5726 218.913 68.9029 218.913 67.0561C218.913 63.463 215.99 60.5398 212.397 60.5398ZM208.941 54.4705C209.706 53.3179 210.995 52.6165 212.395 52.616C212.396 52.616 212.396 52.6161 212.397 52.6161C212.397 52.6161 212.398 52.616 212.398 52.616C213.798 52.6165 215.088 53.3179 215.852 54.4705C214.908 55.2374 213.705 55.6981 212.397 55.6981C211.088 55.6981 209.886 55.2374 208.941 54.4705ZM210.439 49.632C210.439 48.5523 211.317 47.6739 212.397 47.6739C213.476 47.6739 214.355 48.5523 214.355 49.632C214.355 50.7112 213.477 51.5893 212.398 51.5901C212.398 51.5901 212.397 51.5901 212.397 51.5901C212.396 51.5901 212.396 51.5901 212.395 51.5901C211.316 51.5892 210.439 50.7112 210.439 49.632ZM212.397 44.7174C215.424 44.7174 217.887 47.1803 217.887 50.2077C217.887 51.5524 217.4 52.7851 216.595 53.7407C216.007 52.9234 215.201 52.3036 214.281 51.9442C214.951 51.3965 215.381 50.5635 215.381 49.632C215.381 47.9866 214.042 46.648 212.397 46.648C210.751 46.648 209.413 47.9866 209.413 49.632C209.413 50.5635 209.842 51.3965 210.513 51.9442C209.592 52.3036 208.786 52.9234 208.199 53.7408C207.393 52.7852 206.906 51.5525 206.906 50.2078C206.906 47.1803 209.369 44.7174 212.397 44.7174ZM196.077 52.8537C199.104 52.8537 201.567 55.3167 201.567 58.3441C201.567 59.6888 201.08 60.9214 200.275 61.877C199.687 61.0597 198.881 60.4399 197.961 60.0805C198.631 59.5328 199.061 58.6998 199.061 57.7683C199.061 56.123 197.722 54.7843 196.077 54.7843C194.431 54.7843 193.093 56.123 193.093 57.7683C193.093 58.6998 193.522 59.5329 194.193 60.0805C193.272 60.4399 192.466 61.0597 191.879 61.8771C191.073 60.9215 190.586 59.6889 190.586 58.3441C190.586 55.3167 193.049 52.8537 196.077 52.8537ZM194.119 57.7683C194.119 56.6886 194.997 55.8102 196.077 55.8102C197.156 55.8102 198.035 56.6886 198.035 57.7683C198.035 58.848 197.156 59.7264 196.077 59.7264C194.997 59.7264 194.119 58.848 194.119 57.7683ZM192.621 62.6068C193.386 61.4538 194.676 60.7523 196.077 60.7523C197.478 60.7523 198.767 61.4538 199.532 62.6068C198.588 63.3737 197.385 63.8344 196.077 63.8344C194.768 63.8344 193.566 63.3737 192.621 62.6068ZM208.941 71.3189C209.706 70.1663 210.995 69.4649 212.395 69.4644C212.396 69.4644 212.396 69.4645 212.397 69.4645C212.397 69.4645 212.398 69.4644 212.398 69.4644C213.798 69.4649 215.088 70.1662 215.852 71.3188C214.908 72.0857 213.705 72.5465 212.397 72.5465C211.088 72.5465 209.886 72.0857 208.941 71.3189ZM210.439 66.4803C210.439 65.4006 211.317 64.5222 212.397 64.5222C213.476 64.5222 214.355 65.4006 214.355 66.4803C214.355 67.5595 213.477 68.4376 212.398 68.4384C212.398 68.4384 212.397 68.4384 212.397 68.4384C212.396 68.4384 212.396 68.4384 212.395 68.4384C211.316 68.4376 210.439 67.5596 210.439 66.4803ZM216.595 70.5891C216.007 69.7717 215.201 69.1519 214.281 68.7925C214.951 68.2448 215.381 67.4118 215.381 66.4803C215.381 64.835 214.042 63.4963 212.397 63.4963C210.751 63.4963 209.413 64.835 209.413 66.4803C209.413 67.4118 209.842 68.2448 210.513 68.7925C209.592 69.1519 208.786 69.7717 208.199 70.5891C207.393 69.6335 206.906 68.4008 206.906 67.0561C206.906 64.0287 209.369 61.5657 212.397 61.5657C215.424 61.5657 217.887 64.0287 217.887 67.0561C217.887 68.4008 217.4 69.6335 216.595 70.5891Z" fill="white"/>
<path d="M23.7024 141.376C36.5886 141.376 47.0349 130.93 47.0349 118.044C47.0349 105.158 36.5886 94.7112 23.7024 94.7112C10.8162 94.7112 0.369873 105.158 0.369873 118.044C0.369873 130.93 10.8162 141.376 23.7024 141.376Z" fill="#35A476" stroke="white" stroke-width="0.639978" stroke-miterlimit="10"/>
<g clip-path="url(#clip2_836_4020)">
<path d="M34.6619 122.693C35.2808 122.074 35.5952 121.293 35.5709 120.436L35.3356 112.128C35.3136 111.354 34.5411 110.661 33.7077 110.661C33.6998 110.661 33.6917 110.661 33.6837 110.661C33.2756 110.667 31.9449 110.891 31.9547 113.493L31.9719 118.006C31.9726 118.188 31.953 118.361 31.9122 118.527C31.8507 118.431 31.7763 118.339 31.6892 118.252C31.1268 117.689 30.2045 117.683 29.5896 118.238C29.5764 118.249 29.5641 118.262 29.5527 118.276C28.8199 119.142 27.9222 119.899 27.2009 120.506C26.9495 120.718 26.7121 120.918 26.5178 121.094C25.7241 121.809 25.6184 122.803 25.6197 123.681L25.6247 126.986L25.2465 126.983C25.2437 126.983 25.2408 126.983 25.238 126.983C24.9834 126.983 24.7432 127.081 24.5607 127.261C24.3761 127.442 24.2732 127.684 24.271 127.942L24.2602 129.199C24.2557 129.732 24.6859 130.17 25.2191 130.174L31.7494 130.23C31.7522 130.23 31.755 130.23 31.7578 130.23C32.2872 130.23 32.7203 129.802 32.7249 129.271L32.7357 128.014C32.7402 127.481 32.3101 127.043 31.7768 127.039L31.0197 127.032V126.335L34.6619 122.693ZM31.9494 128.007L31.9385 129.265C31.9377 129.362 31.855 129.444 31.7575 129.444C31.757 129.444 31.7564 129.444 31.756 129.444L25.2257 129.388C25.1276 129.387 25.0455 129.303 25.0463 129.205L25.0571 127.948C25.0576 127.884 25.0915 127.841 25.1117 127.821C25.1317 127.802 25.1745 127.769 25.238 127.769H25.2396L31.7698 127.825C31.868 127.826 31.9502 127.909 31.9494 128.007ZM26.4109 126.993L26.4059 123.68C26.4048 122.94 26.4813 122.185 27.0442 121.678C27.2287 121.511 27.4506 121.324 27.7075 121.108C28.4454 120.486 29.3622 119.713 30.134 118.806C30.4419 118.543 30.8676 118.542 31.1332 118.808C31.4554 119.13 31.3543 119.475 31.1866 119.73C30.7615 120.218 30.3348 120.633 29.8876 121.067C29.6944 121.255 29.4945 121.449 29.2881 121.655C29.1345 121.809 29.1346 122.058 29.2881 122.211C29.4416 122.365 29.6905 122.365 29.844 122.211C30.0464 122.009 30.2441 121.817 30.4354 121.631C30.8622 121.216 31.2708 120.82 31.6827 120.356C31.7119 120.335 31.7385 120.308 31.7616 120.278C31.7783 120.256 31.7946 120.233 31.8102 120.211C31.8942 120.114 31.9784 120.013 32.0631 119.909C32.5334 119.33 32.7606 118.707 32.758 118.003L32.7408 113.49C32.736 112.22 33.0932 111.456 33.6962 111.447C34.1069 111.441 34.5396 111.795 34.5496 112.151L34.785 120.458C34.8032 121.103 34.5747 121.668 34.1059 122.136L30.3485 125.894C30.2747 125.968 30.2333 126.068 30.2333 126.172V127.025L26.4109 126.993ZM25.4816 128.439C25.5613 128.239 25.7884 128.141 25.9889 128.221C26.1894 128.3 26.2872 128.528 26.2075 128.728C26.1278 128.928 25.9007 129.026 25.7002 128.947C25.4997 128.867 25.4019 128.64 25.4816 128.439ZM22.8436 127.261C22.659 127.079 22.4149 126.981 22.1577 126.983L21.7795 126.986L21.7846 123.681C21.7859 122.803 21.6802 121.809 20.8864 121.094C20.6921 120.918 20.4546 120.718 20.2032 120.506C19.482 119.898 18.5843 119.142 17.8516 118.276C17.8401 118.262 17.8278 118.249 17.8147 118.238C17.1997 117.683 16.2774 117.689 15.715 118.252C15.6279 118.339 15.5535 118.431 15.492 118.527C15.4512 118.361 15.4316 118.188 15.4323 118.006L15.4495 113.493C15.4593 110.891 14.1286 110.667 13.7205 110.661C12.8787 110.647 12.0907 111.347 12.0686 112.128L11.8332 120.436C11.809 121.293 12.1233 122.074 12.7422 122.693L16.3845 126.335V127.032L15.6274 127.039C15.0941 127.043 14.664 127.481 14.6686 128.014L14.6793 129.271C14.684 129.802 15.117 130.23 15.6465 130.23C15.6493 130.23 15.6521 130.23 15.6549 130.23L22.1852 130.174C22.7184 130.17 23.1486 129.732 23.1441 129.199L23.1333 127.941C23.131 127.684 23.0282 127.442 22.8436 127.261ZM17.1708 126.172C17.1708 126.068 17.1294 125.968 17.0557 125.894L13.2982 122.137C12.8294 121.668 12.601 121.103 12.6191 120.458L12.8545 112.151C12.8645 111.799 13.2874 111.447 13.6965 111.447C13.7003 111.447 13.7041 111.447 13.7079 111.447C14.3109 111.457 14.6681 112.221 14.6633 113.49L14.6461 118.003C14.6434 118.707 14.8707 119.33 15.341 119.909C15.4256 120.013 15.5098 120.114 15.5938 120.211C15.6094 120.233 15.6256 120.256 15.6424 120.278C15.6655 120.308 15.6922 120.335 15.7215 120.356C16.1332 120.82 16.5419 121.216 16.9687 121.631C17.16 121.817 17.3577 122.009 17.5601 122.211C17.7136 122.365 17.9625 122.365 18.116 122.211C18.2695 122.058 18.2696 121.809 18.116 121.655C17.9096 121.449 17.7097 121.255 17.5165 121.067C17.0692 120.633 16.6425 120.218 16.2174 119.73C16.0498 119.475 15.9487 119.13 16.2709 118.808C16.5365 118.542 16.9622 118.543 17.2701 118.806C18.0418 119.713 18.9586 120.486 19.6964 121.108C19.9534 121.324 20.1754 121.511 20.3599 121.678C20.9228 122.185 20.9994 122.94 20.9982 123.68L20.9932 126.993L17.1708 127.025L17.1708 126.172ZM22.1784 129.388L15.6481 129.444C15.5483 129.446 15.4665 129.363 15.4656 129.265L15.4548 128.008C15.454 127.909 15.5362 127.826 15.6343 127.825L22.1645 127.769H22.1662C22.2297 127.769 22.2725 127.802 22.2924 127.821C22.3126 127.841 22.3465 127.884 22.347 127.948L22.3579 129.205C22.3587 129.303 22.2765 129.387 22.1784 129.388ZM21.9226 128.439C22.0023 128.64 21.9045 128.867 21.704 128.947C21.5035 129.026 21.2764 128.928 21.1967 128.728C21.117 128.528 21.2148 128.3 21.4153 128.221C21.6158 128.141 21.8429 128.239 21.9226 128.439ZM16.9728 114.097L17.8751 114.444C18.0076 114.926 18.1991 115.388 18.4466 115.823L18.0538 116.707C17.9878 116.856 18.0201 117.03 18.1351 117.145L19.3961 118.406C19.5111 118.521 19.685 118.553 19.8336 118.487L20.7181 118.094C21.1529 118.341 21.6149 118.533 22.0962 118.665L22.4436 119.568C22.502 119.72 22.6478 119.82 22.8105 119.82H24.5937C24.7563 119.82 24.9021 119.72 24.9605 119.568L25.3079 118.666C25.7895 118.533 26.2516 118.342 26.6863 118.094L27.5705 118.487C27.7191 118.553 27.8931 118.521 28.0081 118.406L29.269 117.145C29.384 117.03 29.4163 116.856 29.3503 116.707L28.9574 115.823C29.2049 115.388 29.3963 114.926 29.5288 114.444L30.4314 114.097C30.5832 114.039 30.6833 113.893 30.6833 113.73V111.947C30.6833 111.784 30.5831 111.639 30.4314 111.58L29.5291 111.233C29.3966 110.751 29.2051 110.289 28.9576 109.854L29.3504 108.97C29.4164 108.822 29.3841 108.648 29.2691 108.533L28.0081 107.272C27.8931 107.157 27.7193 107.124 27.5706 107.19L26.686 107.583C26.2513 107.336 25.7893 107.144 25.308 107.012L24.9606 106.109C24.9021 105.958 24.7563 105.857 24.5937 105.857H22.8105C22.6478 105.857 22.502 105.958 22.4436 106.109L22.0961 107.012C21.6148 107.144 21.1528 107.336 20.7181 107.583L19.8335 107.19C19.6849 107.124 19.511 107.157 19.396 107.272L18.1351 108.533C18.0201 108.648 17.9877 108.822 18.0538 108.97L18.4466 109.855C18.1992 110.289 18.0076 110.751 17.8752 111.233L16.9727 111.58C16.8209 111.639 16.7208 111.784 16.7208 111.947V113.73C16.7208 113.893 16.821 114.039 16.9728 114.097ZM17.5071 112.217L18.3468 111.894C18.4678 111.847 18.558 111.744 18.588 111.618C18.7168 111.077 18.9304 110.561 19.2229 110.086C19.2909 109.976 19.3 109.839 19.2474 109.721L18.8819 108.898L19.7612 108.018L20.5843 108.384C20.7028 108.437 20.8396 108.428 20.9499 108.36C21.425 108.067 21.9401 107.853 22.4812 107.725C22.6073 107.695 22.7105 107.604 22.7571 107.483L23.0804 106.644H24.3237L24.647 107.483C24.6936 107.604 24.7968 107.695 24.9228 107.725C25.464 107.853 25.9791 108.067 26.4542 108.36C26.5645 108.427 26.7013 108.437 26.8198 108.384L27.643 108.018L28.5222 108.898L28.1568 109.721C28.1041 109.839 28.1133 109.976 28.1813 110.086C28.4739 110.561 28.6875 111.077 28.8163 111.618C28.8462 111.744 28.9365 111.847 29.0575 111.894L29.8971 112.217V113.46L29.0572 113.784C28.9362 113.83 28.846 113.933 28.816 114.059C28.6872 114.6 28.4736 115.116 28.1811 115.591C28.1132 115.701 28.104 115.838 28.1566 115.956L28.5222 116.78L27.643 117.659L26.8202 117.293C26.7017 117.241 26.5648 117.25 26.4545 117.318C25.9796 117.61 25.4643 117.824 24.9228 117.953C24.7968 117.983 24.6935 118.073 24.647 118.194L24.3238 119.034H23.0804L22.7571 118.194C22.7106 118.073 22.6074 117.983 22.4812 117.953C21.9402 117.824 21.425 117.61 20.9499 117.318C20.8396 117.25 20.7028 117.241 20.5843 117.293L19.7611 117.659L18.8819 116.78L19.2474 115.957C19.3 115.838 19.2908 115.701 19.2228 115.591C18.9303 115.116 18.7167 114.601 18.5879 114.059C18.5579 113.933 18.4676 113.83 18.3467 113.784L17.5071 113.46V112.217ZM23.7021 116.798C25.8853 116.798 27.6615 115.022 27.6615 112.839C27.6615 110.655 25.8853 108.879 23.7021 108.879C21.5189 108.879 19.7427 110.655 19.7427 112.839C19.7427 115.022 21.5189 116.798 23.7021 116.798ZM22.2899 115.679C22.0734 115.571 21.8706 115.439 21.6857 115.287V113.048H22.2899V115.679ZM23.0761 115.949V112.417H24.1713V115.977C24.0182 116 23.8615 116.012 23.7021 116.012C23.4878 116.012 23.2786 115.99 23.0761 115.949ZM24.9575 113.048H25.5617V115.407C25.3745 115.543 25.1722 115.659 24.9575 115.752V113.048ZM23.7021 109.666C25.4518 109.666 26.8752 111.089 26.8752 112.839C26.8752 113.485 26.6807 114.086 26.348 114.588V112.654C26.348 112.437 26.172 112.261 25.9549 112.261H24.9575V112.024C24.9575 111.807 24.7815 111.631 24.5644 111.631H24.0168V111.311C24.0168 111.094 23.8408 110.918 23.6237 110.918C23.4066 110.918 23.2306 111.094 23.2306 111.311V111.631H22.683C22.4659 111.631 22.2899 111.807 22.2899 112.024V112.261H21.2926C21.0755 112.261 20.8995 112.437 20.8995 112.654V114.324C20.6634 113.881 20.529 113.375 20.529 112.839C20.529 111.089 21.9524 109.666 23.7021 109.666Z" fill="white"/>
</g>
<path d="M190.212 165.064H177.942C175.507 165.064 173.532 167.038 173.532 169.474V181.744C173.532 184.18 175.507 186.154 177.942 186.154H190.212C192.648 186.154 194.622 184.18 194.622 181.744V169.474C194.622 167.038 192.648 165.064 190.212 165.064Z" fill="#ABADF3"/>
<path d="M183.412 180.254L178.082 175.614C177.978 175.523 177.892 175.413 177.831 175.289C177.769 175.166 177.732 175.031 177.722 174.893C177.703 174.615 177.794 174.34 177.977 174.129C178.16 173.918 178.42 173.789 178.698 173.769C178.977 173.749 179.252 173.841 179.462 174.024L183.232 177.314L188.602 171.314C188.79 171.107 189.052 170.982 189.331 170.967C189.61 170.952 189.884 171.048 190.092 171.234C190.201 171.322 190.29 171.432 190.353 171.556C190.416 171.68 190.453 171.817 190.461 171.956C190.468 172.096 190.446 172.235 190.397 172.366C190.347 172.496 190.271 172.615 190.172 172.714L183.412 180.254Z" fill="#F3F3F3"/>
<path d="M190.212 192.094H177.942C175.507 192.094 173.532 194.068 173.532 196.504V208.774C173.532 211.21 175.507 213.184 177.942 213.184H190.212C192.648 213.184 194.622 211.21 194.622 208.774V196.504C194.622 194.068 192.648 192.094 190.212 192.094Z" fill="#ABADF3"/>
<path d="M183.412 207.284L178.082 202.644C177.978 202.553 177.892 202.443 177.831 202.319C177.769 202.196 177.732 202.061 177.722 201.923C177.703 201.645 177.794 201.37 177.977 201.159C178.16 200.948 178.42 200.819 178.698 200.799C178.977 200.779 179.252 200.871 179.462 201.054L183.232 204.344L188.602 198.344C188.79 198.137 189.052 198.012 189.331 197.997C189.61 197.982 189.884 198.078 190.092 198.264C190.201 198.352 190.29 198.462 190.353 198.586C190.416 198.711 190.453 198.847 190.461 198.986C190.468 199.126 190.446 199.265 190.397 199.396C190.347 199.526 190.271 199.645 190.172 199.744L183.412 207.284Z" fill="#F3F3F3"/>
<path d="M190.212 219.124H177.942C175.507 219.124 173.532 221.098 173.532 223.534V235.804C173.532 238.24 175.507 240.214 177.942 240.214H190.212C192.648 240.214 194.622 238.24 194.622 235.804V223.534C194.622 221.098 192.648 219.124 190.212 219.124Z" fill="#ABADF3"/>
<path d="M85.2111 67.6055C99.7438 67.6055 111.525 55.8244 111.525 41.2916C111.525 26.7589 99.7438 14.9778 85.2111 14.9778C70.6783 14.9778 58.8972 26.7589 58.8972 41.2916C58.8972 55.8244 70.6783 67.6055 85.2111 67.6055Z" fill="#35A476" stroke="white" stroke-width="0.721751" stroke-miterlimit="10"/>
<g clip-path="url(#clip3_836_4020)">
<path d="M91.8053 39.3376V33.8269C91.8053 33.6692 91.7324 33.5234 91.6293 33.4081L85.451 26.9203C85.3357 26.799 85.1717 26.7322 85.008 26.7322H75.2125C73.4041 26.7322 71.9596 28.2069 71.9596 30.0155V48.5382C71.9596 50.3468 73.4041 51.7973 75.2125 51.7973H82.9446C84.4071 54.2249 87.0654 55.8513 90.0937 55.8513C94.694 55.8513 98.4508 52.1128 98.4508 47.5065C98.457 43.4827 95.568 40.1205 91.8053 39.3376ZM85.615 28.8625L89.76 33.226H87.0714C86.2703 33.226 85.615 32.5646 85.615 31.7635V28.8625ZM75.2125 50.5834C74.0777 50.5834 73.1735 49.673 73.1735 48.5382V30.0155C73.1735 28.8745 74.0777 27.9461 75.2125 27.9461H84.4011V31.7635C84.4011 33.2382 85.5967 34.4398 87.0714 34.4398H90.5914V39.1797C90.4094 39.1737 90.2637 39.1554 90.1059 39.1554C87.9879 39.1554 86.0397 39.9688 84.571 41.2433H76.8634C76.5295 41.2433 76.2564 41.5163 76.2564 41.85C76.2564 42.1839 76.5295 42.457 76.8634 42.457H83.4422C83.0112 43.0639 82.6531 43.6709 82.3741 44.3385H76.8634C76.5295 44.3385 76.2564 44.6115 76.2564 44.9454C76.2564 45.2791 76.5295 45.5523 76.8634 45.5523H81.9795C81.8278 46.1593 81.7489 46.8329 81.7489 47.5065C81.7489 48.5988 81.9613 49.6792 82.3436 50.5896H75.2125V50.5834ZM90.1 54.6436C86.1673 54.6436 82.9688 51.4452 82.9688 47.5125C82.9688 43.5798 86.161 40.3813 90.1 40.3813C94.0386 40.3813 97.2309 43.5798 97.2309 47.5125C97.2309 51.4452 94.0326 54.6436 90.1 54.6436Z" fill="white"/>
<path d="M76.8634 39.4163H83.0113C83.3452 39.4163 83.6182 39.143 83.6182 38.8093C83.6182 38.4754 83.3452 38.2024 83.0113 38.2024H76.8634C76.5295 38.2024 76.2565 38.4754 76.2565 38.8093C76.2565 39.143 76.5295 39.4163 76.8634 39.4163Z" fill="white"/>
<path d="M89.8996 43.7676C89.9483 43.7796 89.9967 43.7858 90.0453 43.7858C90.106 43.7858 90.1606 43.7796 90.2153 43.7613C91.0164 43.8282 91.6416 44.4958 91.6416 45.3091C91.6416 45.6428 91.9146 45.9159 92.2483 45.9159C92.5822 45.9159 92.8552 45.6428 92.8552 45.3091C92.8552 43.974 91.9086 42.8572 90.6523 42.5961V42.2078C90.6523 41.8739 90.379 41.6008 90.0453 41.6008C89.7114 41.6008 89.4384 41.8739 89.4384 42.2078V42.6206C88.2245 42.9118 87.3203 44.0104 87.3203 45.3091C87.3203 46.8385 88.5644 48.0766 90.0878 48.0766C90.9435 48.0766 91.6416 48.7744 91.6416 49.6302C91.6416 50.4859 90.9495 51.19 90.0878 51.19C89.232 51.19 88.5342 50.4919 88.5342 49.6362C88.5342 49.3025 88.2609 49.0292 87.9273 49.0292C87.5933 49.0292 87.3203 49.3025 87.3203 49.6362C87.3203 50.9412 88.2245 52.0335 89.4384 52.3248V52.9499C89.4384 53.2838 89.7114 53.5569 90.0453 53.5569C90.379 53.5569 90.6523 53.2838 90.6523 52.9499V52.343C91.9086 52.082 92.8552 50.9654 92.8552 49.6302C92.8552 48.1008 91.6111 46.8627 90.0878 46.8627C89.232 46.8627 88.5342 46.1647 88.5342 45.3091C88.5342 44.52 89.1289 43.8587 89.8996 43.7676Z" fill="white"/>
</g>
<path d="M425.79 49.654C425.378 49.6182 424.968 49.5388 424.573 49.4179L424.902 48.345C425.219 48.4413 425.552 48.5055 425.886 48.5358L425.79 49.654ZM427.025 49.6352L426.891 48.5188C427.227 48.4791 427.556 48.4054 427.871 48.2978L428.23 49.3613C427.841 49.4935 427.435 49.5842 427.023 49.6333L427.025 49.6352ZM423.434 48.9362C423.073 48.7379 422.732 48.4999 422.418 48.2298L423.151 47.3778C423.406 47.5969 423.684 47.7896 423.976 47.9521L423.434 48.9362ZM429.354 48.8437L428.782 47.8784C429.071 47.7084 429.341 47.5063 429.589 47.2796L430.348 48.107C430.044 48.3865 429.708 48.634 429.354 48.8437ZM421.57 47.3306C421.319 47.0038 421.099 46.6487 420.922 46.2746L421.934 45.7911C422.08 46.0933 422.256 46.3804 422.458 46.6468L421.568 47.3306H421.57ZM431.17 47.1832L430.257 46.5278C430.452 46.2558 430.62 45.963 430.756 45.6551L431.784 46.1084C431.617 46.4862 431.411 46.847 431.17 47.1814V47.1832ZM420.508 45.111C420.412 44.7087 420.355 44.2969 420.344 43.8832L421.466 43.8511C421.475 44.1835 421.521 44.5198 421.6 44.8466L420.508 45.111ZM432.163 44.9297L431.064 44.7011C431.132 44.3743 431.166 44.0381 431.166 43.7018C431.166 43.6036 431.162 43.5016 431.156 43.4015L432.277 43.3354C432.284 43.4544 432.288 43.5753 432.288 43.698C432.288 44.1174 432.244 44.5292 432.161 44.9316L432.163 44.9297ZM421.538 42.848L420.433 42.6534C420.504 42.2454 420.62 41.845 420.775 41.4615L421.814 41.8846C421.689 42.1925 421.594 42.5174 421.538 42.848ZM430.994 42.4116C430.903 42.0886 430.781 41.7732 430.628 41.4747L431.625 40.9609C431.814 41.3255 431.965 41.7127 432.074 42.1113L430.994 42.4098V42.4116ZM422.288 40.9968L421.356 40.3715C421.587 40.0296 421.853 39.7104 422.15 39.4214L422.934 40.2261C422.694 40.4603 422.477 40.7191 422.289 40.9968H422.288ZM430.076 40.6379C429.864 40.3772 429.624 40.1392 429.364 39.9276L430.072 39.0549C430.393 39.3156 430.686 39.6084 430.947 39.9276L430.076 40.6379ZM423.719 39.6027L423.117 38.6544C423.466 38.4334 423.838 38.2464 424.226 38.1029L424.619 39.155C424.305 39.2721 424.003 39.4233 423.721 39.6027H423.719ZM428.521 39.3798C428.225 39.2268 427.909 39.1059 427.586 39.019L427.881 37.9347C428.28 38.0424 428.669 38.1935 429.035 38.3824L428.521 39.3817V39.3798ZM425.59 38.9057L425.423 37.7949C425.828 37.7345 426.247 37.7156 426.659 37.7383L426.593 38.8584C426.255 38.8377 425.915 38.8566 425.59 38.9057Z" fill="#3D95D1"/>
<path d="M143.119 11.9672C142.734 11.9336 142.35 11.8594 141.981 11.7462L142.289 10.7423C142.586 10.8324 142.897 10.8925 143.209 10.9208L143.119 11.9672ZM144.275 11.9495L144.15 10.9049C144.464 10.8677 144.772 10.7988 145.067 10.6981L145.403 11.6932C145.039 11.8169 144.659 11.9018 144.274 11.9477L144.275 11.9495ZM140.915 11.2955C140.578 11.1099 140.258 10.8872 139.964 10.6344L140.65 9.83725C140.889 10.0423 141.149 10.2226 141.422 10.3746L140.915 11.2955ZM146.455 11.2089L145.919 10.3057C146.19 10.1466 146.442 9.95744 146.674 9.74533L147.385 10.5195C147.1 10.7811 146.785 11.0127 146.455 11.2089ZM139.171 9.79306C138.936 9.48727 138.73 9.15496 138.564 8.80498L139.512 8.35248C139.648 8.63529 139.812 8.90397 140.001 9.1532L139.169 9.79306H139.171ZM148.153 9.65518L147.3 9.04184C147.482 8.78731 147.639 8.51333 147.766 8.22522L148.728 8.64943C148.572 9.00295 148.38 9.34055 148.153 9.65342V9.65518ZM138.177 7.71615C138.087 7.33966 138.034 6.95432 138.023 6.56722L139.073 6.53717C139.082 6.84826 139.125 7.16289 139.199 7.46869L138.177 7.71615ZM149.083 7.54646L148.054 7.33258C148.118 7.02679 148.15 6.71216 148.15 6.39753C148.15 6.30562 148.146 6.21017 148.141 6.11649L149.189 6.05462C149.196 6.16598 149.2 6.2791 149.2 6.39399C149.2 6.7864 149.159 7.17173 149.081 7.54823L149.083 7.54646ZM139.141 5.59858L138.107 5.41653C138.174 5.03473 138.282 4.66 138.426 4.30118L139.399 4.69712C139.282 4.98523 139.194 5.28925 139.141 5.59858ZM147.989 5.19027C147.904 4.88801 147.789 4.59283 147.646 4.31356L148.579 3.83277C148.756 4.17391 148.898 4.53627 149 4.90923L147.989 5.18851V5.19027ZM139.842 3.86635L138.971 3.28128C139.186 2.96135 139.436 2.66263 139.713 2.39219L140.447 3.14519C140.222 3.36437 140.019 3.60652 139.844 3.86635H139.842ZM147.13 3.53052C146.932 3.28659 146.708 3.06387 146.464 2.8659L147.126 2.04928C147.427 2.29321 147.701 2.56718 147.945 2.8659L147.13 3.53052ZM141.182 2.56187L140.618 1.67456C140.945 1.46775 141.293 1.29275 141.656 1.15841L142.023 2.14296C141.73 2.25255 141.447 2.39395 141.184 2.56187H141.182ZM145.675 2.3533C145.398 2.21013 145.103 2.09701 144.8 2.0157L145.076 1.00111C145.449 1.10186 145.813 1.24326 146.156 1.42002L145.675 2.35507V2.3533ZM142.932 1.90964L142.776 0.870297C143.155 0.813734 143.547 0.79606 143.932 0.817271L143.871 1.86545C143.554 1.846 143.236 1.86368 142.932 1.90964Z" fill="#3D95D1"/>
<path d="M146.072 6.39626C146.072 7.75553 144.97 8.85675 143.611 8.85675C142.252 8.85675 141.151 7.75553 141.151 6.39626C141.151 5.03699 142.252 3.93579 143.611 3.93579C144.97 3.93579 146.072 5.03699 146.072 6.39626Z" fill="#3D95D1"/>
<path d="M376.706 429.571C358.889 429.525 326.056 430.426 330.11 425.862C334.164 421.299 355.551 425.766 373.081 424.24C390.612 422.714 406.482 420.957 424.412 423.212C442.341 425.466 437.467 428.063 429.599 428.796C415.137 430.143 412.572 430.725 404.187 429.986C379.647 427.821 383.642 429.589 376.706 429.571Z" fill="#C8E5F7"/>
<path d="M399.387 322.193H387.36C383.844 322.183 380.475 320.781 377.989 318.295C375.502 315.809 374.101 312.44 374.09 308.924C374.09 306.57 375.025 304.313 376.689 302.649C378.353 300.985 380.61 300.05 382.964 300.05H403.804C406.157 300.05 408.414 300.985 410.078 302.649C411.743 304.313 412.678 306.57 412.678 308.924C412.667 312.443 411.262 315.815 408.772 318.302C406.281 320.789 402.907 322.188 399.387 322.193Z" fill="#3E3D5E"/>
<path d="M377.53 416.905H382.008C383.92 416.905 385.469 415.355 385.469 413.444V403.471C385.469 401.56 383.92 400.01 382.008 400.01H377.53C375.619 400.01 374.07 401.56 374.07 403.471V413.444C374.07 415.355 375.619 416.905 377.53 416.905Z" fill="#56567C"/>
<path d="M385.674 407.853H385.312C385.164 407.845 385.017 407.885 384.894 407.968C384.771 408.05 384.678 408.171 384.63 408.311C384.305 409.323 383.668 410.207 382.809 410.833C381.95 411.46 380.915 411.798 379.851 411.798C378.788 411.798 377.752 411.46 376.894 410.833C376.035 410.207 375.397 409.323 375.073 408.311C375.026 408.176 374.938 408.06 374.822 407.978C374.706 407.896 374.567 407.852 374.425 407.853H370.739C370.621 407.855 370.507 407.886 370.404 407.942L360.848 413.157C359.454 413.915 358.322 415.076 357.598 416.488L356.233 419.103C356.015 419.532 355.911 420.01 355.93 420.49C355.949 420.971 356.091 421.439 356.342 421.85C356.593 422.261 356.945 422.6 357.365 422.836C357.784 423.072 358.257 423.197 358.738 423.198H383.681C384.101 423.199 384.517 423.112 384.902 422.943C385.286 422.775 385.632 422.528 385.916 422.218C386.201 421.909 386.418 421.544 386.553 421.146C386.689 420.748 386.741 420.327 386.705 419.908L385.674 407.853Z" fill="#4E4E7F"/>
<path d="M379.087 411.71C379.344 411.748 379.604 411.769 379.865 411.771C380.71 411.769 381.541 411.553 382.28 411.142C383.019 410.732 383.642 410.14 384.09 409.423C384.636 409.239 385.196 409.062 385.763 408.905L386.732 419.922C386.768 420.34 386.716 420.762 386.581 421.16C386.445 421.557 386.228 421.923 385.944 422.232C385.659 422.541 385.314 422.788 384.929 422.957C384.544 423.126 384.128 423.212 383.708 423.212H369.667C370.882 418.618 374.288 414.522 379.087 411.71Z" fill="#3E3D5E"/>
<path d="M385.51 424.12H356.8C356.438 424.12 356.091 423.976 355.835 423.72C355.579 423.464 355.435 423.117 355.435 422.755C355.435 422.393 355.579 422.045 355.835 421.789C356.091 421.533 356.438 421.389 356.8 421.389H385.51C385.872 421.389 386.219 421.533 386.475 421.789C386.731 422.045 386.875 422.393 386.875 422.755C386.875 423.117 386.731 423.464 386.475 423.72C386.219 423.976 385.872 424.12 385.51 424.12Z" fill="#3E3D5E"/>
<path d="M375.168 310.74L370.647 353.904L386.791 355.595L391.312 312.431L375.168 310.74Z" fill="#3E3D5E"/>
<path d="M371.442 406.577L370.759 351.525C379.722 351.416 387.08 349.6 387.189 358.563L387.653 406.379L371.442 406.577Z" fill="#3E3D5E"/>
<path d="M403.264 416.905H407.742C409.654 416.905 411.203 415.355 411.203 413.444V403.471C411.203 401.56 409.654 400.01 407.742 400.01H403.264C401.353 400.01 399.804 401.56 399.804 403.471V413.444C399.804 415.355 401.353 416.905 403.264 416.905Z" fill="#56567C"/>
<path d="M411.408 407.853H411.019C410.871 407.845 410.724 407.885 410.601 407.968C410.478 408.05 410.385 408.171 410.336 408.311C410.012 409.323 409.375 410.207 408.516 410.833C407.657 411.46 406.621 411.798 405.558 411.798C404.495 411.798 403.459 411.46 402.6 410.833C401.742 410.207 401.104 409.323 400.78 408.311C400.733 408.176 400.645 408.06 400.529 407.978C400.413 407.896 400.274 407.852 400.131 407.853H396.445C396.328 407.855 396.214 407.886 396.111 407.942L386.555 413.157C385.161 413.917 384.026 415.077 383.299 416.488L381.933 419.103C381.715 419.532 381.611 420.01 381.63 420.49C381.649 420.971 381.791 421.439 382.042 421.85C382.293 422.261 382.645 422.6 383.065 422.836C383.484 423.072 383.957 423.197 384.438 423.198H409.381C409.801 423.199 410.216 423.112 410.601 422.943C410.985 422.775 411.331 422.528 411.614 422.218C411.898 421.909 412.114 421.543 412.249 421.146C412.384 420.748 412.435 420.326 412.398 419.908L411.408 407.853Z" fill="#4E4E7F"/>
<path d="M411.251 424.12H382.541C382.179 424.12 381.831 423.976 381.575 423.72C381.319 423.464 381.176 423.117 381.176 422.755C381.176 422.393 381.319 422.045 381.575 421.789C381.831 421.533 382.179 421.389 382.541 421.389H411.251C411.613 421.389 411.96 421.533 412.216 421.789C412.472 422.045 412.616 422.393 412.616 422.755C412.616 423.117 412.472 423.464 412.216 423.72C411.96 423.976 411.613 424.12 411.251 424.12Z" fill="#3E3D5E"/>
<path d="M393.838 311.786L395.664 358.905L411.885 358.276L410.058 311.158L393.838 311.786Z" fill="#3E3D5E"/>
<path d="M396.234 406.577L395.551 351.525C404.514 351.416 411.865 349.6 411.975 358.563L412.446 406.379L396.234 406.577Z" fill="#3E3D5E"/>
<path d="M374.056 308.896C386.534 315.449 401.947 317.135 410.411 316.282C411.878 314.108 412.66 311.546 412.657 308.924C412.657 306.57 411.722 304.313 410.058 302.649C408.394 300.985 406.137 300.05 403.783 300.05H382.937C380.587 300.048 378.332 300.978 376.667 302.637C375.002 304.295 374.063 306.546 374.056 308.896Z" fill="#262638"/>
<path d="M324.178 237.234L322.99 238.421C320.702 240.708 320.702 244.416 322.989 246.704L323.322 247.037C325.608 249.324 329.317 249.325 331.604 247.038L332.792 245.851C335.079 243.564 335.08 239.856 332.793 237.568L332.46 237.235C330.174 234.948 326.465 234.947 324.178 237.234Z" fill="#FFB692"/>
<path d="M323.004 227.328L322.908 227.395C322.216 227.885 322.052 228.843 322.541 229.536L327.637 236.739C328.127 237.432 329.085 237.596 329.777 237.106L329.873 237.039C330.565 236.549 330.729 235.591 330.24 234.898L325.144 227.695C324.654 227.002 323.696 226.838 323.004 227.328Z" fill="#FFB692"/>
<path d="M328.322 245.285C328.038 245.596 327.643 245.783 327.223 245.805C326.802 245.827 326.39 245.682 326.076 245.401L321.462 240.855C321.15 240.571 320.963 240.176 320.941 239.756C320.92 239.335 321.065 238.923 321.346 238.609C321.63 238.299 322.025 238.113 322.446 238.092C322.867 238.072 323.278 238.218 323.591 238.5L328.206 243.046C328.517 243.328 328.704 243.722 328.725 244.142C328.747 244.561 328.602 244.972 328.322 245.285Z" fill="#F9AD8C"/>
<path d="M330.547 243.169C330.263 243.479 329.868 243.665 329.448 243.686C329.028 243.708 328.616 243.564 328.301 243.285L323.687 238.773C323.377 238.489 323.191 238.094 323.169 237.674C323.148 237.254 323.292 236.842 323.571 236.527C323.855 236.217 324.25 236.031 324.67 236.01C325.09 235.988 325.502 236.132 325.817 236.411L330.431 240.957C330.732 241.239 330.913 241.627 330.935 242.04C330.956 242.452 330.817 242.857 330.547 243.169Z" fill="#F9AD8C"/>
<path d="M326.909 247.401C326.647 247.731 326.265 247.944 325.846 247.992C325.428 248.041 325.007 247.922 324.677 247.66L319.782 243.421C319.452 243.16 319.24 242.777 319.191 242.359C319.142 241.94 319.262 241.52 319.523 241.189C319.652 241.025 319.812 240.888 319.995 240.786C320.177 240.684 320.378 240.619 320.585 240.595C320.793 240.571 321.003 240.588 321.204 240.646C321.404 240.703 321.592 240.8 321.755 240.93L326.649 245.169C326.978 245.432 327.189 245.814 327.238 246.232C327.287 246.649 327.168 247.07 326.909 247.401Z" fill="#F9AD8C"/>
<path d="M328.083 239.913C327.787 240.718 327.657 241.575 327.699 242.433C327.741 243.29 327.955 244.13 328.329 244.902C328.547 245.206 328.828 245.457 329.153 245.641C329.478 245.824 329.84 245.935 330.212 245.965C330.584 245.995 330.958 245.943 331.308 245.814C331.658 245.685 331.976 245.481 332.24 245.216L335.209 242.254C335.669 241.795 335.938 241.178 335.962 240.529C335.986 239.879 335.764 239.244 335.339 238.752L333.339 236.438L328.083 239.913Z" fill="#F9AD8C"/>
<path d="M332.199 237.189L328.103 239.92C327.726 240.957 327.622 242.073 327.803 243.162C330.929 242.623 331.899 239.203 332.199 237.189Z" fill="#F29D7E"/>
<path d="M325.045 239.954L329.762 235.244C329.918 235.087 330.104 234.962 330.308 234.877C330.513 234.792 330.732 234.748 330.953 234.748C331.175 234.748 331.394 234.792 331.598 234.877C331.803 234.962 331.988 235.087 332.144 235.244L333.339 236.438L329.557 240.213C329.265 240.509 328.916 240.742 328.53 240.897C328.144 241.053 327.73 241.126 327.314 241.114C326.898 241.102 326.489 241.004 326.113 240.827C325.737 240.649 325.401 240.396 325.127 240.083C325.052 240.001 325.025 239.954 325.045 239.954Z" fill="#F2A17E"/>
<path d="M335.712 241.787L327.709 249.369L337.928 260.157L345.931 252.575L335.712 241.787Z" fill="white"/>
<path d="M346.588 264.814L365.762 244.916C366.959 243.707 368.587 243.023 370.288 243.014C371.99 243.005 373.625 243.672 374.834 244.868C376.043 246.065 376.727 247.693 376.736 249.394C376.745 251.095 376.078 252.73 374.882 253.94L357.496 272.002C357.262 272.243 356.982 272.436 356.673 272.569C356.364 272.702 356.032 272.773 355.696 272.777C355.359 272.78 355.026 272.717 354.714 272.591C354.402 272.465 354.118 272.279 353.878 272.043L346.588 264.814Z" fill="#3E3D5E"/>
<path d="M372.343 243.326C372.09 243.241 371.833 243.173 371.571 243.121C369.872 245.66 365.319 253.483 366.909 262.193L374.076 254.746L372.343 243.326Z" fill="#262638"/>
<path d="M338.486 243.237L357.837 262.848C359.014 264.077 359.654 265.724 359.617 267.425C359.58 269.126 358.869 270.743 357.639 271.92C356.41 273.094 354.764 273.731 353.065 273.693C351.365 273.655 349.75 272.943 348.575 271.715L329.223 252.104L338.486 243.237Z" fill="#3E3D5E"/>
<path d="M436.186 272.009L424.343 247.026C423.593 245.499 422.266 244.333 420.656 243.783C419.046 243.234 417.283 243.347 415.756 244.097C414.231 244.848 413.066 246.173 412.517 247.782C411.968 249.39 412.08 251.151 412.828 252.678L423.538 275.333C423.682 275.637 423.886 275.908 424.136 276.133C424.386 276.358 424.678 276.53 424.995 276.641C425.313 276.752 425.649 276.8 425.985 276.78C426.32 276.761 426.649 276.675 426.951 276.528L436.186 272.009Z" fill="#3E3D5E"/>
<path d="M418.596 243.442C418.865 243.444 419.134 243.46 419.401 243.49C420.2 246.445 422.029 255.312 417.749 263.06L413.299 253.715L418.596 243.442Z" fill="#262638"/>
<path d="M392.568 237.032H393.981C398.643 237.032 403.114 238.884 406.41 242.18C409.706 245.477 411.558 249.948 411.558 254.609V304.603H374.991V254.609C374.991 249.948 376.843 245.477 380.139 242.18C383.436 238.884 387.906 237.032 392.568 237.032Z" fill="white"/>
<path d="M389.135 269.974C390.282 273.176 393.619 280.214 393.619 280.214C395.332 276.97 396.826 273.615 398.09 270.172L393.503 248.732L389.135 269.974Z" fill="#3292E7"/>
<path d="M419.592 243.503L401.988 235.995C403.155 239.633 408.179 251.694 393.619 274.152C379.565 253.51 384.063 239.633 385.251 235.995L367.64 243.503C367.64 243.503 367.469 257.599 374.008 276.214L373.933 309.552H390.432L393.244 306.432L396.616 309.552H413.299L413.224 276.214C419.77 257.599 419.592 243.503 419.592 243.503Z" fill="#3E3D5E"/>
<path d="M393.271 273.66C381.667 256.343 383.155 243.865 384.575 238.295L383.961 237.933C383.961 237.933 379.524 241.203 374.991 250.145L379.039 251.462L376.739 255.783C376.739 255.783 386.295 270.343 393.271 273.674V273.66Z" fill="#56567C"/>
<path d="M393.886 273.66C405.49 256.343 404.002 243.865 402.589 238.295L403.196 237.933C403.196 237.933 407.633 241.203 412.173 250.145L408.125 251.462L410.425 255.783C410.425 255.783 400.869 270.343 393.886 273.674V273.66Z" fill="#56567C"/>
<path d="M398.732 244.855C397.374 243.498 395.533 242.735 393.613 242.735C391.693 242.735 389.851 243.498 388.493 244.855L393.613 249.974L398.732 244.855Z" fill="#3292E7"/>
<path d="M401.852 238.486C401.852 219.558 398.152 229.394 393.592 229.394C389.032 229.394 385.312 220.779 385.312 238.486C385.312 245.121 389.005 244.548 393.565 244.548C398.125 244.548 401.852 245.121 401.852 238.486Z" fill="#FFB692"/>
<path d="M385.51 232.957C386.288 222.821 389.606 229.394 393.592 229.394C398.008 229.394 401.613 220.172 401.838 236.773C394.787 239.08 389.312 236.404 385.51 232.957Z" fill="#D88D87"/>
<path d="M404.555 240.343C403.422 236.616 401.824 235.483 401.824 235.483C400.99 237.071 399.829 238.465 398.417 239.572C397.005 240.679 395.375 241.474 393.633 241.906C391.892 241.474 390.261 240.679 388.849 239.572C387.438 238.465 386.276 237.071 385.442 235.483C385.442 235.483 383.817 236.616 382.711 240.343C381.606 244.07 384.548 248.718 384.548 248.718L393.654 244.561L402.759 248.718C402.759 248.718 405.695 244.07 404.555 240.343Z" fill="#E8E8F9"/>
<path d="M396.807 194.458H389.462C386.7 194.467 384.053 195.569 382.1 197.524C380.147 199.478 379.046 202.126 379.039 204.888V220.063C379.05 223.919 380.587 227.614 383.313 230.341C386.04 233.068 389.736 234.605 393.592 234.616C397.449 234.605 401.145 233.068 403.873 230.342C406.601 227.615 408.139 223.92 408.152 220.063V205.803C408.143 202.797 406.945 199.917 404.819 197.791C402.694 195.665 399.813 194.467 396.807 194.458Z" fill="#FFB692"/>
<path d="M406.882 200.608C405.926 198.761 404.48 197.211 402.704 196.128C400.927 195.044 398.888 194.469 396.807 194.465H389.462C386.7 194.474 384.053 195.576 382.1 197.53C380.147 199.485 379.046 202.132 379.039 204.895V205.018C388.725 209.619 400.466 204.363 406.882 200.608Z" fill="#D88D87"/>
<path d="M377.94 209.776C368.971 195.953 379.449 181.789 388.411 187.421C397.374 193.052 409.046 190.445 410.015 198.438C410.527 203.545 409.787 208.699 407.858 213.455H406.835C406.835 213.455 400.459 209.359 404.507 200.602C404.507 200.602 393.053 209.005 380.036 203.284L381.858 201.639L379.305 202.322C379.305 202.322 381.681 210.247 379.039 212.192L377.94 209.776Z" fill="#262638"/>
<path d="M406.582 193.578C399.797 195.899 385.769 198.998 379.019 188.185C377.631 189.389 376.534 190.892 375.81 192.581C380.613 195.767 386.148 197.678 391.893 198.134C397.638 198.59 403.405 197.577 408.65 195.189C408.067 194.528 407.366 193.981 406.582 193.578Z" fill="#3C3C60"/>
<path d="M398.964 211.79L396.391 211.646C396.008 211.625 395.649 211.453 395.393 211.168C395.137 210.882 395.005 210.507 395.026 210.124C395.048 209.742 395.221 209.384 395.506 209.129C395.791 208.873 396.165 208.74 396.548 208.759L399.128 208.902C399.511 208.923 399.869 209.095 400.125 209.381C400.381 209.666 400.514 210.042 400.493 210.424C400.47 210.808 400.297 211.166 400.01 211.422C399.724 211.678 399.348 211.81 398.964 211.79Z" fill="#262638"/>
<path d="M386.582 211.605L384.015 211.899C383.633 211.939 383.25 211.827 382.95 211.587C382.649 211.346 382.456 210.997 382.411 210.615C382.371 210.233 382.483 209.85 382.723 209.55C382.963 209.249 383.312 209.056 383.694 209.011L386.254 208.725C386.636 208.682 387.019 208.793 387.319 209.032C387.62 209.271 387.814 209.62 387.858 210.001C387.901 210.383 387.79 210.766 387.551 211.066C387.312 211.367 386.963 211.561 386.582 211.605Z" fill="#262638"/>
<path d="M388.411 218.745C388.411 218.745 392.213 219.428 392.227 220.152C392.241 220.875 390.398 221.203 389.886 220.902C389.374 220.602 388.411 218.745 388.411 218.745Z" fill="#D88D87"/>
<path d="M387.162 214.254C387.163 214.572 387.07 214.883 386.894 215.148C386.719 215.412 386.468 215.619 386.175 215.741C385.881 215.864 385.558 215.896 385.247 215.834C384.935 215.773 384.648 215.62 384.424 215.395C384.199 215.17 384.046 214.884 383.984 214.572C383.923 214.26 383.955 213.937 384.077 213.644C384.199 213.35 384.406 213.1 384.671 212.924C384.936 212.748 385.247 212.655 385.565 212.657C385.988 212.658 386.393 212.827 386.692 213.126C386.991 213.425 387.16 213.831 387.162 214.254Z" fill="#34344F"/>
<path d="M398.677 214.254C398.679 214.571 398.586 214.882 398.41 215.147C398.235 215.412 397.985 215.618 397.692 215.741C397.399 215.863 397.076 215.896 396.765 215.835C396.453 215.774 396.167 215.621 395.941 215.397C395.716 215.173 395.563 214.887 395.501 214.576C395.438 214.265 395.469 213.942 395.591 213.648C395.712 213.355 395.917 213.104 396.181 212.927C396.445 212.751 396.756 212.656 397.073 212.656C397.498 212.656 397.905 212.825 398.205 213.124C398.506 213.423 398.676 213.83 398.677 214.254Z" fill="#34344F"/>
<path d="M391.456 210.5C391.025 212.336 390.479 214.11 389.892 215.878C389.592 216.766 389.292 217.646 388.957 218.513L388.896 218.677C388.896 218.752 388.896 218.629 388.896 218.568C388.944 218.641 388.999 218.71 389.06 218.773L389.537 219.244C389.865 219.571 390.22 219.926 390.52 220.268C390.063 220.121 389.623 219.924 389.21 219.68C388.995 219.56 388.789 219.423 388.595 219.271C388.477 219.183 388.372 219.08 388.281 218.964C388.246 218.91 388.216 218.853 388.193 218.793C388.165 218.702 388.165 218.604 388.193 218.513L388.247 218.343C388.548 217.455 388.882 216.575 389.223 215.694C389.906 213.926 390.63 212.186 391.456 210.5Z" fill="#D88D87"/>
<path d="M388.821 223.121C391.033 222.856 393.212 222.369 395.326 221.667C396.848 221.134 398.104 223.087 397.258 224.711C396.806 225.696 396.094 226.539 395.2 227.15C394.305 227.761 393.261 228.116 392.179 228.179C390.022 228.302 388.671 227.687 387.817 226.868C386.609 225.701 387.258 223.312 388.821 223.121Z" fill="#34344F"/>
<path d="M392.179 228.179C393.261 228.116 394.305 227.761 395.2 227.15C396.094 226.539 396.806 225.696 397.258 224.711C397.374 224.476 397.455 224.226 397.497 223.967C396.29 223.437 394.943 223.315 393.66 223.619C392.596 223.816 391.607 224.303 390.802 225.025C389.996 225.748 389.405 226.678 389.094 227.715C390.072 228.108 391.129 228.267 392.179 228.179Z" fill="#FF9292"/>
<path d="M390.991 225.995C391.237 226.445 392.227 226.404 393.21 225.906C394.193 225.408 394.794 224.629 394.575 224.179C394.357 223.728 393.34 223.769 392.357 224.268C391.374 224.766 390.773 225.544 390.991 225.995Z" fill="#FFABAB"/>
<path d="M388.821 223.121C391.033 222.857 393.212 222.369 395.326 221.667C395.538 221.605 395.76 221.587 395.979 221.614C396.199 221.64 396.41 221.711 396.602 221.821C396.793 221.931 396.96 222.079 397.093 222.255C397.225 222.432 397.321 222.633 397.374 222.848C395.665 224.163 393.636 225 391.497 225.271C390.063 225.504 388.602 225.504 387.169 225.271C387.135 224.773 387.284 224.279 387.588 223.883C387.892 223.487 388.331 223.216 388.821 223.121Z" fill="white"/>
<path d="M404.739 213.742C403.852 216.52 404.664 219.271 406.548 219.885C408.432 220.5 410.678 218.759 411.565 215.981C412.452 213.203 411.64 210.445 409.756 209.837C407.872 209.23 405.626 210.957 404.739 213.742Z" fill="#FFB692"/>
<path d="M406.746 214.302C406.459 214.21 406.153 214.195 405.858 214.261C405.869 214.212 405.883 214.164 405.899 214.117C406.48 212.288 407.947 211.128 409.21 211.537C410.473 211.947 410.992 213.769 410.405 215.633C410.256 216.239 409.955 216.798 409.531 217.256C409.108 217.715 408.574 218.058 407.981 218.254C408.521 216.438 407.961 214.698 406.746 214.302Z" fill="#D88D87"/>
<path d="M412.213 297.64L406.855 305.586L405.906 311.763L408.329 315.081C408.329 315.081 413.872 314.692 414.807 313.197L414.125 311.074L414.159 309.654C414.159 309.654 418.568 307.142 419.21 303.128C419.852 299.115 412.213 297.64 412.213 297.64Z" fill="#FFB692"/>
<path d="M427.141 290.539L417.421 285.338L410.41 298.441L420.13 303.642L427.141 290.539Z" fill="white"/>
<path d="M422.432 301.497L435.92 277.47C436.719 275.976 436.896 274.228 436.411 272.605C435.927 270.983 434.82 269.618 433.333 268.807C432.593 268.406 431.781 268.155 430.943 268.068C430.106 267.982 429.259 268.06 428.452 268.301C427.645 268.541 426.894 268.938 426.24 269.469C425.587 269.999 425.044 270.654 424.644 271.394L411.149 295.422L422.432 301.497Z" fill="#3E3D5E"/>
<path d="M393.619 274.166L393.237 306.432" stroke="#262638" stroke-width="0.682601" stroke-miterlimit="10"/>
<defs>
<filter id="filter0_dd_836_4020" x="410.181" y="101.517" width="11.0086" height="11.0831" filterUnits="userSpaceOnUse" color-interpolation-filters="sRGB">
<feFlood flood-opacity="0" result="BackgroundImageFix"/>
<feColorMatrix in="SourceAlpha" type="matrix" values="0 0 0 0 0 0 0 0 0 0 0 0 0 0 0 0 0 0 127 0" result="hardAlpha"/>
<feOffset dy="0.422925"/>
<feGaussianBlur stdDeviation="0.422925"/>
<feColorMatrix type="matrix" values="0 0 0 0 0 0 0 0 0 0 0 0 0 0 0 0 0 0 0.2 0"/>
<feBlend mode="normal" in2="BackgroundImageFix" result="effect1_dropShadow_836_4020"/>
<feColorMatrix in="SourceAlpha" type="matrix" values="0 0 0 0 0 0 0 0 0 0 0 0 0 0 0 0 0 0 127 0" result="hardAlpha"/>
<feOffset dy="0.0422925"/>
<feGaussianBlur stdDeviation="0.0634388"/>
<feColorMatrix type="matrix" values="0 0 0 0 0 0 0 0 0 0 0 0 0 0 0 0 0 0 0.1 0"/>
<feBlend mode="normal" in2="effect1_dropShadow_836_4020" result="effect2_dropShadow_836_4020"/>
<feBlend mode="normal" in="SourceGraphic" in2="effect2_dropShadow_836_4020" result="shape"/>
</filter>
<linearGradient id="paint0_linear_836_4020" x1="509.551" y1="268.832" x2="509.551" y2="274.507" gradientUnits="userSpaceOnUse">
<stop stop-color="white"/>
<stop offset="1"/>
</linearGradient>
<linearGradient id="paint1_linear_836_4020" x1="522.876" y1="248.835" x2="505.038" y2="279.732" gradientUnits="userSpaceOnUse">
<stop stop-color="white"/>
<stop offset="0.63"/>
</linearGradient>
<clipPath id="clip0_836_4020">
<rect width="16.8499" height="16.8499" fill="white" transform="translate(240 98.5264)"/>
</clipPath>
<clipPath id="clip1_836_4020">
<rect width="26.7018" height="26.7018" fill="white" transform="translate(455.97 98.3145)"/>
</clipPath>
<clipPath id="clip2_836_4020">
<rect width="25.1591" height="25.1591" fill="white" transform="translate(11.1228 105.464)"/>
</clipPath>
<clipPath id="clip3_836_4020">
<rect width="29.1192" height="29.1192" fill="white" transform="translate(70.6515 26.7319)"/>
</clipPath>
</defs>
</svg>
