<svg width="200" height="200" viewBox="0 0 151 194" fill="none" xmlns="http://www.w3.org/2000/svg">
<path d="M24.7402 174.781V189H22.8457L15.6875 178.033V189H13.8027V174.781H15.6875L22.875 185.777V174.781H24.7402ZM27.3281 183.834V183.609C27.3281 182.848 27.4388 182.141 27.6602 181.49C27.8815 180.833 28.2005 180.263 28.6172 179.781C29.0339 179.293 29.5384 178.915 30.1309 178.648C30.7233 178.375 31.3874 178.238 32.123 178.238C32.8652 178.238 33.5326 178.375 34.125 178.648C34.724 178.915 35.2318 179.293 35.6484 179.781C36.0716 180.263 36.3939 180.833 36.6152 181.49C36.8366 182.141 36.9473 182.848 36.9473 183.609V183.834C36.9473 184.596 36.8366 185.302 36.6152 185.953C36.3939 186.604 36.0716 187.174 35.6484 187.662C35.2318 188.144 34.7272 188.521 34.1348 188.795C33.5488 189.062 32.8848 189.195 32.1426 189.195C31.4004 189.195 30.7331 189.062 30.1406 188.795C29.5482 188.521 29.0404 188.144 28.6172 187.662C28.2005 187.174 27.8815 186.604 27.6602 185.953C27.4388 185.302 27.3281 184.596 27.3281 183.834ZM29.1348 183.609V183.834C29.1348 184.361 29.1966 184.859 29.3203 185.328C29.444 185.79 29.6296 186.201 29.877 186.559C30.1309 186.917 30.4466 187.2 30.8242 187.408C31.2018 187.61 31.6413 187.711 32.1426 187.711C32.6374 187.711 33.0703 187.61 33.4414 187.408C33.819 187.2 34.1315 186.917 34.3789 186.559C34.6263 186.201 34.8118 185.79 34.9355 185.328C35.0658 184.859 35.1309 184.361 35.1309 183.834V183.609C35.1309 183.089 35.0658 182.597 34.9355 182.135C34.8118 181.666 34.623 181.253 34.3691 180.895C34.1217 180.53 33.8092 180.243 33.4316 180.035C33.0605 179.827 32.6243 179.723 32.123 179.723C31.6283 179.723 31.1921 179.827 30.8145 180.035C30.4434 180.243 30.1309 180.53 29.877 180.895C29.6296 181.253 29.444 181.666 29.3203 182.135C29.1966 182.597 29.1348 183.089 29.1348 183.609ZM48.2949 189H45.3262L45.3457 187.467H48.2949C49.3105 187.467 50.1569 187.255 50.834 186.832C51.5111 186.402 52.0189 185.803 52.3574 185.035C52.7025 184.26 52.875 183.355 52.875 182.32V181.451C52.875 180.637 52.7773 179.915 52.582 179.283C52.3867 178.645 52.1003 178.108 51.7227 177.672C51.3451 177.229 50.8828 176.894 50.3359 176.666C49.7956 176.438 49.1738 176.324 48.4707 176.324H45.2676V174.781H48.4707C49.4017 174.781 50.2513 174.938 51.0195 175.25C51.7878 175.556 52.4486 176.002 53.002 176.588C53.5618 177.167 53.9915 177.87 54.291 178.697C54.5905 179.518 54.7402 180.442 54.7402 181.471V182.32C54.7402 183.349 54.5905 184.277 54.291 185.104C53.9915 185.924 53.5586 186.624 52.9922 187.203C52.4323 187.783 51.7552 188.229 50.9609 188.541C50.1732 188.847 49.2845 189 48.2949 189ZM46.332 174.781V189H44.4473V174.781H46.332ZM63.5293 187.193V181.754C63.5293 181.337 63.4447 180.976 63.2754 180.67C63.1126 180.357 62.8652 180.117 62.5332 179.947C62.2012 179.778 61.791 179.693 61.3027 179.693C60.847 179.693 60.4466 179.771 60.1016 179.928C59.763 180.084 59.4961 180.289 59.3008 180.543C59.112 180.797 59.0176 181.07 59.0176 181.363H57.2109C57.2109 180.986 57.3086 180.611 57.5039 180.24C57.6992 179.869 57.9792 179.534 58.3438 179.234C58.7148 178.928 59.1576 178.688 59.6719 178.512C60.1927 178.329 60.7721 178.238 61.4102 178.238C62.1784 178.238 62.8555 178.368 63.4414 178.629C64.0339 178.889 64.4961 179.283 64.8281 179.811C65.1667 180.331 65.3359 180.986 65.3359 181.773V186.695C65.3359 187.047 65.3652 187.421 65.4238 187.818C65.4889 188.215 65.5833 188.557 65.707 188.844V189H63.8223C63.7311 188.792 63.6595 188.515 63.6074 188.17C63.5553 187.818 63.5293 187.493 63.5293 187.193ZM63.8418 182.594L63.8613 183.863H62.0352C61.5208 183.863 61.0618 183.906 60.6582 183.99C60.2546 184.068 59.916 184.189 59.6426 184.352C59.3691 184.514 59.1608 184.719 59.0176 184.967C58.8743 185.208 58.8027 185.491 58.8027 185.816C58.8027 186.148 58.8776 186.451 59.0273 186.725C59.1771 186.998 59.4017 187.216 59.7012 187.379C60.0072 187.535 60.3815 187.613 60.8242 187.613C61.3776 187.613 61.8659 187.496 62.2891 187.262C62.7122 187.027 63.0475 186.741 63.2949 186.402C63.5488 186.064 63.6855 185.735 63.7051 185.416L64.4766 186.285C64.431 186.559 64.3073 186.861 64.1055 187.193C63.9036 187.525 63.6335 187.844 63.2949 188.15C62.9629 188.45 62.5658 188.701 62.1035 188.902C61.6478 189.098 61.1335 189.195 60.5605 189.195C59.8444 189.195 59.2161 189.055 58.6758 188.775C58.1419 188.495 57.7253 188.121 57.4258 187.652C57.1328 187.177 56.9863 186.646 56.9863 186.061C56.9863 185.494 57.097 184.996 57.3184 184.566C57.5397 184.13 57.8587 183.769 58.2754 183.482C58.6921 183.189 59.1934 182.968 59.7793 182.818C60.3652 182.669 61.0195 182.594 61.7422 182.594H63.8418ZM72.6016 178.434V179.82H66.8887V178.434H72.6016ZM68.8223 175.865H70.6289V186.383C70.6289 186.741 70.6842 187.011 70.7949 187.193C70.9056 187.376 71.0488 187.496 71.2246 187.555C71.4004 187.613 71.5892 187.643 71.791 187.643C71.9408 187.643 72.097 187.63 72.2598 187.604C72.429 187.571 72.556 187.545 72.6406 187.525L72.6504 189C72.5072 189.046 72.3184 189.088 72.084 189.127C71.8561 189.173 71.5794 189.195 71.2539 189.195C70.8112 189.195 70.4043 189.107 70.0332 188.932C69.6621 188.756 69.3659 188.463 69.1445 188.053C68.9297 187.636 68.8223 187.076 68.8223 186.373V175.865ZM80.9512 187.193V181.754C80.9512 181.337 80.8665 180.976 80.6973 180.67C80.5345 180.357 80.2871 180.117 79.9551 179.947C79.623 179.778 79.2129 179.693 78.7246 179.693C78.2689 179.693 77.8685 179.771 77.5234 179.928C77.1849 180.084 76.918 180.289 76.7227 180.543C76.5339 180.797 76.4395 181.07 76.4395 181.363H74.6328C74.6328 180.986 74.7305 180.611 74.9258 180.24C75.1211 179.869 75.401 179.534 75.7656 179.234C76.1367 178.928 76.5794 178.688 77.0938 178.512C77.6146 178.329 78.194 178.238 78.832 178.238C79.6003 178.238 80.2773 178.368 80.8633 178.629C81.4557 178.889 81.918 179.283 82.25 179.811C82.5885 180.331 82.7578 180.986 82.7578 181.773V186.695C82.7578 187.047 82.7871 187.421 82.8457 187.818C82.9108 188.215 83.0052 188.557 83.1289 188.844V189H81.2441C81.153 188.792 81.0814 188.515 81.0293 188.17C80.9772 187.818 80.9512 187.493 80.9512 187.193ZM81.2637 182.594L81.2832 183.863H79.457C78.9427 183.863 78.4837 183.906 78.0801 183.99C77.6764 184.068 77.3379 184.189 77.0645 184.352C76.791 184.514 76.5827 184.719 76.4395 184.967C76.2962 185.208 76.2246 185.491 76.2246 185.816C76.2246 186.148 76.2995 186.451 76.4492 186.725C76.599 186.998 76.8236 187.216 77.123 187.379C77.429 187.535 77.8034 187.613 78.2461 187.613C78.7995 187.613 79.2878 187.496 79.7109 187.262C80.1341 187.027 80.4694 186.741 80.7168 186.402C80.9707 186.064 81.1074 185.735 81.127 185.416L81.8984 186.285C81.8529 186.559 81.7292 186.861 81.5273 187.193C81.3255 187.525 81.0553 187.844 80.7168 188.15C80.3848 188.45 79.9876 188.701 79.5254 188.902C79.0697 189.098 78.5553 189.195 77.9824 189.195C77.2663 189.195 76.638 189.055 76.0977 188.775C75.5638 188.495 75.1471 188.121 74.8477 187.652C74.5547 187.177 74.4082 186.646 74.4082 186.061C74.4082 185.494 74.5189 184.996 74.7402 184.566C74.9616 184.13 75.2806 183.769 75.6973 183.482C76.1139 183.189 76.6152 182.968 77.2012 182.818C77.7871 182.669 78.4414 182.594 79.1641 182.594H81.2637ZM92.7188 174.781V189H90.834V174.781H92.7188ZM98.6758 181.178V182.721H92.3086V181.178H98.6758ZM99.6426 174.781V176.324H92.3086V174.781H99.6426ZM100.922 183.834V183.609C100.922 182.848 101.033 182.141 101.254 181.49C101.475 180.833 101.794 180.263 102.211 179.781C102.628 179.293 103.132 178.915 103.725 178.648C104.317 178.375 104.981 178.238 105.717 178.238C106.459 178.238 107.126 178.375 107.719 178.648C108.318 178.915 108.826 179.293 109.242 179.781C109.665 180.263 109.988 180.833 110.209 181.49C110.43 182.141 110.541 182.848 110.541 183.609V183.834C110.541 184.596 110.43 185.302 110.209 185.953C109.988 186.604 109.665 187.174 109.242 187.662C108.826 188.144 108.321 188.521 107.729 188.795C107.143 189.062 106.479 189.195 105.736 189.195C104.994 189.195 104.327 189.062 103.734 188.795C103.142 188.521 102.634 188.144 102.211 187.662C101.794 187.174 101.475 186.604 101.254 185.953C101.033 185.302 100.922 184.596 100.922 183.834ZM102.729 183.609V183.834C102.729 184.361 102.79 184.859 102.914 185.328C103.038 185.79 103.223 186.201 103.471 186.559C103.725 186.917 104.04 187.2 104.418 187.408C104.796 187.61 105.235 187.711 105.736 187.711C106.231 187.711 106.664 187.61 107.035 187.408C107.413 187.2 107.725 186.917 107.973 186.559C108.22 186.201 108.406 185.79 108.529 185.328C108.66 184.859 108.725 184.361 108.725 183.834V183.609C108.725 183.089 108.66 182.597 108.529 182.135C108.406 181.666 108.217 181.253 107.963 180.895C107.715 180.53 107.403 180.243 107.025 180.035C106.654 179.827 106.218 179.723 105.717 179.723C105.222 179.723 104.786 179.827 104.408 180.035C104.037 180.243 103.725 180.53 103.471 180.895C103.223 181.253 103.038 181.666 102.914 182.135C102.79 182.597 102.729 183.089 102.729 183.609ZM119.271 186.559V178.434H121.088V189H119.359L119.271 186.559ZM119.613 184.332L120.365 184.312C120.365 185.016 120.29 185.667 120.141 186.266C119.997 186.858 119.763 187.372 119.438 187.809C119.112 188.245 118.686 188.587 118.158 188.834C117.631 189.075 116.99 189.195 116.234 189.195C115.72 189.195 115.248 189.12 114.818 188.971C114.395 188.821 114.031 188.59 113.725 188.277C113.419 187.965 113.181 187.558 113.012 187.057C112.849 186.555 112.768 185.953 112.768 185.25V178.434H114.574V185.27C114.574 185.745 114.626 186.139 114.73 186.451C114.841 186.757 114.988 187.001 115.17 187.184C115.359 187.359 115.567 187.483 115.795 187.555C116.029 187.626 116.27 187.662 116.518 187.662C117.286 187.662 117.895 187.516 118.344 187.223C118.793 186.923 119.115 186.523 119.311 186.021C119.512 185.514 119.613 184.951 119.613 184.332ZM125.648 180.689V189H123.842V178.434H125.551L125.648 180.689ZM125.219 183.316L124.467 183.287C124.473 182.564 124.581 181.897 124.789 181.285C124.997 180.667 125.29 180.13 125.668 179.674C126.046 179.218 126.495 178.867 127.016 178.619C127.543 178.365 128.126 178.238 128.764 178.238C129.285 178.238 129.753 178.31 130.17 178.453C130.587 178.59 130.941 178.811 131.234 179.117C131.534 179.423 131.762 179.82 131.918 180.309C132.074 180.79 132.152 181.38 132.152 182.076V189H130.336V182.057C130.336 181.503 130.255 181.061 130.092 180.729C129.929 180.39 129.691 180.146 129.379 179.996C129.066 179.84 128.682 179.762 128.227 179.762C127.777 179.762 127.367 179.856 126.996 180.045C126.632 180.234 126.316 180.494 126.049 180.826C125.788 181.158 125.583 181.539 125.434 181.969C125.29 182.392 125.219 182.841 125.219 183.316ZM141.557 186.949V174H143.373V189H141.713L141.557 186.949ZM134.447 183.834V183.629C134.447 182.822 134.545 182.089 134.74 181.432C134.942 180.768 135.225 180.198 135.59 179.723C135.961 179.247 136.4 178.883 136.908 178.629C137.423 178.368 137.995 178.238 138.627 178.238C139.291 178.238 139.87 178.355 140.365 178.59C140.867 178.818 141.29 179.153 141.635 179.596C141.986 180.032 142.263 180.559 142.465 181.178C142.667 181.796 142.807 182.496 142.885 183.277V184.176C142.813 184.951 142.673 185.647 142.465 186.266C142.263 186.884 141.986 187.411 141.635 187.848C141.29 188.284 140.867 188.619 140.365 188.854C139.864 189.081 139.278 189.195 138.607 189.195C137.989 189.195 137.423 189.062 136.908 188.795C136.4 188.528 135.961 188.154 135.59 187.672C135.225 187.19 134.942 186.624 134.74 185.973C134.545 185.315 134.447 184.602 134.447 183.834ZM136.264 183.629V183.834C136.264 184.361 136.316 184.856 136.42 185.318C136.531 185.781 136.7 186.188 136.928 186.539C137.156 186.891 137.445 187.167 137.797 187.369C138.148 187.564 138.568 187.662 139.057 187.662C139.656 187.662 140.147 187.535 140.531 187.281C140.922 187.027 141.234 186.692 141.469 186.275C141.703 185.859 141.885 185.406 142.016 184.918V182.564C141.938 182.206 141.824 181.861 141.674 181.529C141.531 181.191 141.342 180.891 141.107 180.631C140.88 180.364 140.596 180.152 140.258 179.996C139.926 179.84 139.532 179.762 139.076 179.762C138.581 179.762 138.155 179.866 137.797 180.074C137.445 180.276 137.156 180.556 136.928 180.914C136.7 181.266 136.531 181.676 136.42 182.145C136.316 182.607 136.264 183.102 136.264 183.629Z" fill="black"/>
<g clip-path="url(#clip0_1_4154)">
<mask id="mask0_1_4154" style="mask-type:luminance" maskUnits="userSpaceOnUse" x="0" y="0" width="151" height="151">
<path d="M151 0H0V151H151V0Z" fill="white"/>
</mask>
<g mask="url(#mask0_1_4154)">
<path d="M75.4999 135.397C87.4458 135.397 99.1236 131.854 109.056 125.217C118.989 118.581 126.731 109.147 131.302 98.1108C135.874 87.0741 137.07 74.9297 134.739 63.2133C132.409 51.4968 126.656 40.7345 118.209 32.2875C109.762 23.8404 98.9998 18.0878 87.2833 15.7573C75.5669 13.4267 63.4224 14.6229 52.3858 19.1944C41.3491 23.7659 31.9159 31.5075 25.2791 41.4403C18.6423 51.373 15.0999 63.0507 15.0999 74.9967C15.0999 91.0158 21.4634 106.379 32.7906 117.706C44.1178 129.033 59.4808 135.397 75.4999 135.397Z" fill="url(#paint0_linear_1_4154)"/>
<path d="M99.4282 31.9919H52.8497C48.402 31.9919 44.7964 35.5975 44.7964 40.0452V101.97C44.7964 106.418 48.402 110.024 52.8497 110.024H99.4282C103.876 110.024 107.482 106.418 107.482 101.97V40.0452C107.482 35.5975 103.876 31.9919 99.4282 31.9919Z" fill="url(#paint1_linear_1_4154)"/>
<path d="M73.0333 42.0586H52.7993C51.4372 42.0586 50.333 43.1628 50.333 44.5249C50.333 45.887 51.4372 46.9913 52.7993 46.9913H73.0333C74.3955 46.9913 75.4997 45.887 75.4997 44.5249C75.4997 43.1628 74.3955 42.0586 73.0333 42.0586Z" fill="black"/>
<path d="M98.2 56.0513H52.7993C51.4372 56.0513 50.333 57.1555 50.333 58.5176C50.333 59.8797 51.4372 60.9839 52.7993 60.9839H98.2C99.5621 60.9839 100.666 59.8797 100.666 58.5176C100.666 57.1555 99.5621 56.0513 98.2 56.0513Z" fill="#D5D5D5"/>
<path d="M98.2 70.0439H52.7993C51.4372 70.0439 50.333 71.1481 50.333 72.5102C50.333 73.8723 51.4372 74.9766 52.7993 74.9766H98.2C99.5621 74.9766 100.666 73.8723 100.666 72.5102C100.666 71.1481 99.5621 70.0439 98.2 70.0439Z" fill="#D5D5D5"/>
<path d="M98.2 84.0366H52.7993C51.4372 84.0366 50.333 85.1408 50.333 86.5029C50.333 87.865 51.4372 88.9692 52.7993 88.9692H98.2C99.5621 88.9692 100.666 87.865 100.666 86.5029C100.666 85.1408 99.5621 84.0366 98.2 84.0366Z" fill="#D5D5D5"/>
<path d="M52.7993 98.0292H98.2C98.8541 98.0292 99.4814 98.289 99.944 98.7515C100.406 99.2141 100.666 99.8414 100.666 100.496C100.666 101.15 100.406 101.777 99.944 102.239C99.4814 102.702 98.8541 102.962 98.2 102.962H52.7993C52.1452 102.962 51.5179 102.702 51.0554 102.239C50.5929 101.777 50.333 101.15 50.333 100.496C50.333 99.8414 50.5929 99.2141 51.0554 98.7515C51.5179 98.289 52.1452 98.0292 52.7993 98.0292Z" fill="#D5D5D5"/>
<path d="M145.035 23.3647H114.795C114.1 23.3832 113.441 23.6766 112.963 24.1806C112.484 24.6846 112.225 25.3578 112.243 26.0525V41.0116C112.227 41.7055 112.486 42.3774 112.965 42.8803C113.443 43.3832 114.101 43.6759 114.795 43.6944H145.035C145.729 43.6759 146.387 43.3832 146.866 42.8803C147.344 42.3774 147.603 41.7055 147.587 41.0116V26.0525C147.605 25.3578 147.346 24.6846 146.867 24.1806C146.389 23.6766 145.73 23.3832 145.035 23.3647Z" fill="white"/>
<path d="M119.793 36.7433C120.39 36.7433 120.974 36.5662 121.471 36.2343C121.968 35.9025 122.355 35.4308 122.583 34.879C122.812 34.3272 122.872 33.72 122.755 33.1341C122.639 32.5483 122.351 32.0102 121.929 31.5878C121.506 31.1655 120.968 30.8779 120.382 30.7613C119.797 30.6448 119.189 30.7046 118.637 30.9332C118.086 31.1618 117.614 31.5489 117.282 32.0455C116.95 32.5421 116.773 33.126 116.773 33.7233C116.773 34.5243 117.091 35.2924 117.658 35.8588C118.224 36.4251 118.992 36.7433 119.793 36.7433Z" fill="#35A476"/>
<path d="M129.86 30.7033H139.927C140.727 30.7033 141.496 31.0215 142.062 31.5878C142.628 32.1542 142.947 32.9224 142.947 33.7233C142.947 34.5243 142.628 35.2924 142.062 35.8588C141.496 36.4251 140.727 36.7433 139.927 36.7433H129.86C129.059 36.7433 128.291 36.4251 127.724 35.8588C127.158 35.2924 126.84 34.5243 126.84 33.7233C126.84 32.9224 127.158 32.1542 127.724 31.5878C128.291 31.0215 129.059 30.7033 129.86 30.7033Z" fill="#D5D5D5"/>
<path fill-rule="evenodd" clip-rule="evenodd" d="M93.1723 113.532C99.4086 113.545 105.506 111.694 110.683 108.217L131.169 127.771L138.598 119.154L118.832 100.284C122.914 94.5335 124.945 87.5785 124.6 80.5351C124.256 73.4918 121.555 66.7684 116.931 61.444C112.307 56.1195 106.029 52.5027 99.1035 51.1738C92.178 49.845 85.0069 50.8812 78.7409 54.1162C72.4749 57.3512 67.4773 62.5973 64.55 69.0129C61.6228 75.4284 60.9356 82.6414 62.5988 89.4942C64.262 96.3471 68.1791 102.443 73.7216 106.803C79.264 111.162 86.1105 113.534 93.1623 113.537L93.1723 113.532ZM120.005 82.0735C120.006 87.3421 118.445 92.4927 115.518 96.8738C112.592 101.255 108.432 104.67 103.564 106.686C98.6969 108.703 93.3408 109.231 88.1734 108.203C83.0059 107.176 78.2593 104.639 74.5339 100.913C70.8084 97.1879 68.2714 92.4412 67.2438 87.2738C66.2162 82.1064 66.7441 76.7503 68.7608 71.8829C70.7774 67.0155 74.1923 62.8556 78.5734 59.9291C82.9545 57.0026 88.1051 55.4412 93.3737 55.4421C100.437 55.4421 107.211 58.2479 112.205 63.2423C117.199 68.2366 120.005 75.0104 120.005 82.0735Z" fill="#35A476"/>
<path d="M93.3682 109.223C108.519 109.223 120.8 97.0527 120.8 82.0433C120.8 67.0339 108.519 54.8633 93.3682 54.8633C78.2179 54.8633 65.9365 67.0339 65.9365 82.0433C65.9365 97.0527 78.2179 109.223 93.3682 109.223Z" fill="white" fill-opacity="0.3"/>
<path d="M98.1101 82.0434L104.749 75.4296C105.212 74.9415 105.522 74.3288 105.642 73.6669C105.761 73.005 105.685 72.3226 105.421 71.7035C105.158 71.0844 104.72 70.5557 104.161 70.1822C103.602 69.8086 102.945 69.6066 102.273 69.601C101.368 69.5856 100.492 69.9231 99.8315 70.5422L93.1774 77.156L86.5385 70.5422C86.2202 70.2049 85.8366 69.936 85.411 69.752C84.984 69.5643 84.5234 69.465 84.057 69.46C83.5915 69.4508 83.1289 69.5352 82.6966 69.7081C82.2643 69.881 81.8711 70.139 81.5404 70.4667C81.2112 70.7932 80.9525 71.1838 80.7803 71.6143C80.6048 72.0416 80.5174 72.4999 80.5235 72.9618C80.5295 73.4237 80.6289 73.8796 80.8156 74.3021C81.0043 74.7249 81.2746 75.1063 81.6108 75.4245L88.275 82.0434L81.6209 88.6572C81.2846 88.9754 81.0144 89.3568 80.8256 89.7796C80.639 90.2021 80.5396 90.658 80.5336 91.1199C80.5275 91.5818 80.6149 92.0401 80.7904 92.4674C80.959 92.8988 81.2142 93.2911 81.5404 93.62C81.8711 93.9477 82.2643 94.2057 82.6966 94.3786C83.1289 94.5515 83.5915 94.6359 84.057 94.6267C84.5217 94.621 84.9805 94.5217 85.406 94.3348C85.8316 94.1507 86.2152 93.8818 86.5334 93.5445L93.1875 86.9307L99.8416 93.5445C100.507 94.1271 101.369 94.435 102.253 94.406C103.137 94.3771 103.977 94.0133 104.603 93.3885C105.229 92.7686 105.593 91.9317 105.619 91.051C105.646 90.1703 105.332 89.3132 104.744 88.6572L98.1101 82.0434Z" fill="#F96363"/>
<path d="M131.168 127.766L138.597 119.149L139.715 120.216C140.804 121.284 141.449 122.724 141.52 124.248C141.591 125.772 141.083 127.266 140.097 128.431C139.622 128.99 139.037 129.447 138.38 129.774C137.722 130.101 137.005 130.291 136.272 130.333C135.54 130.367 134.81 130.25 134.125 129.99C133.44 129.731 132.816 129.333 132.291 128.823L131.173 127.756L131.168 127.766Z" fill="#007B9E"/>
<path fill-rule="evenodd" clip-rule="evenodd" d="M28.3426 45.8889C28.3364 45.1574 28.2435 44.4292 28.0658 43.7195C27.4316 41.1626 24.6179 39.5167 21.6432 39.1342C18.6685 38.7516 15.5277 39.6375 14.3248 41.8522C14.0216 42.3379 13.8206 42.8803 13.7341 43.4462C13.6475 44.0122 13.6773 44.5899 13.8214 45.144C14.1474 46.0962 14.8 46.9022 15.6636 47.419C18.1803 49.075 22.5694 49.4324 24.5777 48.7176C25.5083 48.3962 26.4163 48.0128 27.2957 47.57C26.7923 50.4642 24.9099 53.2023 22.3982 55.6737C16.9471 61.0392 8.48108 65.1112 3.87055 66.6111C3.74483 66.6476 3.63826 66.7316 3.57342 66.8453C3.50858 66.959 3.49059 67.0934 3.52325 67.2202C3.53944 67.2809 3.56771 67.3378 3.60636 67.3874C3.64501 67.437 3.69326 67.4783 3.74823 67.5088C3.80319 67.5393 3.86374 67.5585 3.92626 67.5651C3.98879 67.5717 4.05201 67.5657 4.11215 67.5473C8.81328 66.0373 17.4404 61.8597 23.0022 56.3884C25.8763 53.5597 27.9248 50.3786 28.2721 47.0315C34.7702 43.4075 40.1005 36.8339 44.6607 31.2973C44.7426 31.1983 44.7835 31.0717 44.7751 30.9435C44.7666 30.8153 44.7095 30.6952 44.6154 30.6077C44.5693 30.5657 44.515 30.5335 44.456 30.5132C44.3971 30.4929 44.3345 30.4849 44.2723 30.4896C44.2101 30.4943 44.1495 30.5117 44.0943 30.5406C44.039 30.5696 43.9902 30.6096 43.951 30.658C39.5971 35.9682 34.5185 42.28 28.3426 45.8889ZM27.4014 46.3922C27.4441 45.5755 27.3695 44.7568 27.1799 43.9611C26.6363 41.7515 24.1247 40.4378 21.5275 40.1056C19.9944 39.8702 18.4261 40.0654 16.9975 40.6693C16.1997 40.9996 15.5329 41.5833 15.0999 42.3303C14.8626 42.6993 14.7027 43.1126 14.63 43.5452C14.5573 43.9779 14.5733 44.4208 14.6771 44.847C14.9385 45.5795 15.4501 46.1963 16.1217 46.5885C18.4118 48.0985 22.4133 48.4207 24.2404 47.7865C25.3288 47.4148 26.3858 46.957 27.4014 46.4174V46.3922Z" fill="#1D3C45"/>
<path d="M143.45 95.6333C145.118 95.6333 146.47 94.2812 146.47 92.6133C146.47 90.9454 145.118 89.5933 143.45 89.5933C141.782 89.5933 140.43 90.9454 140.43 92.6133C140.43 94.2812 141.782 95.6333 143.45 95.6333Z" fill="#E3E3E3"/>
<path fill-rule="evenodd" clip-rule="evenodd" d="M29.385 113.446C29.9476 113.257 30.4712 112.967 30.9302 112.591C31.3941 112.137 31.6994 111.546 31.801 110.905C31.9872 110.099 32.0577 109.244 32.2791 108.438C32.3198 108.251 32.4294 108.086 32.5862 107.975C32.7294 107.864 32.9093 107.812 33.0895 107.829C33.224 107.836 33.354 107.88 33.4657 107.955C33.5774 108.031 33.6665 108.135 33.7237 108.257C33.7565 108.33 33.7818 108.406 33.7992 108.483C33.7992 108.559 33.7992 108.791 33.8445 108.886C33.8848 109.123 33.92 109.359 33.9552 109.596C34.0026 110.347 34.1727 111.085 34.4586 111.78C34.9267 112.787 35.3998 113.366 36.034 113.638C36.7815 113.869 37.5817 113.869 38.3292 113.638L38.596 113.577C38.7001 113.56 38.8065 113.564 38.9089 113.59C39.0113 113.615 39.1076 113.661 39.1918 113.724C39.276 113.788 39.3465 113.868 39.3989 113.959C39.4514 114.051 39.4847 114.152 39.4969 114.257C39.5384 114.461 39.5 114.674 39.3895 114.851C39.279 115.028 39.1049 115.156 38.903 115.208L38.6513 115.263C37.3779 115.596 35.9082 116.773 35.0525 117.81C34.7857 118.132 34.4032 119.023 34.0106 119.592C33.7967 119.94 33.485 120.216 33.1147 120.387C32.9643 120.437 32.802 120.437 32.6516 120.387C32.4633 120.343 32.2993 120.227 32.1936 120.065C32.1143 119.954 32.061 119.827 32.0375 119.693C32.0375 119.617 32.0375 119.426 32.0375 119.335C31.957 119.048 31.8614 118.762 31.7909 118.47C31.6043 117.841 31.2965 117.254 30.8849 116.743C30.5554 116.232 30.0852 115.826 29.5309 115.575C29.2228 115.503 28.9187 115.414 28.6199 115.309C28.3964 115.208 28.2174 115.029 28.1166 114.805C28.0453 114.648 28.0158 114.474 28.031 114.302C28.0503 114.095 28.141 113.901 28.2877 113.753C28.4178 113.638 28.5756 113.558 28.7457 113.522C28.9068 113.472 29.3296 113.451 29.385 113.446ZM32.9939 112.309L33.0845 112.51C33.774 113.955 34.5391 114.76 35.4703 115.148H35.5055C34.9109 115.606 34.3675 116.128 33.8848 116.703C33.6351 117.063 33.413 117.442 33.2204 117.835C32.9752 117.099 32.6095 116.408 32.1382 115.792C31.8165 115.299 31.405 114.87 30.9252 114.529C31.2857 114.335 31.6234 114.102 31.9318 113.834C32.3981 113.414 32.7615 112.892 32.9939 112.309Z" fill="#35A476"/>
</g>
</g>
<defs>
<linearGradient id="paint0_linear_1_4154" x1="75.0318" y1="-5.06853" x2="76.27" y2="207.046" gradientUnits="userSpaceOnUse">
<stop stop-color="#F2F2F2"/>
<stop offset="1" stop-color="#EFEFEF"/>
</linearGradient>
<linearGradient id="paint1_linear_1_4154" x1="76.139" y1="31.9919" x2="76.139" y2="110.024" gradientUnits="userSpaceOnUse">
<stop stop-color="white"/>
<stop offset="0.72" stop-color="#FAFAFA"/>
</linearGradient>
<clipPath id="clip0_1_4154">
<rect width="151" height="151" fill="white"/>
</clipPath>
</defs>
</svg>
