<svg width="40" height="40" viewBox="0 0 41 40" fill="white"  xmlns="http://www.w3.org/2000/svg">
<ellipse cx="20.0583" cy="19.5943" rx="20.0117" ry="19.5943" fill="white"/>
<path d="M39.2862 19.5943C39.2862 29.9676 30.6932 38.4048 20.0583 38.4048C9.42333 38.4048 0.830342 29.9676 0.830342 19.5943C0.830342 9.22102 9.42333 0.783772 20.0583 0.783772C30.6932 0.783772 39.2862 9.22102 39.2862 19.5943Z" stroke="#1EAE64" stroke-opacity="0.3" stroke-width="1.56754"/>
<path d="M16.3607 19.5231L16.3606 19.5231L16.3614 19.5272C16.3901 19.6706 16.5074 19.795 16.6644 19.795H17.3421C17.4991 19.795 17.6164 19.6706 17.6451 19.5272L17.6452 19.5273L17.6457 19.5231L17.7128 19.009C17.9118 18.9599 18.1259 18.874 18.306 18.7674L18.7079 19.08L18.7071 19.0809L18.7182 19.0865C18.72 19.0874 18.7218 19.0883 18.7236 19.0892C18.7679 19.1114 18.8279 19.1415 18.8912 19.1415C18.9338 19.1415 18.9782 19.1345 19.0171 19.1189C19.0523 19.1048 19.0885 19.0815 19.1107 19.0445L19.5887 18.5666C19.6466 18.5086 19.6784 18.4402 19.6824 18.3688C19.6863 18.2978 19.6625 18.2293 19.6188 18.1709C19.6187 18.1709 19.6187 18.1708 19.6186 18.1707L19.3036 17.7432C19.4098 17.548 19.4971 17.3502 19.5469 17.1506L20.0611 17.0835L20.0611 17.0837L20.0652 17.0829C20.2086 17.0542 20.333 16.9369 20.333 16.7799V16.078C20.333 15.921 20.2086 15.8037 20.0652 15.775L20.0652 15.7749L20.0611 15.7743L19.5479 15.7074C19.4987 15.4895 19.4121 15.2917 19.3055 15.114L19.618 14.7122L19.618 14.7122L19.6186 14.7114C19.7084 14.5917 19.7089 14.4116 19.5887 14.2913L19.1046 13.8072C19.0466 13.7493 18.9782 13.7175 18.9068 13.7135C18.8358 13.7095 18.7673 13.7334 18.7089 13.7771C18.7089 13.7771 18.7088 13.7772 18.7087 13.7772L18.2829 14.091C18.105 13.9842 17.9068 13.8972 17.6885 13.848L17.6215 13.3348L17.6217 13.3348L17.6209 13.3307C17.5922 13.1873 17.4749 13.0629 17.3179 13.0629H16.6402C16.4832 13.0629 16.3659 13.1873 16.3372 13.3307L16.3371 13.3306L16.3365 13.3348L16.2695 13.8489C16.0701 13.898 15.8556 13.9842 15.6753 14.0911L15.2494 13.7772C15.2493 13.7772 15.2492 13.7771 15.2491 13.7771C15.1347 13.6914 14.9504 13.6819 14.8506 13.8101L14.3694 14.2913C14.3115 14.3492 14.2797 14.4177 14.2757 14.4891C14.2717 14.5601 14.2956 14.6286 14.3393 14.6869C14.3393 14.687 14.3394 14.6871 14.3394 14.6872L14.6544 15.1147C14.5483 15.3099 14.461 15.5077 14.4112 15.7073L13.897 15.7743L13.897 15.7742L13.8929 15.775C13.7495 15.8037 13.6251 15.921 13.6251 16.078V16.7799C13.6251 16.9369 13.7495 17.0542 13.8929 17.0829L13.8928 17.083L13.8973 17.0836L14.4354 17.1509C14.4853 17.3504 14.5726 17.548 14.6786 17.7432L14.3636 18.1707C14.3636 18.1708 14.3635 18.1709 14.3635 18.1709C14.2778 18.2854 14.2683 18.4697 14.3965 18.5695L14.8777 19.0507C14.9356 19.1086 15.0041 19.1404 15.0755 19.1444C15.1465 19.1483 15.215 19.1245 15.2734 19.0808C15.2734 19.0807 15.2735 19.0807 15.2736 19.0806L15.6994 18.7669C15.8773 18.8737 16.0755 18.9607 16.2938 19.0099L16.3607 19.5231ZM14.7126 16.2847L14.7126 16.285L14.7189 16.2835C14.7759 16.2692 14.8339 16.2406 14.8789 16.1994C14.9228 16.1591 14.9576 16.1032 14.9595 16.0352C15.0066 15.7572 15.123 15.501 15.2872 15.2664L15.2877 15.2668L15.2919 15.2586C15.349 15.1443 15.349 15.0269 15.2919 14.9126L15.2929 14.9121L15.2856 14.9026L15.004 14.5343L15.1207 14.4176L15.486 14.6969C15.5364 14.7453 15.6066 14.7665 15.672 14.7665C15.7369 14.7665 15.8066 14.7456 15.8569 14.698C16.0893 14.5363 16.3453 14.4432 16.6029 14.3963L16.6029 14.3965L16.6068 14.3955C16.7288 14.365 16.8178 14.2722 16.8463 14.1296L16.8464 14.1296L16.8469 14.1258L16.9122 13.647H17.07L17.1353 14.1258L17.135 14.1258L17.1366 14.1325C17.1643 14.2432 17.2491 14.3639 17.3755 14.3955L17.3754 14.3957L17.3803 14.3965C17.66 14.4431 17.9178 14.5599 18.1537 14.725L18.1533 14.7255L18.1615 14.7297C18.2758 14.7868 18.3932 14.7868 18.5075 14.7297L18.508 14.7307L18.5175 14.7234L18.8857 14.4418L19.0025 14.5585L18.7232 14.9238C18.6269 15.0234 18.6351 15.1776 18.7199 15.2914C18.8829 15.5246 18.9772 15.7825 19.0488 16.0688C19.0786 16.1879 19.1686 16.2779 19.2876 16.3077L19.2875 16.308L19.2939 16.3089L19.7489 16.3739V16.5324L19.2939 16.5974L19.2939 16.5971L19.2876 16.5986C19.2306 16.6129 19.1725 16.6415 19.1276 16.6827C19.0837 16.723 19.0488 16.7788 19.047 16.8469C18.9999 17.1249 18.8835 17.3811 18.7193 17.6157L18.7187 17.6153L18.7146 17.6235C18.6575 17.7378 18.6575 17.8552 18.7146 17.9695L18.7136 17.97L18.7208 17.9795L19.0025 18.3478L18.8857 18.4645L18.5205 18.1852C18.4209 18.0889 18.2667 18.0971 18.1529 18.1819C17.9197 18.3449 17.6618 18.4392 17.3755 18.5108C17.2535 18.5413 17.1645 18.6341 17.136 18.7767L17.1359 18.7767L17.1353 18.7805L17.0701 19.2593H16.9122L16.8469 18.7805L16.8473 18.7805L16.8457 18.7738C16.818 18.6631 16.7331 18.5424 16.6068 18.5108L16.6069 18.5106L16.602 18.5098C16.3222 18.4632 16.0645 18.3464 15.8286 18.1813L15.829 18.1808L15.8208 18.1766C15.7065 18.1195 15.5891 18.1195 15.4748 18.1766L15.4743 18.1756L15.4648 18.1829L15.0965 18.4645L14.9798 18.3478L15.2591 17.9825C15.3075 17.9321 15.3287 17.8619 15.3287 17.7965C15.3287 17.7316 15.3078 17.6619 15.2602 17.6116C15.0987 17.3795 15.0056 17.1237 14.9587 16.8423L14.9589 16.8423L14.9577 16.8375C14.9279 16.7184 14.8379 16.6284 14.7189 16.5986L14.7189 16.5983L14.7126 16.5974L14.2576 16.5324V16.3497L14.7126 16.2847Z" fill="#1EAE64" stroke="#1EAE64" stroke-width="0.12422"/>
<path d="M16.0967 16.4382H16.0967L16.0966 16.4355C16.074 15.9157 16.4798 15.5079 17.0028 15.5079C17.5 15.5079 17.9088 15.9148 17.9088 16.4382C17.9088 16.9384 17.499 17.3685 17.0028 17.3685C16.5056 17.3685 16.0967 16.9616 16.0967 16.4382ZM17.0028 17.9526C17.8365 17.9526 18.5172 17.2706 18.5172 16.414C18.5172 15.5574 17.8365 14.8754 17.0028 14.8754C16.169 14.8754 15.4884 15.5574 15.4884 16.414C15.4884 17.2699 16.1442 17.9526 17.0028 17.9526Z" fill="#1EAE64" stroke="#1EAE64" stroke-width="0.12422"/>
<path d="M21.9345 11.7798L21.9345 11.7798L21.9334 11.7787C21.8726 11.7179 21.7838 11.6879 21.72 11.6879H12.5464C12.4597 11.6879 12.3826 11.7171 12.327 11.7726C12.2715 11.8282 12.2423 11.9053 12.2423 11.992V27.4831C12.2423 27.5698 12.2715 27.6469 12.327 27.7025C12.3826 27.758 12.4597 27.7872 12.5464 27.7872H25.9801C26.0668 27.7872 26.1439 27.758 26.1995 27.7025C26.255 27.6469 26.2842 27.5698 26.2842 27.4831V20.5107L28.0116 18.4714C28.4945 17.9369 28.4425 17.1232 27.8848 16.6411C27.4326 16.2368 26.781 16.2116 26.2842 16.5612V16.4699C26.2842 16.4063 26.2544 16.3179 26.194 16.2571L21.9345 11.7798ZM20.2931 23.5216L20.2927 23.5214L20.2887 23.5274L20.2403 23.6001L20.2393 23.5994L20.2347 23.6105L18.9768 26.6101C18.9197 26.7264 18.9426 26.8832 19.0692 26.953C19.1677 27.0441 19.3161 27.036 19.4241 26.9819L19.4242 26.9821L19.4289 26.9793L22.1882 25.285L22.1944 25.2811L22.1996 25.2759L22.248 25.2275L22.2482 25.2277L22.2512 25.2241L25.6759 21.2365V27.1789H12.8506V12.2962H21.3917V16.4699C21.3917 16.5566 21.4208 16.6337 21.4764 16.6893C21.532 16.7449 21.6091 16.7741 21.6958 16.7741H25.6759V17.1974L20.2931 23.5216ZM27.5561 18.0979L27.5549 18.0993L26.9418 18.8032L25.8737 17.8909L26.4874 17.1636C26.7299 16.877 27.1744 16.8526 27.4647 17.0982C27.7798 17.3684 27.82 17.8121 27.5561 18.0979ZM26.5461 19.2846L22.0035 24.6119L20.9362 23.7002L25.4787 18.3729L26.5461 19.2846ZM19.9136 25.9742L20.6315 24.2217L21.5183 24.9818L19.9136 25.9742ZM22.0242 12.7523L25.2783 16.1658H22.0242V12.7523Z" fill="#1EAE64" stroke="#1EAE64" stroke-width="0.12422"/>
<path d="M19.2811 20.9145H14.3433C14.2566 20.9145 14.1795 20.9436 14.1239 20.9992C14.0683 21.0548 14.0391 21.1319 14.0391 21.2186C14.0391 21.3053 14.0683 21.3824 14.1239 21.438C14.1795 21.4936 14.2566 21.5228 14.3433 21.5228H19.2569C19.3436 21.5228 19.4207 21.4936 19.4763 21.438C19.5318 21.3824 19.561 21.3053 19.561 21.2186C19.561 21.0435 19.4406 20.9145 19.2811 20.9145Z" fill="#1EAE64" stroke="#1EAE64" stroke-width="0.12422"/>
<path d="M19.2222 22.8358C19.2222 22.7491 19.193 22.672 19.1374 22.6164C19.0818 22.5608 19.0047 22.5316 18.918 22.5316H14.3433C14.2566 22.5316 14.1795 22.5608 14.1239 22.6164C14.0683 22.672 14.0391 22.7491 14.0391 22.8358C14.0391 22.9225 14.0683 22.9996 14.1239 23.0552C14.1795 23.1108 14.2566 23.14 14.3433 23.14H18.8938C19.0653 23.14 19.2222 23.0229 19.2222 22.8358Z" fill="#1EAE64" stroke="#1EAE64" stroke-width="0.12422"/>
<path d="M18.2122 24.1801H14.3394C14.2527 24.1801 14.1756 24.2093 14.12 24.2648C14.0644 24.3204 14.0352 24.3975 14.0352 24.4842C14.0352 24.571 14.0644 24.6481 14.12 24.7036C14.1756 24.7592 14.2527 24.7884 14.3394 24.7884H18.1879C18.2747 24.7884 18.3518 24.7592 18.4074 24.7036C18.4629 24.6481 18.4921 24.571 18.4921 24.4842C18.4921 24.3091 18.3717 24.1801 18.2122 24.1801Z" fill="#1EAE64" stroke="#1EAE64" stroke-width="0.12422"/>
</svg>
