<svg width="16" height="11" viewBox="0 0 16 11" fill="none" xmlns="http://www.w3.org/2000/svg">
<path d="M15.2842 5.00274C14.7511 3.8369 12.6605 0.0351562 8.10639 0.0351562C3.55231 0.0351562 1.46169 3.8369 0.928559 5.00274C0.856992 5.15898 0.819946 5.3288 0.819946 5.50065C0.819946 5.6725 0.856992 5.84233 0.928559 5.99856C1.46169 7.16319 3.55231 10.9649 8.10639 10.9649C12.6605 10.9649 14.7511 7.16319 15.2842 5.99735C15.3556 5.84129 15.3926 5.67167 15.3926 5.50004C15.3926 5.32842 15.3556 5.1588 15.2842 5.00274ZM8.10639 9.75051C4.27671 9.75051 2.4897 6.49223 2.03429 5.50672C2.4897 4.50786 4.27671 1.24958 8.10639 1.24958C11.9269 1.24958 13.7146 4.4939 14.1785 5.50004C13.7146 6.50619 11.9269 9.75051 8.10639 9.75051Z" fill="#6F7070"/>
<path d="M8.10655 2.46411C7.50607 2.46411 6.91908 2.64217 6.41981 2.97578C5.92053 3.30938 5.53139 3.78355 5.3016 4.33832C5.07181 4.89308 5.01169 5.50353 5.12883 6.09246C5.24598 6.6814 5.53514 7.22237 5.95974 7.64697C6.38433 8.07157 6.92531 8.36073 7.51424 8.47787C8.10318 8.59502 8.71363 8.5349 9.26839 8.3051C9.82316 8.07531 10.2973 7.68617 10.6309 7.1869C10.9645 6.68762 11.1426 6.10063 11.1426 5.50016C11.1416 4.69525 10.8215 3.92358 10.2523 3.35441C9.68313 2.78525 8.91146 2.46508 8.10655 2.46411ZM8.10655 7.32179C7.74626 7.32179 7.39407 7.21495 7.0945 7.01479C6.79494 6.81463 6.56145 6.53013 6.42358 6.19727C6.2857 5.86441 6.24963 5.49814 6.31992 5.14478C6.39021 4.79142 6.5637 4.46683 6.81846 4.21207C7.07322 3.95731 7.3978 3.78382 7.75116 3.71353C8.10453 3.64325 8.47079 3.67932 8.80365 3.81719C9.13651 3.95507 9.42101 4.18855 9.62118 4.48812C9.82134 4.78768 9.92817 5.13988 9.92817 5.50016C9.92817 5.98329 9.73625 6.44663 9.39463 6.78825C9.05301 7.12987 8.58967 7.32179 8.10655 7.32179Z" fill="#6F7070"/>
</svg>
