<svg width="25" height="25" viewBox="0 0 21 17" fill="none" xmlns="http://www.w3.org/2000/svg">
<g clip-path="url(#clip0_1_446)">
<path d="M9.30647 0.00396116C10.7247 0.00396116 12.1415 -0.00649877 13.5598 0.00657614C16.3288 0.030111 18.1013 1.60041 18.1088 4.0245C18.1118 5.12933 18.0863 6.23546 18.1268 7.33899C18.1358 7.60049 18.2844 7.92997 18.5005 8.10518C20.9559 10.1004 21.1825 13.2122 18.9973 15.3278C16.8121 17.4446 13.1546 17.5623 10.6332 15.6206C10.4036 15.4441 10.0284 15.3317 9.71769 15.3265C8.17635 15.2964 6.6335 15.3225 5.09215 15.3108C2.31412 15.2885 0.517635 13.7248 0.507129 11.3151C0.498124 8.86614 0.496623 6.41851 0.50863 3.96958C0.519136 1.60433 2.32463 0.032726 5.05313 0.00657614C6.47141 -0.00649877 7.88819 0.00396116 9.30647 0.00396116ZM4.39577 10.9346V9.63102C5.69998 9.63102 6.96368 9.63102 8.22587 9.63102C9.49557 9.63102 9.81525 9.43751 10.327 8.31438H4.41078V6.96504H16.617C16.617 5.98966 16.6245 4.9502 16.6155 3.91205C16.602 2.36529 15.4553 1.32453 13.6889 1.31145C10.7773 1.29053 7.86568 1.29184 4.95407 1.31145C3.22212 1.32322 2.02747 2.31561 2.00045 3.8323C1.95392 6.4329 1.96743 9.0348 1.99445 11.6367C2.00495 12.7389 2.92946 13.8255 4.14063 13.9157C5.80654 14.0399 7.49347 13.947 9.08134 13.947C8.96128 12.9494 8.84572 11.9714 8.72115 10.9346H4.39577ZM14.6374 16.3463C17.4469 16.3345 19.7147 14.3471 19.6922 11.9165C19.6697 9.47804 17.3719 7.49458 14.5909 7.51158C11.7828 7.52988 9.5406 9.50811 9.5526 11.957C9.56461 14.4151 11.8158 16.3568 14.6374 16.345V16.3463Z" fill="#898989"/>
<path d="M18.635 11.5923C18.3259 11.2746 18.0467 11.0837 17.9101 10.8313C17.1987 9.5173 15.7249 8.80341 14.0755 9.0126C12.5252 9.20873 11.341 10.3136 11.1444 11.7453C10.9778 12.9625 11.9023 14.3537 13.199 14.7813C13.3836 14.8414 13.6343 14.7486 13.8534 14.7263C13.7543 14.5603 13.6898 14.3655 13.5457 14.2373C13.3956 14.104 13.157 14.0491 12.9784 13.934C12.0134 13.3116 11.6277 12.1846 12.0344 11.2079C12.4501 10.209 13.5217 9.58529 14.7539 9.6219C15.9245 9.6572 16.8611 10.273 17.1552 11.2092C16.9931 11.234 16.8325 11.2576 16.6194 11.2903C16.9481 11.8459 17.2573 12.3663 17.6115 12.9652C18.0242 12.4108 18.3724 11.9427 18.635 11.591V11.5923Z" fill="white"/>
<path d="M4.39844 5.64176V4.42188H14.2078V5.64176H4.39844Z" fill="#898989"/>
<path d="M18.6353 11.591C18.3727 11.944 18.0245 12.4108 17.6118 12.9652C17.2576 12.3663 16.9484 11.8459 16.6197 11.2903C16.8343 11.2576 16.9949 11.234 17.1555 11.2092C16.8614 10.2743 15.9248 9.6572 14.7542 9.6219C13.522 9.58529 12.4504 10.2103 12.0347 11.2079C11.628 12.1846 12.0137 13.3129 12.9787 13.934C13.1573 14.0491 13.3959 14.104 13.546 14.2373C13.6901 14.3655 13.7546 14.5603 13.8537 14.7263C13.6331 14.7486 13.3824 14.8414 13.1993 14.7813C11.9026 14.3537 10.9766 12.9612 11.1447 11.7453C11.3413 10.3136 12.5255 9.20873 14.0758 9.0126C15.7252 8.80341 17.199 9.5173 17.9104 10.8313C18.047 11.0824 18.3262 11.2746 18.6353 11.5923V11.591Z" fill="#898989"/>
</g>
<defs>
<clipPath id="clip0_1_446">
<rect width="20" height="17" fill="white" transform="translate(0.5)"/>
</clipPath>
</defs>
</svg>
