<svg width="40" height="40" viewBox="0 0 16 16" fill="none" xmlns="http://www.w3.org/2000/svg">
<g clip-path="url(#clip0_835_2433)">
<path d="M11.567 6.93876V3.94542C11.567 3.85975 11.5274 3.78058 11.4714 3.71795L8.11545 0.193886C8.05282 0.127998 7.96376 0.0916748 7.87482 0.0916748H2.55403C1.57174 0.0916748 0.787109 0.892714 0.787109 1.87513V11.9364C0.787109 12.9188 1.57174 13.7067 2.55403 13.7067H6.75399C7.5484 15.0253 8.99239 15.9088 10.6373 15.9088C13.1361 15.9088 15.1767 13.878 15.1767 11.376C15.1801 9.19031 13.6109 7.36402 11.567 6.93876ZM8.2045 1.24883L10.4561 3.619H8.99565C8.5605 3.619 8.2045 3.25975 8.2045 2.8246V1.24883ZM2.55403 13.0473C1.93762 13.0473 1.44648 12.5528 1.44648 11.9364V1.87513C1.44648 1.25534 1.93762 0.751042 2.55403 0.751042H7.54514V2.8246C7.54514 3.62564 8.19461 4.27837 8.99565 4.27837H10.9076V6.85296C10.8088 6.8497 10.7296 6.83981 10.6439 6.83981C9.49343 6.83981 8.43524 7.2816 7.63745 7.97391H3.45076C3.26939 7.97391 3.12108 8.12222 3.12108 8.30347C3.12108 8.48485 3.26939 8.63316 3.45076 8.63316H7.02431C6.7902 8.96284 6.59567 9.29252 6.4441 9.65515H3.45076C3.26939 9.65515 3.12108 9.80346 3.12108 9.98484C3.12108 10.1661 3.26939 10.3145 3.45076 10.3145H6.22978C6.14736 10.6442 6.10452 11.0101 6.10452 11.376C6.10452 11.9693 6.21989 12.5562 6.42757 13.0507H2.55403V13.0473ZM10.6407 15.2528C8.5045 15.2528 6.76715 13.5154 6.76715 11.3792C6.76715 9.24305 8.50112 7.50569 10.6407 7.50569C12.7801 7.50569 14.5141 9.24305 14.5141 11.3792C14.5141 13.5154 12.7769 15.2528 10.6407 15.2528Z" fill="#35a476"/>
<path d="M3.45078 6.98151H6.79021C6.97158 6.98151 7.11989 6.83308 7.11989 6.65183C7.11989 6.47045 6.97158 6.32214 6.79021 6.32214H3.45078C3.2694 6.32214 3.12109 6.47045 3.12109 6.65183C3.12109 6.83308 3.2694 6.98151 3.45078 6.98151Z" fill="#35a476"/>
<path d="M10.5319 9.34515C10.5583 9.35167 10.5846 9.35505 10.6111 9.35505C10.644 9.35505 10.6737 9.35167 10.7034 9.34178C11.1385 9.3781 11.4781 9.74073 11.4781 10.1825C11.4781 10.3638 11.6264 10.5121 11.8077 10.5121C11.989 10.5121 12.1374 10.3638 12.1374 10.1825C12.1374 9.45726 11.6232 8.85063 10.9407 8.70884V8.4979C10.9407 8.31652 10.7923 8.16821 10.6111 8.16821C10.4297 8.16821 10.2814 8.31652 10.2814 8.4979V8.72211C9.62201 8.88031 9.13086 9.47705 9.13086 10.1825C9.13086 11.0132 9.80664 11.6858 10.6341 11.6858C11.0989 11.6858 11.4781 12.0648 11.4781 12.5296C11.4781 12.9945 11.1022 13.3769 10.6341 13.3769C10.1693 13.3769 9.79023 12.9977 9.79023 12.5329C9.79023 12.3516 9.6418 12.2032 9.46054 12.2032C9.27917 12.2032 9.13086 12.3516 9.13086 12.5329C9.13086 13.2417 9.62201 13.8351 10.2814 13.9933V14.3329C10.2814 14.5143 10.4297 14.6626 10.6111 14.6626C10.7923 14.6626 10.9407 14.5143 10.9407 14.3329V14.0032C11.6232 13.8614 12.1374 13.2549 12.1374 12.5296C12.1374 11.6989 11.4616 11.0264 10.6341 11.0264C10.1693 11.0264 9.79023 10.6472 9.79023 10.1825C9.79023 9.75388 10.1133 9.39463 10.5319 9.34515Z" fill="#35a476"/>
</g>
<defs>
<clipPath id="clip0_835_2433">
<rect width="15.8171" height="15.8171" fill="#35a476" transform="translate(0.0761719 0.0915527)"/>
</clipPath>
</defs>
</svg>
