<svg width="15" height="14" viewBox="0 0 15 14" fill="none" xmlns="http://www.w3.org/2000/svg">
<path d="M6.57001 14C6.29386 14 6.07001 13.7761 6.07001 13.5V8.5C6.07001 8.22386 5.84615 8 5.57001 8H0.570007C0.293865 8 0.0700073 7.77614 0.0700073 7.5V6.5C0.0700073 6.22386 0.293865 6 0.570007 6H5.57001C5.84615 6 6.07001 5.77614 6.07001 5.5V0.5C6.07001 0.223858 6.29386 0 6.57001 0H7.57001C7.84615 0 8.07001 0.223858 8.07001 0.5V5.5C8.07001 5.77614 8.29387 6 8.57001 6H13.57C13.8461 6 14.07 6.22386 14.07 6.5V7.5C14.07 7.77614 13.8461 8 13.57 8H8.57001C8.29387 8 8.07001 8.22386 8.07001 8.5V13.5C8.07001 13.7761 7.84615 14 7.57001 14H6.57001Z" fill="white"/>
</svg>
