<svg width="17" height="17" viewBox="0 0 17 17" fill="none" xmlns="http://www.w3.org/2000/svg">
<path d="M1.98084 3.65149C1.53791 3.65149 1.08715 3.65583 0.640308 3.65149C0.37377 3.64715 0.177786 3.50819 0.064115 3.24329C-0.0417164 2.99142 -0.0103589 2.74823 0.142509 2.5311C0.271858 2.34871 0.444324 2.2662 0.655987 2.2662C1.09891 2.2662 1.54183 2.2662 1.98084 2.2662C2.32185 1.39334 2.90196 0.885254 3.76037 0.885254C4.61878 0.885254 5.1989 1.39334 5.53991 2.2662C5.61438 2.2662 5.69278 2.2662 5.77117 2.2662C9.0245 2.2662 12.2739 2.2662 15.5273 2.2662C15.6292 2.2662 15.7389 2.27054 15.8369 2.30094C16.127 2.39214 16.3073 2.7048 16.2759 3.0305C16.2446 3.35185 16.0055 3.61675 15.7076 3.64715C15.637 3.65583 15.5625 3.65149 15.492 3.65149C12.2543 3.65149 9.01275 3.65149 5.77509 3.65149C5.6967 3.65149 5.6183 3.65149 5.54383 3.65149C5.19106 4.53304 4.60311 5.04547 3.7251 5.0281C2.88237 5.01507 2.31793 4.50698 1.98084 3.65149ZM4.38752 2.96102C4.39144 2.58755 4.10923 2.2662 3.77213 2.2662C3.43112 2.26186 3.14498 2.56584 3.13714 2.94365C3.12931 3.33014 3.41544 3.65149 3.76429 3.65149C4.10531 3.64715 4.3836 3.33882 4.38752 2.96102Z" fill="#2892FD"/>
<path d="M5.6306 7.8092C7.26511 7.8092 8.90353 7.8092 10.538 7.81355C10.6831 7.81355 10.7615 7.77881 10.832 7.61813C11.1769 6.8408 11.7531 6.42391 12.5332 6.42826C13.3132 6.4326 13.8815 6.85817 14.2265 7.6355C14.2892 7.77881 14.3558 7.81355 14.4891 7.81355C14.8654 7.80486 15.2456 7.8092 15.6219 7.8092C16.0021 7.81355 16.2804 8.10884 16.2804 8.50402C16.2804 8.8992 16.0021 9.19449 15.6179 9.19449C15.226 9.19884 14.834 9.19884 14.446 9.19449C14.3441 9.19449 14.2892 9.22055 14.2421 9.33346C13.8972 10.1412 13.3171 10.5798 12.5136 10.5754C11.7179 10.5711 11.1417 10.1282 10.8085 9.32477C10.7458 9.17278 10.6596 9.19449 10.5576 9.19449C7.3043 9.19449 4.05489 9.19449 0.801555 9.19449C0.73492 9.19449 0.672205 9.19884 0.605571 9.19449C0.268478 9.17278 0.00585938 8.8688 0.00585938 8.49968C0.00585938 8.13056 0.268478 7.82223 0.60949 7.8092C0.966181 7.80052 1.32679 7.80486 1.68348 7.80486C2.99658 7.8092 4.31359 7.8092 5.6306 7.8092ZM13.1446 8.49534C13.1407 8.12187 12.8585 7.8092 12.5175 7.8092C12.1765 7.8092 11.8943 8.11753 11.8943 8.49968C11.8903 8.88617 12.1804 9.20318 12.5292 9.19449C12.8742 9.19015 13.1485 8.87314 13.1446 8.49534Z" fill="#2892FD"/>
<path d="M4.48023 13.3602C4.833 12.4743 5.42095 11.9662 6.29896 11.9792C7.14169 11.9966 7.70613 12.5004 8.04322 13.3602C8.11769 13.3602 8.19217 13.3602 8.27056 13.3602C10.689 13.3602 13.1074 13.3602 15.5259 13.3602C15.6043 13.3602 15.6827 13.3559 15.7611 13.3689C16.0746 13.4297 16.302 13.751 16.2785 14.1028C16.2549 14.4415 16.0041 14.7194 15.6905 14.7455C15.6239 14.7498 15.5612 14.7455 15.4945 14.7455C13.0878 14.7455 10.6851 14.7455 8.2784 14.7455C8.20001 14.7455 8.12161 14.7455 8.04322 14.7455C7.68653 15.6357 7.09466 16.1308 6.20489 16.1264C5.45623 16.1221 4.88396 15.6574 4.47631 14.7455C4.41359 14.7455 4.33912 14.7455 4.26857 14.7455C3.0613 14.7455 1.85796 14.7455 0.650701 14.7455C0.337127 14.7455 0.101946 14.5501 0.0196324 14.2374C-0.0587612 13.9464 0.0470702 13.6164 0.29009 13.4731C0.4116 13.4036 0.560548 13.3645 0.697737 13.3645C1.8854 13.3559 3.06914 13.3602 4.25681 13.3602C4.33912 13.3602 4.40967 13.3602 4.48023 13.3602ZM6.27152 14.7455C6.61253 14.7411 6.89083 14.4285 6.89083 14.0507C6.89083 13.6772 6.6047 13.3602 6.2676 13.3602C5.91875 13.3602 5.63261 13.6815 5.64045 14.068C5.64437 14.4415 5.93051 14.7498 6.27152 14.7455Z" fill="#2892FD"/>
</svg>
