<svg width="193" height="47" viewBox="0 0 193 47" fill="none" xmlns="http://www.w3.org/2000/svg">
<path fill-rule="evenodd" clip-rule="evenodd" d="M7.23301 36.6015C3.2173 32.829 0.709225 27.4702 0.709225 21.5256C0.709225 10.1038 9.96849 0.844482 21.3904 0.844482C32.8123 0.844482 42.0715 10.1038 42.0715 21.5256C42.0715 32.1275 34.094 40.8662 23.8143 42.0663C22.8342 42.3606 21.5231 42.9814 21.0021 44.255C20.8858 44.6814 21.0159 45.1457 21.1355 45.572C21.3168 46.2186 21.4737 46.7781 20.7094 46.9865C19.4412 47.3324 7.05204 36.5484 7.05204 36.5484L7.23301 36.6015Z" fill="url(#paint0_linear_831_1916)"/>
<circle cx="21.3897" cy="21.3311" r="17.1693" fill="white"/>
<line x1="19.5231" y1="19.4274" x2="27.181" y2="11.7695" stroke="#4B4B4B" stroke-width="2.74979" stroke-linecap="round"/>
<line x1="16.332" y1="21.3718" x2="23.8362" y2="28.8761" stroke="#2754FE" stroke-width="2.78138" stroke-linecap="round"/>
<g filter="url(#filter0_d_831_1916)">
<circle cx="17.8442" cy="21.6605" r="4.25765" fill="white"/>
<circle cx="17.8442" cy="21.6605" r="3.88005" stroke="black" stroke-opacity="0.13" stroke-width="0.755204"/>
</g>
<path d="M53.5737 32.9031C51.7007 32.9031 50.0358 32.643 48.579 32.1227C47.1222 31.6024 45.7304 30.744 44.4037 29.5473C44.1176 29.3392 43.8964 29.0921 43.7404 28.8059C43.6103 28.4938 43.5453 28.1816 43.5453 27.8694C43.5453 27.3752 43.7274 26.9329 44.0916 26.5427C44.4557 26.1525 44.911 25.9574 45.4573 25.9574C45.8735 25.9574 46.2637 26.1005 46.6279 26.3866C47.6165 27.2971 48.644 27.9865 49.7106 28.4548C50.8032 28.923 52.0779 29.1571 53.5346 29.1571C54.5752 29.1571 55.5247 28.988 56.3832 28.6499C57.2677 28.3117 57.97 27.8564 58.4903 27.2841C59.0106 26.7118 59.2707 26.0485 59.2707 25.294C59.2707 24.3575 58.9976 23.5901 58.4513 22.9918C57.931 22.3675 57.1636 21.8602 56.1491 21.47C55.1605 21.0538 53.9639 20.7026 52.5591 20.4164C51.2584 20.1823 50.0878 19.8571 49.0472 19.4409C48.0327 19.0247 47.1612 18.5044 46.4328 17.88C45.7044 17.2297 45.1451 16.4623 44.7549 15.5778C44.3647 14.6933 44.1696 13.6658 44.1696 12.4951C44.1696 10.9083 44.5858 9.54255 45.4183 8.39793C46.2507 7.25331 47.3823 6.36883 48.8131 5.7445C50.2439 5.12016 51.8567 4.80799 53.6517 4.80799C55.2906 4.80799 56.8254 5.06813 58.2562 5.58841C59.687 6.08268 60.8446 6.75905 61.7291 7.61751C62.3534 8.1638 62.6656 8.74912 62.6656 9.37345C62.6656 9.84171 62.4705 10.2839 62.0803 10.7002C61.7161 11.0904 61.2868 11.2855 60.7926 11.2855C60.4284 11.2855 60.1162 11.1814 59.8561 10.9733C59.4398 10.5311 58.8805 10.1409 58.1782 9.80269C57.4758 9.43849 56.7214 9.13933 55.9149 8.9052C55.1345 8.67108 54.3801 8.55401 53.6517 8.55401C52.4811 8.55401 51.4795 8.72311 50.6471 9.06129C49.8146 9.37346 49.1773 9.81569 48.7351 10.388C48.2928 10.9343 48.0717 11.5846 48.0717 12.3391C48.0717 13.2235 48.3188 13.9519 48.8131 14.5242C49.3334 15.0965 50.0488 15.5648 50.9593 15.929C51.8697 16.2672 52.9103 16.5793 54.0809 16.8655C55.5117 17.1777 56.7864 17.5289 57.905 17.9191C59.0496 18.3093 60.0121 18.8166 60.7926 19.4409C61.573 20.0392 62.1713 20.7936 62.5875 21.7041C63.0038 22.6146 63.2119 23.7462 63.2119 25.0989C63.2119 26.6598 62.7696 28.0255 61.8852 29.1962C61.0007 30.3668 59.83 31.2773 58.3733 31.9276C56.9425 32.578 55.3426 32.9031 53.5737 32.9031ZM67.5027 12.222H76.6726C77.1929 12.222 77.6221 12.4041 77.9603 12.7683C78.3245 13.1065 78.5066 13.5357 78.5066 14.056C78.5066 14.5502 78.3245 14.9665 77.9603 15.3047C77.6221 15.6428 77.1929 15.8119 76.6726 15.8119H67.5027C66.9824 15.8119 66.5401 15.6428 66.1759 15.3047C65.8378 14.9405 65.6687 14.5112 65.6687 14.017C65.6687 13.4967 65.8378 13.0674 66.1759 12.7293C66.5401 12.3911 66.9824 12.222 67.5027 12.222ZM71.5999 7.14926C72.1722 7.14926 72.6404 7.34436 73.0046 7.73457C73.3688 8.09877 73.5509 8.56702 73.5509 9.13933V27.2451C73.5509 27.7134 73.629 28.0906 73.785 28.3767C73.9411 28.6629 74.1492 28.858 74.4094 28.962C74.6955 29.0661 74.9817 29.1181 75.2678 29.1181C75.554 29.1181 75.8011 29.0661 76.0092 28.962C76.2434 28.858 76.5165 28.8059 76.8287 28.8059C77.1409 28.8059 77.427 28.949 77.6872 29.2352C77.9473 29.5213 78.0774 29.9115 78.0774 30.4058C78.0774 31.0301 77.7392 31.5374 77.0628 31.9276C76.3865 32.3178 75.6581 32.5129 74.8776 32.5129C74.4354 32.5129 73.9151 32.4739 73.3168 32.3959C72.7185 32.3178 72.1332 32.1227 71.5608 31.8106C71.0146 31.4984 70.5593 31.0041 70.1951 30.3278C69.8309 29.6254 69.6488 28.6499 69.6488 27.4012V9.13933C69.6488 8.56702 69.8309 8.09877 70.1951 7.73457C70.5853 7.34436 71.0536 7.14926 71.5999 7.14926ZM99.8411 11.6757C100.413 11.6757 100.882 11.8708 101.246 12.261C101.61 12.6252 101.792 13.0935 101.792 13.6658V30.5229C101.792 31.0952 101.61 31.5764 101.246 31.9666C100.882 32.3308 100.413 32.5129 99.8411 32.5129C99.2948 32.5129 98.8265 32.3308 98.4363 31.9666C98.0721 31.5764 97.89 31.0952 97.89 30.5229V27.7134L98.7094 27.8304C98.7094 28.2987 98.5143 28.8189 98.1241 29.3913C97.7599 29.9636 97.2527 30.5229 96.6023 31.0692C95.952 31.5894 95.1845 32.0317 94.3001 32.3959C93.4156 32.7341 92.4661 32.9031 91.4515 32.9031C89.6566 32.9031 88.0437 32.4479 86.6129 31.5374C85.1821 30.6009 84.0505 29.3262 83.2181 27.7134C82.3856 26.1005 81.9694 24.2665 81.9694 22.2114C81.9694 20.1042 82.3856 18.2572 83.2181 16.6704C84.0505 15.0575 85.1691 13.7958 86.5739 12.8854C88.0047 11.9749 89.5915 11.5196 91.3345 11.5196C92.4531 11.5196 93.4806 11.7017 94.4171 12.0659C95.3796 12.4301 96.2121 12.8984 96.9145 13.4707C97.6169 14.043 98.1501 14.6543 98.5143 15.3047C98.9045 15.929 99.0997 16.5273 99.0997 17.0996L97.89 17.2167V13.6658C97.89 13.1195 98.0721 12.6512 98.4363 12.261C98.8265 11.8708 99.2948 11.6757 99.8411 11.6757ZM91.8808 29.3132C93.1034 29.3132 94.183 29.001 95.1195 28.3767C96.056 27.7524 96.7844 26.9069 97.3047 25.8403C97.825 24.7478 98.0851 23.5381 98.0851 22.2114C98.0851 20.8587 97.825 19.649 97.3047 18.5824C96.7844 17.5158 96.056 16.6704 95.1195 16.0461C94.183 15.4217 93.1034 15.1096 91.8808 15.1096C90.6841 15.1096 89.6175 15.4217 88.681 16.0461C87.7705 16.6704 87.0421 17.5158 86.4959 18.5824C85.9756 19.649 85.7154 20.8587 85.7154 22.2114C85.7154 23.5381 85.9756 24.7478 86.4959 25.8403C87.0421 26.9069 87.7705 27.7524 88.681 28.3767C89.6175 29.001 90.6841 29.3132 91.8808 29.3132ZM117.014 3.67638C117.508 3.67638 118.016 3.74142 118.536 3.87149C119.056 4.00156 119.485 4.22268 119.823 4.53485C120.188 4.821 120.37 5.22422 120.37 5.7445C120.37 6.26478 120.214 6.69401 119.902 7.03219C119.589 7.34436 119.225 7.50045 118.809 7.50045C118.549 7.50045 118.198 7.44842 117.755 7.34436C117.313 7.21429 116.871 7.14926 116.429 7.14926C115.83 7.14926 115.349 7.29233 114.985 7.57849C114.621 7.83863 114.361 8.17681 114.204 8.59303C114.048 8.98324 113.97 9.37346 113.97 9.76367V30.5229C113.97 31.0952 113.775 31.5764 113.385 31.9666C113.021 32.3308 112.566 32.5129 112.019 32.5129C111.447 32.5129 110.979 32.3308 110.615 31.9666C110.25 31.5764 110.068 31.0952 110.068 30.5229V9.80269C110.068 8.00772 110.654 6.53793 111.824 5.39331C113.021 4.24869 114.751 3.67638 117.014 3.67638ZM117.794 12.3391C118.315 12.3391 118.744 12.5081 119.082 12.8463C119.42 13.1845 119.589 13.6137 119.589 14.134C119.589 14.6543 119.42 15.0835 119.082 15.4217C118.744 15.7599 118.315 15.929 117.794 15.929H107.688C107.194 15.929 106.764 15.7599 106.4 15.4217C106.062 15.0835 105.893 14.6543 105.893 14.134C105.893 13.6137 106.062 13.1845 106.4 12.8463C106.764 12.5081 107.194 12.3391 107.688 12.3391H117.794ZM133.052 3.67638C133.546 3.67638 134.053 3.74142 134.573 3.87149C135.094 4.00156 135.523 4.22268 135.861 4.53485C136.225 4.821 136.407 5.22422 136.407 5.7445C136.407 6.26478 136.251 6.69401 135.939 7.03219C135.627 7.34436 135.263 7.50045 134.847 7.50045C134.586 7.50045 134.235 7.44842 133.793 7.34436C133.351 7.21429 132.909 7.14926 132.466 7.14926C131.868 7.14926 131.387 7.29233 131.023 7.57849C130.658 7.83863 130.398 8.17681 130.242 8.59303C130.086 8.98324 130.008 9.37346 130.008 9.76367V30.5229C130.008 31.0952 129.813 31.5764 129.423 31.9666C129.058 32.3308 128.603 32.5129 128.057 32.5129C127.485 32.5129 127.016 32.3308 126.652 31.9666C126.288 31.5764 126.106 31.0952 126.106 30.5229V9.80269C126.106 8.00772 126.691 6.53793 127.862 5.39331C129.058 4.24869 130.788 3.67638 133.052 3.67638ZM133.832 12.3391C134.352 12.3391 134.782 12.5081 135.12 12.8463C135.458 13.1845 135.627 13.6137 135.627 14.134C135.627 14.6543 135.458 15.0835 135.12 15.4217C134.782 15.7599 134.352 15.929 133.832 15.929H123.726C123.231 15.929 122.802 15.7599 122.438 15.4217C122.1 15.0835 121.931 14.6543 121.931 14.134C121.931 13.6137 122.1 13.1845 122.438 12.8463C122.802 12.5081 123.231 12.3391 123.726 12.3391H133.832ZM160.103 5.12016C160.649 5.12016 161.117 5.30226 161.507 5.66646C161.898 6.03065 162.093 6.47289 162.093 6.99317C162.093 7.27933 162.028 7.57849 161.898 7.89066L152.025 31.2252C151.817 31.6675 151.531 31.9927 151.167 32.2008C150.829 32.4089 150.477 32.5129 150.113 32.5129C149.749 32.4869 149.398 32.3699 149.06 32.1617C148.748 31.9536 148.5 31.6545 148.318 31.2643L138.446 7.89066C138.394 7.76059 138.355 7.63052 138.329 7.50045C138.303 7.34436 138.29 7.18828 138.29 7.03219C138.29 6.43387 138.511 5.96562 138.953 5.62744C139.395 5.28925 139.825 5.12016 140.241 5.12016C141.073 5.12016 141.685 5.54939 142.075 6.40786L151.011 27.5963H149.879L158.308 6.36884C158.672 5.53639 159.27 5.12016 160.103 5.12016ZM169.929 30.5229C169.929 31.0952 169.747 31.5764 169.383 31.9666C169.019 32.3308 168.551 32.5129 167.978 32.5129C167.432 32.5129 166.964 32.3308 166.573 31.9666C166.209 31.5764 166.027 31.0952 166.027 30.5229V13.8219C166.027 13.2495 166.209 12.7813 166.573 12.4171C166.964 12.0269 167.432 11.8318 167.978 11.8318C168.551 11.8318 169.019 12.0269 169.383 12.4171C169.747 12.7813 169.929 13.2495 169.929 13.8219V30.5229ZM167.939 9.25639C167.185 9.25639 166.638 9.12632 166.3 8.86618C165.962 8.58003 165.793 8.11178 165.793 7.46142V6.83709C165.793 6.18674 165.975 5.73149 166.339 5.47135C166.704 5.21121 167.25 5.08114 167.978 5.08114C168.759 5.08114 169.318 5.22422 169.656 5.51037C169.994 5.77051 170.163 6.21275 170.163 6.83709V7.46142C170.163 8.13779 169.981 8.60604 169.617 8.86618C169.279 9.12632 168.72 9.25639 167.939 9.25639ZM188.406 28.923C188.927 28.923 189.356 29.0921 189.694 29.4303C190.058 29.7685 190.24 30.1977 190.24 30.718C190.24 31.2122 190.058 31.6415 189.694 32.0057C189.356 32.3438 188.927 32.5129 188.406 32.5129H175.803C175.256 32.5129 174.814 32.3178 174.476 31.9276C174.138 31.5114 173.982 31.1082 174.008 30.718C174.034 30.4058 174.073 30.1327 174.125 29.8985C174.203 29.6384 174.372 29.3522 174.632 29.0401L185.051 15.2266V15.6949H176.349C175.829 15.6949 175.386 15.5258 175.022 15.1876C174.684 14.8234 174.515 14.3942 174.515 13.8999C174.515 13.3796 174.684 12.9504 175.022 12.6122C175.386 12.274 175.829 12.1049 176.349 12.1049H188.367C188.862 12.1049 189.278 12.3 189.616 12.6902C189.98 13.0544 190.136 13.5097 190.084 14.056C190.084 14.2901 190.045 14.5242 189.967 14.7584C189.915 14.9665 189.772 15.2136 189.538 15.4998L179.275 29.1571L179.119 28.923H188.406Z" fill="#3D3D3D"/>
<defs>
<filter id="filter0_d_831_1916" x="10.5657" y="14.382" width="14.5569" height="14.557" filterUnits="userSpaceOnUse" color-interpolation-filters="sRGB">
<feFlood flood-opacity="0" result="BackgroundImageFix"/>
<feColorMatrix in="SourceAlpha" type="matrix" values="0 0 0 0 0 0 0 0 0 0 0 0 0 0 0 0 0 0 127 0" result="hardAlpha"/>
<feOffset/>
<feGaussianBlur stdDeviation="1.51041"/>
<feComposite in2="hardAlpha" operator="out"/>
<feColorMatrix type="matrix" values="0 0 0 0 0 0 0 0 0 0 0 0 0 0 0 0 0 0 0.25 0"/>
<feBlend mode="normal" in2="BackgroundImageFix" result="effect1_dropShadow_831_1916"/>
<feBlend mode="normal" in="SourceGraphic" in2="effect1_dropShadow_831_1916" result="shape"/>
</filter>
<linearGradient id="paint0_linear_831_1916" x1="21.3904" y1="0.844482" x2="21.3904" y2="46.9946" gradientUnits="userSpaceOnUse">
<stop stop-color="#1E94FD"/>
<stop offset="1" stop-color="#294DFF"/>
</linearGradient>
</defs>
</svg>
