<svg width="25" height="25" viewBox="0 0 22 18" fill="none" xmlns="http://www.w3.org/2000/svg">
<path d="M11 12.6676C8.97783 12.6676 7.33333 11.0231 7.33333 9.00092C7.33333 6.97875 8.97783 5.33425 11 5.33425C13.0222 5.33425 14.6667 6.97875 14.6667 9.00092C14.6667 11.0231 13.0222 12.6676 11 12.6676ZM11 7.16758C9.98892 7.16758 9.16667 7.98983 9.16667 9.00092C9.16667 10.012 9.98892 10.8342 11 10.8342C12.0111 10.8342 12.8333 10.012 12.8333 9.00092C12.8333 7.98983 12.0111 7.16758 11 7.16758ZM4.58333 4.41758C4.07733 4.41758 3.66667 4.82825 3.66667 5.33425C3.66667 5.84025 4.07733 6.25092 4.58333 6.25092C5.08933 6.25092 5.5 5.84025 5.5 5.33425C5.5 4.82825 5.08933 4.41758 4.58333 4.41758ZM16.5 7.16758C16.5 7.67358 16.9107 8.08425 17.4167 8.08425C17.9227 8.08425 18.3333 7.67358 18.3333 7.16758C18.3333 6.66158 17.9227 6.25092 17.4167 6.25092C16.9107 6.25092 16.5 6.66158 16.5 7.16758ZM4.58333 9.91758C4.07733 9.91758 3.66667 10.3282 3.66667 10.8342C3.66667 11.3402 4.07733 11.7509 4.58333 11.7509C5.08933 11.7509 5.5 11.3402 5.5 10.8342C5.5 10.3282 5.08933 9.91758 4.58333 9.91758ZM16.5 12.6676C16.5 13.1736 16.9107 13.5842 17.4167 13.5842C17.9227 13.5842 18.3333 13.1736 18.3333 12.6676C18.3333 12.1616 17.9227 11.7509 17.4167 11.7509C16.9107 11.7509 16.5 12.1616 16.5 12.6676ZM15.5843 17.2509C14.0809 17.2509 12.3869 16.7669 10.7488 16.2985C9.23267 15.8649 7.66425 15.4176 6.41758 15.4176C3.91417 15.4176 1.331 16.612 1.30442 16.623L0 17.2335V4.56242C0 3.52842 0.5665 2.59342 1.48042 2.12133C2.695 1.49525 4.53567 0.75 6.41758 0.75C7.94108 0.75 9.41142 1.24042 10.8323 1.71342C12.1733 2.16075 13.4402 2.58333 14.6667 2.58333C15.9372 2.58333 16.9739 2.2515 17.8072 1.98475C18.084 1.89583 18.3361 1.81517 18.5662 1.75467C19.3893 1.53558 20.2483 1.71067 20.9248 2.23133C21.6086 2.7575 22.0009 3.55408 22.0009 4.41667V15.6779L21.4628 15.9217C21.3428 15.9767 18.4993 17.2509 15.5843 17.2509ZM6.41758 13.5842C7.92092 13.5842 9.61492 14.0682 11.253 14.5367C12.7701 14.9702 14.3376 15.4176 15.5843 15.4176C17.4176 15.4176 19.2784 14.808 20.1676 14.4716V4.41758C20.1676 4.12792 20.0356 3.86117 19.8064 3.68517C19.6763 3.58525 19.4013 3.43217 19.0346 3.52842C18.832 3.5825 18.6093 3.654 18.3654 3.73192C17.4616 4.02067 16.2223 4.41758 14.6667 4.41758C13.1432 4.41758 11.6728 3.92717 10.252 3.45417C8.91092 3.00683 7.64408 2.58425 6.41758 2.58425C4.8235 2.58425 3.16617 3.31575 2.32008 3.75117C2.01942 3.90608 1.83242 4.21683 1.83242 4.56242V14.4459C2.95992 14.0545 4.67683 13.5842 6.41758 13.5842Z" fill="#898989"/>
</svg>
