<svg width="25" height="24" viewBox="0 0 25 24" fill="none" xmlns="http://www.w3.org/2000/svg">
<mask id="mask0_1_420" style="mask-type:alpha" maskUnits="userSpaceOnUse" x="0" y="0" width="25" height="24">
<rect x="0.25" width="24" height="24" fill="#D9D9D9"/>
</mask>
<g mask="url(#mask0_1_420)">
<path d="M4.25 20C3.7 20 3.22917 19.8042 2.8375 19.4125C2.44583 19.0208 2.25 18.55 2.25 18V6C2.25 5.45 2.44583 4.97917 2.8375 4.5875C3.22917 4.19583 3.7 4 4.25 4H20.25C20.8 4 21.2708 4.19583 21.6625 4.5875C22.0542 4.97917 22.25 5.45 22.25 6V12.025H20.25V6H4.25V18H14.275V20H4.25ZM19.75 21L18.65 18.6L16.25 17.5L18.65 16.4L19.75 14L20.85 16.4L23.25 17.5L20.85 18.6L19.75 21ZM12.25 16L13.5 13.25L16.25 12L13.5 10.75L12.25 8L11 10.75L8.25 12L11 13.25L12.25 16Z" fill="#898989"/>
</g>
</svg>
