<svg width="25" height="24" viewBox="0 0 25 24" fill="none" xmlns="http://www.w3.org/2000/svg">
<mask id="mask0_1_429" style="mask-type:alpha" maskUnits="userSpaceOnUse" x="0" y="0" width="25" height="24">
<rect x="0.5" width="24" height="24" fill="#D9D9D9"/>
</mask>
<g mask="url(#mask0_1_429)">
<path d="M4.5 20C3.95 20 3.47917 19.8042 3.0875 19.4125C2.69583 19.0208 2.5 18.55 2.5 18V6C2.5 5.45 2.69583 4.97917 3.0875 4.5875C3.47917 4.19583 3.95 4 4.5 4H20.5C21.05 4 21.5208 4.19583 21.9125 4.5875C22.3042 4.97917 22.5 5.45 22.5 6V12.025H20.5V6H4.5V18H14.525V20H4.5ZM12.5 16L13.75 13.25L16.5 12L13.75 10.75L12.5 8L11.25 10.75L8.5 12L11.25 13.25L12.5 16Z" fill="#898989"/>
</g>
<circle cx="19.5" cy="17" r="4" fill="#898989"/>
</svg>
